<?xml version="1.0" encoding="UTF-8"?>
<!-- Generator: Adobe Illustrator 24.2.3, SVG Export Plug-In . SVG Version: 6.00 Build 0)  -->
<svg version="1.1" id="Layer_1" xmlns="http://www.w3.org/2000/svg" xmlns:xlink="http://www.w3.org/1999/xlink" x="0px" y="0px" viewBox="0 0 598 504" style="enable-background:new 0 0 598 504;" xml:space="preserve" ml-update="aware">
<style type="text/css">
	.st0{fill-rule:evenodd;clip-rule:evenodd;fill:#7D8EDD;}
	.st1{enable-background:new    ;}
	.st2{fill:#FFC4C8;}
</style>
<g id="Layer_1_1_">
	<path class="st0" d="M123.9,101.6c77.7-40.8,105.9,19.3,201.9,21.4c255.1-43.2,256.1,198.1,164.3,282.1   C303.1,552.1-138.9,239.5,123.9,101.6z"/>
</g>
<g class="st1">
	<path class="st2" d="M30.9,66.3c2.2-3.4,4.7-5.9,7.5-7.3c2.7-1.4,6.2-2.1,10.5-2.1c6.9,0,13.1,1.3,18.6,4c-1,12.4-2,25-3,37.7   c-1,12.8-1.7,24.5-2.1,35c-2.8,1.6-6.3,3-10.5,4.3c-4.2,1.2-8.3,1.8-12.3,1.8c-3,0-6-0.3-9-0.9c-2.9-0.6-5.6-1.6-7.9-3   c-2.3-1.4-4.2-3.3-5.5-5.8c-1.3-2.4-2-5.5-2-9.1c0-3.9,0.4-8.3,1.2-13.4c0.8-5.1,2-10.1,3.5-15.1c1.5-5,3.2-9.8,5-14.5   C26.7,73.2,28.7,69.3,30.9,66.3z M93,66.3c2.2-3.4,4.7-5.9,7.5-7.3c2.7-1.4,6.2-2.1,10.5-2.1c6.9,0,13.1,1.3,18.6,4   c-1,12.4-2,25-3,37.7c-1,12.8-1.7,24.5-2.1,35c-2.8,1.6-6.3,3-10.5,4.3c-4.2,1.2-8.3,1.8-12.3,1.8c-3,0-6-0.3-9-0.9   c-2.9-0.6-5.6-1.6-7.9-3c-2.3-1.4-4.2-3.3-5.5-5.8c-1.3-2.4-2-5.5-2-9.1c0-3.9,0.4-8.3,1.2-13.4c0.8-5.1,2-10.1,3.5-15.1   c1.5-5,3.2-9.8,5-14.5C88.8,73.2,90.8,69.3,93,66.3z"/>
</g>
</svg>