<?xml version="1.0" encoding="UTF-8"?>
<!-- Generator: Adobe Illustrator 24.2.3, SVG Export Plug-In . SVG Version: 6.00 Build 0)  -->
<svg version="1.1" xmlns="http://www.w3.org/2000/svg" xmlns:xlink="http://www.w3.org/1999/xlink" x="0px" y="0px" viewBox="0 0 744 504" style="enable-background:new 0 0 744 504;" xml:space="preserve" ml-update="aware">
<style type="text/css">
	.st0{fill-rule:evenodd;clip-rule:evenodd;fill:#7D8EDD;}
	.st1{fill:#FFC4C8;}
</style>
<g id="Layer_1">
	<path class="st0" d="M135.2,83.6C240,32.1,275,102,402.3,100.5C742.6,38.8,733.8,324,608.6,427.2   C354.2,608.6-219.3,257.6,135.2,83.6z"/>
</g>
<g id="Layer_2">
	<g>
		<path class="st1" d="M30.9,66.3c2.2-3.4,4.7-5.9,7.5-7.3c2.7-1.4,6.2-2.1,10.5-2.1c6.9,0,13.1,1.3,18.6,4c-1,12.4-2,25-3,37.7    c-1,12.8-1.7,24.5-2.1,35c-2.8,1.6-6.3,3-10.5,4.3c-4.2,1.2-8.3,1.8-12.3,1.8c-3,0-6-0.3-9-0.9c-2.9-0.6-5.6-1.6-7.9-3    c-2.3-1.4-4.2-3.3-5.5-5.8c-1.3-2.4-2-5.5-2-9.1c0-3.9,0.4-8.3,1.2-13.4c0.8-5.1,2-10.1,3.5-15.1c1.5-5,3.2-9.8,5-14.5    C26.7,73.2,28.7,69.3,30.9,66.3z M93,66.3c2.2-3.4,4.7-5.9,7.5-7.3c2.7-1.4,6.2-2.1,10.5-2.1c6.9,0,13.1,1.3,18.6,4    c-1,12.4-2,25-3,37.7c-1,12.8-1.7,24.5-2.1,35c-2.8,1.6-6.3,3-10.5,4.3c-4.2,1.2-8.3,1.8-12.3,1.8c-3,0-6-0.3-9-0.9    c-2.9-0.6-5.6-1.6-7.9-3c-2.3-1.4-4.2-3.3-5.5-5.8c-1.3-2.4-2-5.5-2-9.1c0-3.9,0.4-8.3,1.2-13.4c0.8-5.1,2-10.1,3.5-15.1    c1.5-5,3.2-9.8,5-14.5C88.8,73.2,90.8,69.3,93,66.3z"/>
	</g>
	<g>
		<path class="st1" d="M702.4,452.9c-2.2,3.4-4.7,5.9-7.5,7.3c-2.7,1.4-6.2,2.1-10.5,2.1c-6.9,0-13.1-1.3-18.6-4c1-12.4,2-25,3-37.7    c1-12.8,1.7-24.5,2.1-35c2.8-1.6,6.3-3,10.5-4.3c4.2-1.2,8.3-1.8,12.3-1.8c3,0,6,0.3,9,0.9c2.9,0.6,5.6,1.6,7.9,3    c2.3,1.4,4.2,3.3,5.5,5.8c1.3,2.4,2,5.5,2,9.1c0,3.9-0.4,8.3-1.2,13.4c-0.8,5.1-2,10.1-3.5,15.1c-1.5,5-3.2,9.8-5,14.5    C706.7,445.9,704.6,449.8,702.4,452.9z M640.3,452.9c-2.2,3.4-4.7,5.9-7.5,7.3c-2.7,1.4-6.2,2.1-10.5,2.1c-6.9,0-13.1-1.3-18.6-4    c1-12.4,2-25,3-37.7c1-12.8,1.7-24.5,2.1-35c2.8-1.6,6.3-3,10.5-4.3c4.2-1.2,8.3-1.8,12.3-1.8c3,0,6,0.3,9,0.9    c2.9,0.6,5.6,1.6,7.9,3c2.3,1.4,4.2,3.3,5.5,5.8c1.3,2.4,2,5.5,2,9.1c0,3.9-0.4,8.3-1.2,13.4c-0.8,5.1-2,10.1-3.5,15.1    c-1.5,5-3.2,9.8-5,14.5C644.6,445.9,642.5,449.8,640.3,452.9z"/>
	</g>
</g>
</svg>