<?xml version="1.0" standalone="no"?>
<!DOCTYPE svg PUBLIC "-//W3C//DTD SVG 1.1//EN" "http://www.w3.org/Graphics/SVG/1.1/DTD/svg11.dtd" >
<svg xmlns="http://www.w3.org/2000/svg" xmlns:xlink="http://www.w3.org/1999/xlink" version="1.1">
<metadata>
Created by FontForge 20170731 at Thu Nov  9 17:49:32 2017
 By Aleksey,,,
Copyright 2013 The Alegreya Sans Project Authors (https://github.com/huertatipografica/Alegreya-Sans)
</metadata>
<defs>
<font id="AlegreyaSans-Light" horiz-adv-x="0" >
  <font-face 
    font-family="Alegreya Sans Light"
    font-weight="300"
    font-stretch="normal"
    units-per-em="1000"
    panose-1="0 0 4 0 0 0 0 0 0 0"
    ascent="800"
    descent="-200"
    x-height="457"
    cap-height="639"
    bbox="-413 -264 1137 983.528"
    underline-thickness="42"
    underline-position="-229"
    unicode-range="U+000D-FB02"
  />
<missing-glyph horiz-adv-x="172" 
 />
    <glyph glyph-name="Idieresis" unicode="&#xa8;I" horiz-adv-x="255" 
d="M151 197l2 -197h-52l3 194l-3 445h53zM98.5 809q8.5 -9 8.5 -23q0 -15 -9 -24.5t-23 -9.5q-15 0 -23.5 9t-8.5 24t8.5 24t24.5 9q14 0 22.5 -9zM203.5 809q8.5 -9 8.5 -23q0 -15 -9 -24.5t-24 -9.5t-23.5 9t-8.5 24t9 24t25 9q14 0 22.5 -9z" />
    <glyph glyph-name="Odieresis" unicode="&#xa8;O" horiz-adv-x="631" 
d="M520 563.5q69 -81.5 69 -232.5q0 -163 -73 -250t-208 -87q-127 0 -196 83.5t-69 238.5q0 158 72.5 243.5t206.5 85.5q129 0 198 -81.5zM152 530q-57 -71 -57 -209q0 -141 55 -213t162 -72q110 0 167 73t57 214q0 138 -55 208t-162 70q-110 0 -167 -71zM265.5 809.5
q8.5 -8.5 8.5 -23.5t-8.5 -24.5t-23.5 -9.5t-23.5 9t-8.5 24t8.5 24t24.5 9q14 0 22.5 -8.5zM415.5 809.5q8.5 -8.5 8.5 -23.5t-9 -24.5t-24 -9.5t-23.5 9t-8.5 24t9 24t24 9t23.5 -8.5z" />
    <glyph glyph-name="Yacute" unicode="&#xb4;Y" horiz-adv-x="512" 
d="M271 191l2 -191h-52l2 191l-1 45l-202 403h58l12 -31l156 -310h6l170 309l13 32h57l-220 -401zM359 849l14 -30l-2 -7q-89 -46 -186 -89l-7 3l-11 26q109 53 185 99z" />
    <glyph glyph-name="idieresis" unicode="&#xa8;i" horiz-adv-x="233" 
d="M92 195l-1 256l50 6l-1 -259l1 -198h-51zM87.5 625q8.5 -9 8.5 -23q0 -15 -9 -24.5t-23 -9.5q-15 0 -23.5 9t-8.5 24t8.5 24t24.5 9q14 0 22.5 -9zM192.5 625q8.5 -9 8.5 -23q0 -15 -9 -24.5t-24 -9.5t-23.5 9t-8.5 24t9 24t25 9q14 0 22.5 -9z" />
    <glyph glyph-name="odieresis" unicode="&#xa8;o" horiz-adv-x="489" 
d="M388.5 401.5q50.5 -60.5 50.5 -168.5q0 -113 -53 -176t-147 -63q-90 0 -140 60.5t-50 167.5q0 113 52.5 176.5t146.5 63.5q90 0 140.5 -60.5zM137 373q-39 -50 -39 -141q0 -96 37.5 -147.5t105.5 -51.5q71 0 110 49.5t39 140.5q0 96 -38 148t-106 52q-70 0 -109 -50z
M193.5 625.5q8.5 -8.5 8.5 -23.5t-8.5 -24.5t-23.5 -9.5t-23.5 9t-8.5 24t8.5 24t24.5 9q14 0 22.5 -8.5zM343.5 625.5q8.5 -8.5 8.5 -23.5t-9 -24.5t-24 -9.5t-23.5 9t-8.5 24t9 24t24 9t23.5 -8.5z" />
    <glyph glyph-name="yacute" unicode="&#xb4;y" horiz-adv-x="417" 
d="M78 405l124 -342h6l129 339l15 53h49l-170 -446q-26 -68 -53.5 -106t-66 -58.5t-101.5 -34.5h-6q-14 13 -21 30l1 8q55 10 89 26t59 45t49 81l-167 453l49 5zM311 683l21 -27l-1 -7q-48 -41 -158 -131l-7 1l-17 24q77 63 156 141z" />
    <glyph glyph-name="Itilde" unicode="&#x7e;I" horiz-adv-x="255" 
d="M151 197l2 -197h-52l3 194l-3 445h53zM259 813v-6l-52 -59l-7 -2q-20 2 -73 20q-49 17 -62 17q-5 0 -12.5 -6t-12.5 -11.5t-7 -8.5l-16 -17h-5l-18 18v6l52 58l8 3q20 -2 73 -20q49 -17 61 -17q7 0 14 6.5t20 20.5q4 5 15 16h5z" />
    <glyph glyph-name="itilde" unicode="&#x7e;i" horiz-adv-x="233" 
d="M92 195l-1 256l50 6l-1 -259l1 -198h-51zM248 629v-6l-52 -59l-7 -2q-20 2 -73 20q-49 17 -62 17q-5 0 -12.5 -6t-12.5 -11.5t-7 -8.5l-16 -17h-5l-18 18v6l52 58l8 3q20 -2 73 -20q49 -17 61 -17q7 0 14 6.5t20 20.5q4 5 15 16h5z" />
    <glyph glyph-name="Utilde" unicode="&#x7e;U" horiz-adv-x="619" 
d="M539 313v-77q2 -115 -59 -178t-174 -63q-110 0 -168.5 61t-57.5 176v407h51l-2 -402q-1 -96 45 -146t135 -50t135.5 49t45.5 142l-2 407h52zM462 816v-6l-57 -59l-8 -3q-21 2 -80 20q-64 18 -76 18q-6 0 -14.5 -6.5t-17.5 -16.5l-22 -21h-6l-17 18v6l57 59l8 2
q23 -2 84 -20q57 -17 71 -17q7 0 15 6t21 19l19 19h5z" />
    <glyph glyph-name="utilde" unicode="&#x7e;u" horiz-adv-x="507" 
d="M483 45l-6 -33q-24 -14 -51 -16q-29 2 -45 20t-20 55h-4q-68 -68 -140 -76q-66 0 -101 35t-35 101l1 109l-2 211l52 6l-3 -316q0 -48 22.5 -74.5t65.5 -26.5q72 0 142 75v336l49 6l-2 -368q0 -26 7.5 -37.5t24.5 -11.5q18 0 38 10zM403 632v-6l-57 -59l-8 -3
q-21 2 -80 20q-64 18 -76 18q-6 0 -14.5 -6.5t-17.5 -16.5l-22 -21h-6l-17 18v6l57 59l8 2q23 -2 84 -20q57 -17 71 -17q7 0 15 6t21 19l19 19h5z" />
    <glyph glyph-name="uni1EBC" unicode="&#x7e;E" horiz-adv-x="469" 
d="M443 41l-5 -41h-337l3 194l-3 445h336l4 -6l-6 -41l-149 2l-132 -1l-2 -241l125 -1l107 1l4 -5l-5 -41l-231 1l-1 -110l2 -152l129 -1l157 3zM419 816v-6l-57 -59l-8 -3q-21 2 -80 20q-64 18 -76 18q-6 0 -14.5 -6.5t-17.5 -16.5l-22 -21h-6l-17 18v6l57 59l8 2
q23 -2 84 -20q57 -17 71 -17q7 0 15 6t21 19l19 19h5z" />
    <glyph glyph-name="uni1EBD" unicode="&#x7e;e" horiz-adv-x="454" 
d="M362.5 417.5q41.5 -44.5 41.5 -124.5q0 -20 -3 -41l-8 -9l-296 -2v-15q0 -89 40.5 -139t113.5 -50q36 0 71 11.5t62 31.5l7 -4l-7 -45q-65 -37 -139 -37q-91 0 -143.5 61.5t-52.5 168.5q0 72 24 126t69 83t104 29q75 0 116.5 -44.5zM356 300q0 58 -29 90.5t-82 32.5
q-57 0 -95 -38.5t-49 -105.5l253 4zM383 632v-6l-57 -59l-8 -3q-21 2 -80 20q-64 18 -76 18q-6 0 -14.5 -6.5t-17.5 -16.5l-22 -21h-6l-17 18v6l57 59l8 2q23 -2 84 -20q57 -17 71 -17q7 0 15 6t21 19l19 19h5z" />
    <glyph glyph-name="uni1EF8" unicode="&#x7e;Y" horiz-adv-x="512" 
d="M271 191l2 -191h-52l2 191l-1 45l-202 403h58l12 -31l156 -310h6l170 309l13 32h57l-220 -401zM398 816v-6l-57 -59l-8 -3q-21 2 -80 20q-64 18 -76 18q-6 0 -14.5 -6.5t-17.5 -16.5l-22 -21h-6l-17 18v6l57 59l8 2q23 -2 84 -20q57 -17 71 -17q7 0 15 6t21 19l19 19h5z
" />
    <glyph glyph-name="uni1EF9" unicode="&#x7e;y" horiz-adv-x="417" 
d="M78 405l124 -342h6l129 339l15 53h49l-170 -446q-26 -68 -53.5 -106t-66 -58.5t-101.5 -34.5h-6q-14 13 -21 30l1 8q55 10 89 26t59 45t49 81l-167 453l49 5zM360 632v-6l-57 -59l-8 -3q-21 2 -80 20q-64 18 -76 18q-6 0 -14.5 -6.5t-17.5 -16.5l-22 -21h-6l-17 18v6
l57 59l8 2q23 -2 84 -20q57 -17 71 -17q7 0 15 6t21 19l19 19h5z" />
    <glyph glyph-name="fi" unicode="fi" horiz-adv-x="532" 
d="M412 683l-8 -44l-8 -2q-57 27 -115 27q-62 0 -90.5 -30.5t-28.5 -96.5l-1 -83h254l30 5l5 -3l-3 -264l3 -192h-52l3 189l-2 228h-238l-2 -224l3 -193h-51l3 189l-1 228h-68l-4 5l4 32h67v75q0 91 42 133.5t132 42.5q61 0 126 -22z" />
    <glyph glyph-name="fl" unicode="fl" horiz-adv-x="541" 
d="M421 694l-9 -42l-5 -4q-64 23 -120 23q-125 0 -126 -122l-1 -95h123l3 -5l-4 -32h-122l-1 -222l3 -195h-51l3 192l-1 225h-68l-4 5l4 32h68l-1 89q-1 83 44.5 126t131.5 43q61 0 133 -18zM444 198l3 -198h-51l3 195l-3 502l52 5z" />
    <glyph glyph-name="f_j" unicode="fj" horiz-adv-x="538" 
d="M412 683l-8 -44l-8 -2q-57 27 -115 27q-62 0 -90.5 -30.5t-28.5 -96.5l-1 -83h250l34 5l5 -3l-3 -258l2 -182q0 -78 -25 -123t-90 -86l-21 24v8q50 35 68.5 72t18.5 101l1 183l-2 222h-238l-2 -220l3 -197h-51l3 192l-1 225h-68l-4 5l4 32h68l-1 75q0 91 42 133.5
t132 42.5q61 0 126 -22z" />
    <glyph glyph-name="Gtilde" unicode="&#x7e;G" horiz-adv-x="602" 
d="M531 594l-12 -48l-8 -1q-90 54 -170 54q-120 0 -182.5 -72.5t-62.5 -214.5q0 -136 56 -204t166 -68q38 0 71.5 5.5t86.5 20.5l1 93l-1 92l50 4l-1 -90l2 -135q-67 -19 -113.5 -27t-96.5 -9q-135 0 -204.5 82t-69.5 234q0 161 79 247.5t225 86.5q94 0 184 -50zM474 816v-6
l-57 -59l-8 -3q-21 2 -80 20q-64 18 -76 18q-6 0 -14.5 -6.5t-17.5 -16.5l-22 -21h-6l-17 18v6l57 59l8 2q23 -2 84 -20q57 -17 71 -17q7 0 15 6t21 19l19 19h5z" />
    <glyph glyph-name="gtilde" unicode="&#x7e;g" horiz-adv-x="480" 
d="M371 406l-1 -3q29 -38 29 -96q0 -72 -45.5 -114.5t-123.5 -42.5q-37 0 -70 11q-23 -17 -31 -27.5t-8 -20.5q0 -22 28.5 -31.5t89.5 -18.5q59 -9 97 -19t65 -32t27 -60q0 -39 -28 -72t-76 -52.5t-104 -19.5q-76 0 -119.5 34.5t-43.5 88.5q10 30 33 53.5t62 46.5v5
q-38 10 -59.5 27.5t-21.5 47.5q13 29 60 60v3q-64 40 -64 128q0 74 45.5 116t123.5 42q55 0 92 -21q84 16 137 31l6 -4v-38q-46 -12 -100 -22zM320 219.5q32 31.5 32 87.5q0 55 -30.5 85t-86.5 30q-57 0 -89 -31t-32 -87q0 -54 31 -85t87 -31t88 31.5zM361 -14
q-20 15 -49.5 22t-79.5 14l-33 5q-46 -25 -70.5 -50t-24.5 -53q0 -33 32 -55.5t89 -22.5q43 0 78.5 13.5t56.5 36.5t21 49t-20 41zM390 622v-6l-57 -59l-8 -3q-21 2 -80 20q-64 18 -76 18q-6 0 -14.5 -6.5t-17.5 -16.5l-22 -21h-6l-17 18v6l57 59l8 2q23 -2 84 -20
q57 -17 71 -17q7 0 15 6t21 19l19 19h5z" />
    <glyph glyph-name=".notdef" horiz-adv-x="172" 
 />
    <glyph glyph-name=".null" 
 />
    <glyph glyph-name="nonmarkingreturn" unicode="&#xd;" horiz-adv-x="172" 
 />
    <glyph glyph-name="space" unicode=" " horiz-adv-x="172" 
 />
    <glyph glyph-name="exclam" unicode="!" horiz-adv-x="252" 
d="M160 651l-15 -442l-33 -3l-6 7l3 436l6 6l39 2zM141.5 56q8.5 -9 8.5 -24q0 -16 -9 -25.5t-25 -9.5t-24.5 8.5t-8.5 24.5t9 25.5t25 9.5t24.5 -9z" />
    <glyph glyph-name="quotedbl" unicode="&#x22;" horiz-adv-x="253" 
d="M103 631l-19 -164l-29 -4l-5 5l8 165l40 4zM209 631l-18 -164l-30 -4l-5 5l8 165l40 4z" />
    <glyph glyph-name="numbersign" unicode="#" horiz-adv-x="499" 
d="M354 369l-29 -122h113l4 -5l-3 -30h-122l-43 -180h-32l-4 5l41 175h-113l-43 -180h-33l-3 5l41 175h-104l-4 4l3 31h114l28 122h-104l-4 5l3 31h114l40 170h32l4 -7l-39 -163h114l40 170h32l4 -7l-39 -163h112l5 -5l-4 -31h-121zM316 369h-113l-29 -122h114z" />
    <glyph glyph-name="dollar" unicode="$" horiz-adv-x="417" 
d="M319 41.5q-40 -38.5 -107 -44.5l-10 -124h-28l-6 6l10 117q-70 4 -123 35l4 45l8 3q23 -20 53.5 -32t60.5 -14l16 200q-42 19 -68 35t-44 40t-18 59q0 53 42 89.5t110 40.5l12 144h28l7 -6l-12 -139q44 -3 89 -22l-8 -42l-8 -2q-37 23 -75 29l-17 -194q59 -26 91.5 -54.5
t32.5 -77.5q0 -53 -40 -91.5zM134 320q23 -20 67 -40l15 181q-48 -3 -76.5 -30.5t-28.5 -60.5q0 -30 23 -50zM288 66q28 27 28 60q0 31 -22 52t-63 40l-16 -185q45 6 73 33z" />
    <glyph glyph-name="percent" unicode="%" horiz-adv-x="809" 
d="M634 661l5 -11l-478 -740l-23 12l-5 11l478 741zM292.5 598q35.5 -44 35.5 -127q0 -86 -37 -131.5t-107 -45.5q-67 0 -103 44t-36 127q0 86 37.5 131.5t107.5 45.5q67 0 102.5 -44zM109.5 568q-26.5 -34 -26.5 -99q0 -68 26.5 -102.5t78.5 -34.5q50 0 76.5 34.5
t26.5 99.5q0 67 -27 101.5t-78 34.5q-50 0 -76.5 -34zM728 300q36 -44 36 -126q0 -86 -37.5 -132t-107.5 -46q-67 0 -103 44.5t-36 127.5q0 85 37.5 130.5t107.5 45.5q67 0 103 -44zM544.5 270.5q-26.5 -34.5 -26.5 -99.5q0 -67 27 -102t78 -35q50 0 76.5 34.5t26.5 99.5
q0 68 -26.5 102.5t-78.5 34.5q-50 0 -76.5 -34.5z" />
    <glyph glyph-name="ampersand" unicode="&#x26;" horiz-adv-x="686" 
d="M505 364l-1 -5q26 -69 26 -132q0 -64 -24 -112l133 -118v-4q-16 -16 -31 -24l-4 1l-121 107q-30 -40 -80 -61t-115 -21q-98 0 -158.5 46t-60.5 126q0 111 115 172v4q-38 35 -55 70t-17 77q0 72 47 113.5t134 41.5q82 0 155 -38l-12 -40h-10q-60 38 -133 38
q-66 0 -100.5 -31t-34.5 -87q0 -36 15.5 -65t53.5 -60l248 -220q17 40 17 89q0 72 -34 133h-74l-4 5l5 35h284l5 -5l-6 -35h-163zM387 52q41 18 66 52l-240 214q-47 -24 -73 -60.5t-26 -83.5q0 -64 49.5 -102t128.5 -38q54 0 95 18z" />
    <glyph glyph-name="quotesingle" unicode="'" horiz-adv-x="147" 
d="M103 631l-19 -164l-29 -4l-5 5l8 165l40 4z" />
    <glyph glyph-name="parenleft" unicode="(" horiz-adv-x="285" 
d="M279 643v-6q-79 -60 -112.5 -146.5t-34.5 -231.5q1 -144 34.5 -230t112.5 -146v-6l-19 -19h-6q-89 64 -127 156t-39 244q1 154 39 247t127 158h6z" />
    <glyph glyph-name="parenright" unicode=")" horiz-adv-x="308" 
d="M10 -123v6q79 60 112.5 146.5t34.5 231.5q-1 144 -34.5 230t-112.5 146v6l19 19h6q89 -64 127 -156t39 -244q-1 -154 -39 -247t-127 -158h-6z" />
    <glyph glyph-name="asterisk" unicode="*" horiz-adv-x="369" 
d="M213 720l-17 -116l-24 -3l-5 6l2 111q18 7 41 7zM150 589l-4 -24l-6 -2l-102 36q0 23 6 42l5 2zM337 587l-3 -3l-111 -20l-10 22l3 6l102 33q13 -18 19 -38zM219 540l61 -91q-8 -13 -29 -30l-6 1l-51 105l17 16zM170 529v-8l-62 -89q-12 3 -23.5 10t-14.5 9l-1 5l80 84z
" />
    <glyph glyph-name="plus" unicode="+" horiz-adv-x="480" 
d="M260 468v-181h180l5 -5l-3 -34h-182v-183l-35 -3l-5 5v181h-181l-4 4l3 35h182v182l35 4z" />
    <glyph glyph-name="comma" unicode="," horiz-adv-x="230" 
d="M160 7q0 -53 -81 -114l-19 18v5q55 41 55 83q0 24 -31 41v6q16 13 36 20q40 -24 40 -59z" />
    <glyph glyph-name="hyphen" unicode="-" horiz-adv-x="309" 
d="M279 286v-35l-243 -34l-6 6v35l243 33z" />
    <glyph glyph-name="period" unicode="." horiz-adv-x="230" 
d="M139.5 56q8.5 -9 8.5 -24q0 -16 -9 -25.5t-25 -9.5t-24.5 8.5t-8.5 24.5t9 25.5t25 9.5t24.5 -9z" />
    <glyph glyph-name="slash" unicode="/" horiz-adv-x="289" 
d="M280 670l-205 -781h-37l-4 5l204 782h37z" />
    <glyph glyph-name="zero" unicode="0" horiz-adv-x="531" 
d="M426 434.5q55 -65.5 55 -186.5q0 -122 -56.5 -187.5t-161.5 -65.5q-102 0 -157 64t-55 182q0 125 56.5 192t161.5 67q102 0 157 -65.5zM137.5 399q-44.5 -53 -44.5 -154q0 -100 44.5 -152t129.5 -52q83 0 127 51.5t44 149.5q0 103 -44.5 156.5t-128.5 53.5
q-83 0 -127.5 -53z" />
    <glyph glyph-name="one" unicode="1" horiz-adv-x="337" 
d="M207 491l-3 -285l2 -206h-52l3 199l-1 238l-136 -41l-7 4v41l185 57z" />
    <glyph glyph-name="two" unicode="2" horiz-adv-x="448" 
d="M314.5 467.5q35.5 -29.5 35.5 -75.5q0 -40 -29 -91t-90 -123l-113 -132l2 -4h209l82 4l4 -5l-7 -43l-93 2h-223l-38 -1l-3 2v34l139 161q56 65 82.5 108.5t26.5 76.5q0 31 -22.5 51t-62.5 20q-37 0 -73 -19t-66 -53h-6l-9 40q34 36 76 56.5t87 20.5q56 0 91.5 -29.5z" />
    <glyph glyph-name="three" unicode="3" horiz-adv-x="403" 
d="M286.5 464q39.5 -34 39.5 -89q0 -44 -27 -84.5t-76 -64.5v-4q63 -14 96 -50t33 -90q0 -53 -27.5 -94t-76.5 -63.5t-113 -22.5q-48 0 -93 8l-4 44l4 5q45 -15 95 -15q75 0 120.5 36.5t45.5 96.5q0 54 -38.5 85t-110.5 34h-53l-4 4l1 38h44q29 0 60 17t51.5 46t20.5 64
q0 40 -26.5 64.5t-70.5 24.5q-33 0 -64 -15t-64 -46h-6l-8 41q37 33 73 48.5t76 15.5q63 0 102.5 -34z" />
    <glyph glyph-name="four" unicode="4" horiz-adv-x="470" 
d="M436 124l-5 -38l-82 1h-17l2 -176l-4 -5l-39 -4l-4 5l2 180h-201l-54 -1l-5 6v35l256 368h48l-1 -365h99zM289 130v295h-6l-205 -295h211z" />
    <glyph glyph-name="five" unicode="5" horiz-adv-x="411" 
d="M363 493l-5 -42l-5 -4l-58 4h-170l-5 -180l64 -14q93 -20 134 -58.5t41 -99.5q0 -58 -29.5 -103t-82.5 -70t-121 -25q-40 0 -84 9l-5 45l5 5q51 -16 93 -16q79 0 127 40.5t48 107.5q0 48 -35 78t-112 47l-80 16l-5 6l5 247l11 10l51 -1h136l79 2z" />
    <glyph glyph-name="six" unicode="6" horiz-adv-x="463" 
d="M373.5 298q41.5 -44 41.5 -121q0 -85 -49 -134.5t-137 -49.5q-86 0 -131 55.5t-45 159.5q0 131 77.5 231.5t219.5 153.5h5l37 -24v-6q-122 -43 -191.5 -109.5t-91.5 -157.5l5 -5q65 51 144 51q74 0 115.5 -44zM332.5 67.5q35.5 36.5 35.5 103.5q0 63 -32 97t-90 34
q-77 0 -145 -60q-1 -10 -1 -33q0 -87 33.5 -132.5t99.5 -45.5q64 0 99.5 36.5z" />
    <glyph glyph-name="seven" unicode="7" horiz-adv-x="410" 
d="M107 495h233l40 1l1 -39l-208 -457l-40 -104l-43 13l-3 9l244 532h-234l-67 -4l-5 7l4 44z" />
    <glyph glyph-name="eight" unicode="8" horiz-adv-x="465" 
d="M347.5 554q39.5 -36 39.5 -100q0 -54 -29.5 -88t-79.5 -58v-4q39 -17 65.5 -34t44.5 -45t18 -70q0 -73 -50 -116.5t-134 -43.5q-79 0 -125 41t-46 108q0 59 36 95.5t92 60.5v4q-47 23 -75 55t-28 84q0 68 45.5 107.5t117.5 39.5q69 0 108.5 -36zM153 522q-32 -29 -32 -78
q0 -47 28.5 -72.5t82.5 -47.5q51 19 81.5 48t30.5 79q0 46 -28.5 73t-78.5 27q-52 0 -84 -29zM131 231q-34 -30 -34 -84q0 -51 35 -82t94 -31q62 0 98.5 32.5t36.5 84.5q0 36 -18.5 60t-44 37.5t-74.5 34.5q-59 -22 -93 -52z" />
    <glyph glyph-name="nine" unicode="9" horiz-adv-x="463" 
d="M89.5 198q-41.5 44 -41.5 121q0 85 49 134.5t137 49.5q86 0 131 -55.5t45 -159.5q0 -131 -77.5 -231.5t-219.5 -153.5h-5l-37 24v6q122 43 191.5 109.5t91.5 157.5l-5 5q-65 -51 -144 -51q-74 0 -115.5 44zM130.5 428.5q-35.5 -36.5 -35.5 -103.5q0 -63 32 -97t90 -34
q77 0 145 60q1 10 1 33q0 87 -33.5 132.5t-99.5 45.5q-64 0 -99.5 -36.5z" />
    <glyph glyph-name="colon" unicode=":" horiz-adv-x="230" 
d="M135.5 56q8.5 -9 8.5 -24q0 -16 -9 -25.5t-25 -9.5t-24.5 8.5t-8.5 24.5t9 25.5t25 9.5t24.5 -9zM135.5 329q8.5 -9 8.5 -24q0 -16 -9 -25.5t-25 -9.5t-24.5 8.5t-8.5 24.5t9 25.5t25 9.5t24.5 -9z" />
    <glyph glyph-name="semicolon" unicode=";" horiz-adv-x="230" 
d="M156 7q0 -53 -81 -114l-19 18v5q55 41 55 83q0 24 -31 41v6q16 13 36 20q40 -24 40 -59zM135.5 329q8.5 -9 8.5 -24q0 -16 -9 -25.5t-25 -9.5t-24.5 8.5t-8.5 24.5t9 25.5t25 9.5t24.5 -9z" />
    <glyph glyph-name="less" unicode="&#x3c;" horiz-adv-x="480" 
d="M440 428l-3 -6l-354 -151v-5l357 -142l-9 -32l-7 -4l-386 156v45l5 7l385 163z" />
    <glyph glyph-name="equal" unicode="=" horiz-adv-x="480" 
d="M445 360l-3 -34h-403l-4 4l3 35h402zM445 204l-3 -34h-403l-4 4l3 35h402z" />
    <glyph glyph-name="greater" unicode="&#x3e;" horiz-adv-x="480" 
d="M437 296l5 -7v-45l-386 -156l-7 4l-9 32l357 142v5l-354 151l-3 6l12 31z" />
    <glyph glyph-name="question" unicode="?" horiz-adv-x="327" 
d="M263 609.5q62 -40.5 62 -107.5q0 -38 -21 -71.5t-60 -59.5l-90 -60l-1 -3l5 -102l-37 -4l-5 6l-7 112l5 10l98 62q32 20 48.5 46t16.5 57q0 54 -52.5 85.5t-153.5 37.5l-4 6l11 30l8 4q115 -8 177 -48.5zM165 56q9 -9 9 -24q0 -16 -9 -25.5t-25 -9.5t-24.5 8.5t-8.5 24.5
t9 25.5t25 9.5q15 0 24 -9z" />
    <glyph glyph-name="at" unicode="@" horiz-adv-x="816" 
d="M696.5 79.5q-82.5 -75.5 -237.5 -83.5l33 239h-9q-83 -151 -180 -241h-13q-33 22 -49 57t-16 93q0 78 27 147.5t79.5 115.5t126.5 54h4l64 -16l32 17l7 -4l-48 -350l-4 -72q110 12 169 77.5t59 176.5q0 82 -35.5 144.5t-101 97t-154.5 34.5q-110 0 -194.5 -46.5
t-131 -130.5t-46.5 -193t47.5 -188.5t134.5 -122t203 -42.5l2 -6l-19 -29q-121 2 -213 49t-142.5 132.5t-50.5 199.5q0 122 51 216t144 146.5t215 52.5q99 0 173.5 -39t115 -110t40.5 -163q0 -137 -82.5 -212.5zM347.5 87q32.5 36 75.5 102.5t84 153.5l2 17l3 45l-61 15
q-55 -1 -96 -37.5t-63 -96.5t-22 -130q0 -54 11.5 -79.5t23.5 -25.5q10 0 42.5 36z" />
    <glyph glyph-name="A" unicode="A" horiz-adv-x="567" 
d="M542 0h-54l-14 54l-48 138l-152 2l-137 -2l-52 -136l-15 -56h-54l244 639h59zM410 238l-119 341h-6l-130 -341l125 -1z" />
    <glyph glyph-name="B" unicode="B" horiz-adv-x="516" 
d="M437.5 283.5q36.5 -39.5 36.5 -106.5q0 -87 -63 -133.5t-183 -46.5q-70 0 -127 3l3 194l-3 445l152 1q84 0 130 -39t46 -112q0 -58 -25 -97t-71 -58q68 -11 104.5 -50.5zM343.5 567.5q-32.5 28.5 -95.5 28.5h-94l-2 -244l120 -2q51 11 77.5 44.5t26.5 89.5
q0 55 -32.5 83.5zM372.5 77q49.5 36 49.5 103q0 56 -36 88t-104 39l-130 -1l-1 -109l2 -153q39 -3 79 -3q91 0 140.5 36z" />
    <glyph glyph-name="C" unicode="C" horiz-adv-x="522" 
d="M412 630.5q45 -13.5 81 -39.5l-11 -47l-8 -1q-70 56 -158 56q-107 0 -163.5 -72t-56.5 -208t55 -207.5t158 -71.5q46 0 91 16.5t84 46.5l8 -3l-4 -49q-86 -57 -182 -57q-126 0 -194.5 83.5t-68.5 238.5q0 157 71.5 242.5t203.5 85.5q49 0 94 -13.5z" />
    <glyph glyph-name="D" unicode="D" horiz-adv-x="642" 
d="M526.5 565q72.5 -78 72.5 -224q0 -167 -77 -256.5t-221 -89.5q-37 0 -94.5 1.5t-105.5 3.5l3 194l-3 445l217 4q136 0 208.5 -78zM484.5 114q61.5 75 61.5 218q0 132 -59 199.5t-172 67.5q-28 0 -75 -1.5t-86 -3.5l-3 -397l2 -152q41 -2 84.5 -4t70.5 -2q115 0 176.5 75z
" />
    <glyph glyph-name="E" unicode="E" horiz-adv-x="469" 
d="M443 41l-5 -41h-337l3 194l-3 445h336l4 -6l-6 -41l-149 2l-132 -1l-2 -241l125 -1l107 1l4 -5l-5 -41l-231 1l-1 -110l2 -152l129 -1l157 3z" />
    <glyph glyph-name="F" unicode="F" horiz-adv-x="423" 
d="M154 593l-2 -253l117 -1l102 2l5 -6l-6 -40l-218 1l-1 -99l2 -197h-52l3 194l-3 445h320l5 -6l-6 -42l-143 3z" />
    <glyph glyph-name="G" unicode="G" horiz-adv-x="602" 
d="M531 594l-12 -48l-8 -1q-90 54 -170 54q-120 0 -182.5 -72.5t-62.5 -214.5q0 -136 56 -204t166 -68q38 0 71.5 5.5t86.5 20.5l1 93l-1 92l50 4l-1 -90l2 -135q-67 -19 -113.5 -27t-96.5 -9q-135 0 -204.5 82t-69.5 234q0 161 79 247.5t225 86.5q94 0 184 -50z" />
    <glyph glyph-name="H" unicode="H" horiz-adv-x="677" 
d="M574 197l1 -197h-51l2 194v107h-375v-104l2 -197h-52l2 194l-2 445h52l-1 -293h373l-1 293h52z" />
    <glyph glyph-name="I" unicode="I" horiz-adv-x="255" 
d="M151 197l2 -197h-52l3 194l-3 445h53z" />
    <glyph glyph-name="J" unicode="J" horiz-adv-x="290" 
d="M188 212l1 -96q0 -73 -34 -121.5t-117 -94.5l-21 29v8q67 40 95 79.5t28 98.5v91l-2 389h-125l-6 5l4 39h179z" />
    <glyph glyph-name="K" unicode="K" horiz-adv-x="528" 
d="M151 197l2 -197h-52l2 194l-2 445h52zM230 340q137 -172 294 -329v-7q-15 -6 -47 -12l-7 3q-166 174 -297 342v4l230 247l42 51h62z" />
    <glyph glyph-name="L" unicode="L" horiz-adv-x="408" 
d="M404 39l-6 -39h-299l3 194l-3 445h53l-3 -442l2 -152h248z" />
    <glyph glyph-name="M" unicode="M" horiz-adv-x="785" 
d="M717 0h-48l-17 195l-39 354h-6l-195 -472h-47l-188 472h-6l-39 -351l-19 -198h-46l69 639h59l36 -98l157 -395h5l166 403l34 90h59z" />
    <glyph glyph-name="N" unicode="N" horiz-adv-x="677" 
d="M573 182v-182h-53l-366 552h-5l-1 -347l1 -205h-48l2 190l-1 449h54l365 -552h5l1 549l49 4z" />
    <glyph glyph-name="O" unicode="O" horiz-adv-x="631" 
d="M520 563.5q69 -81.5 69 -232.5q0 -163 -73 -250t-208 -87q-127 0 -196 83.5t-69 238.5q0 158 72.5 243.5t206.5 85.5q129 0 198 -81.5zM152 530q-57 -71 -57 -209q0 -141 55 -213t162 -72q110 0 167 73t57 214q0 138 -55 208t-162 70q-110 0 -167 -71z" />
    <glyph glyph-name="P" unicode="P" horiz-adv-x="503" 
d="M411 592.5q49 -47.5 49 -135.5q0 -104 -59.5 -162.5t-167.5 -58.5h-82v-39l2 -197h-52l3 194l-3 445l170 1q91 0 140 -47.5zM370 334q37 45 37 119q0 69 -36.5 105t-105.5 38l-111 -2l-2 -312l111 -2q70 9 107 54z" />
    <glyph glyph-name="Q" unicode="Q" horiz-adv-x="634" 
d="M731 -153q-13 -24 -23 -33l-6 -1q-99 19 -193 65.5t-174 116.5q-8 -1 -25 -1q-129 0 -198 83.5t-69 238.5q0 158 72.5 243.5t206.5 85.5q129 0 198 -81.5t69 -234.5q0 -136 -52.5 -220t-150.5 -107q74 -57 161.5 -94.5t181.5 -52.5zM150.5 109.5q55.5 -71.5 162.5 -71.5
q108 0 165.5 73.5t57.5 214.5q0 135 -55.5 204.5t-162.5 69.5q-110 0 -166.5 -71t-56.5 -210q0 -138 55.5 -209.5z" />
    <glyph glyph-name="R" unicode="R" horiz-adv-x="538" 
d="M494 12v-7q-16 -8 -45 -13l-8 4q-97 139 -164 254h-126v-53l2 -197h-52l3 194l-3 445l170 1q91 0 140 -46t49 -133q0 -70 -36 -121.5t-103 -77.5q75 -121 173 -250zM152 296l130 -2q61 17 93 58.5t32 105.5q0 67 -36.5 101.5t-105.5 36.5l-111 -2z" />
    <glyph glyph-name="S" unicode="S" horiz-adv-x="459" 
d="M390 613l-9 -48l-10 -3q-28 18 -59.5 27.5t-60.5 9.5q-42 0 -73.5 -17.5t-48 -45.5t-16.5 -57q0 -31 18 -54t44.5 -39.5t71.5 -37.5q53 -26 85.5 -46.5t55.5 -53t23 -78.5q0 -47 -25.5 -87.5t-72 -64t-104.5 -23.5q-41 0 -84 11.5t-78 33.5l6 53l7 3q33 -29 74 -43.5
t79 -14.5q44 0 77 18t51 47t18 61q0 33 -18.5 57.5t-45 40.5t-73.5 39q-52 25 -84 45t-54 52t-22 77q0 46 24.5 84.5t69 61t101.5 22.5q66 0 133 -30z" />
    <glyph glyph-name="T" unicode="T" horiz-adv-x="483" 
d="M459 633l-5 -40l-107 3h-78l-3 -399l2 -197h-52l3 194l-3 402h-78l-109 -3l-4 6l5 40h424z" />
    <glyph glyph-name="U" unicode="U" horiz-adv-x="619" 
d="M539 313v-77q2 -115 -59 -178t-174 -63q-110 0 -168.5 61t-57.5 176v407h51l-2 -402q-1 -96 45 -146t135 -50t135.5 49t45.5 142l-2 407h52z" />
    <glyph glyph-name="V" unicode="V" horiz-adv-x="552" 
d="M299 0h-59l-223 639h54l14 -55l184 -525h5l200 523l15 57h54z" />
    <glyph glyph-name="W" unicode="W" horiz-adv-x="889" 
d="M639 0h-53l-140 403h-5l-150 -403h-53l-216 639h53l12 -53l178 -523h5l153 412l-57 164h54l14 -57l178 -519h6l195 521l14 55h51z" />
    <glyph glyph-name="X" unicode="X" horiz-adv-x="583" 
d="M324 332l225 -332h-64l-26 45l-170 246l-171 -249l-24 -42h-58l223 327l-213 312h65l24 -43l157 -229l155 227l25 45h59z" />
    <glyph glyph-name="Y" unicode="Y" horiz-adv-x="512" 
d="M271 191l2 -191h-52l2 191l-1 45l-202 403h58l12 -31l156 -310h6l170 309l13 32h57l-220 -401z" />
    <glyph glyph-name="Z" unicode="Z" horiz-adv-x="518" 
d="M474 600l-379 -556h296l83 4l4 -5l-5 -44l-96 1h-298l-47 -2v40l379 557h-282l-78 -5l-4 6l5 44l89 -1h289l44 1v-40z" />
    <glyph glyph-name="bracketleft" unicode="[" horiz-adv-x="285" 
d="M275 642v-28l-124 -10v-693l124 -10v-28l-5 -4l-163 10l2 379l-2 378l163 10z" />
    <glyph glyph-name="backslash" unicode="\" horiz-adv-x="289" 
d="M13 670l5 6h36l204 -782l-4 -5h-37z" />
    <glyph glyph-name="bracketright" unicode="]" horiz-adv-x="285" 
d="M10 -127v28l124 10v693l-124 10v28l5 4l163 -10l-2 -379l2 -378l-163 -10z" />
    <glyph glyph-name="asciicircum" unicode="^" horiz-adv-x="416" 
d="M394 128l-4 -6l-32 -9l-142 333h-5l-151 -330l-7 -3l-30 12l163 360l7 4h45z" />
    <glyph glyph-name="underscore" unicode="_" horiz-adv-x="452" 
d="M467 -91l-3 -33h-475l-4 5l3 32h475z" />
    <glyph glyph-name="grave" unicode="`" horiz-adv-x="390" 
d="M287 543l-17 -24l-7 -1q-88 70 -158 131l-2 7l21 27l7 1q71 -71 156 -141z" />
    <glyph glyph-name="a" unicode="a" horiz-adv-x="453" 
d="M319 431q34 -31 34 -86q0 -21 -2 -55.5t-3 -73.5q-6 -114 -6 -129q0 -26 7.5 -36.5t25.5 -10.5t38 10l7 -5l-6 -33q-24 -15 -51 -16q-60 2 -63 75h-5q-57 -65 -118 -77q-60 0 -94 31.5t-34 87.5q0 81 88 101l166 39l2 81q0 43 -23 65.5t-65 22.5q-64 0 -140 -65l-6 3
l-8 37q82 65 161 65q61 0 95 -31zM147 179q-51 -12 -51 -60q0 -38 21 -59.5t58 -21.5q30 0 61.5 21t61.5 60l4 97z" />
    <glyph glyph-name="b" unicode="b" horiz-adv-x="509" 
d="M413.5 402q45.5 -58 45.5 -162q0 -117 -57 -182t-159 -65q-51 0 -102 19l-37 -18l-10 6l3 193l-3 504l52 5l-2 -312h5q61 60 136 70q83 0 128.5 -58zM366.5 84.5q43.5 51.5 43.5 148.5q0 87 -33.5 135t-95.5 48q-73 0 -137 -76l-1 -142l1 -137q55 -28 102 -28
q77 0 120.5 51.5z" />
    <glyph glyph-name="c" unicode="c" horiz-adv-x="386" 
d="M305.5 452.5q34.5 -9.5 59.5 -24.5l-10 -45l-8 -1q-23 16 -52 26t-57 10q-65 0 -102.5 -51.5t-37.5 -140.5q0 -87 38 -138t104 -51q30 0 62 10.5t58 27.5l7 -4l-5 -44q-27 -15 -60.5 -24t-66.5 -9q-86 0 -136 62t-50 168q0 109 51 173.5t139 64.5q32 0 66.5 -9.5z" />
    <glyph glyph-name="d" unicode="d" horiz-adv-x="513" 
d="M410 198l2 -111q0 -26 7 -36.5t25 -10.5q17 0 37 10l7 -5l-6 -33q-24 -15 -51 -16q-57 2 -62 71h-5q-31 -31 -60 -48t-65 -24q-90 0 -140 60t-50 168q0 114 57 176.5t160 62.5q43 0 97 -13v248l51 5zM141 373q-43 -50 -43 -143q0 -90 37 -140t102 -50q35 0 66 17.5
t61 55.5l1 81l-2 207q-53 22 -102 22q-77 0 -120 -50z" />
    <glyph glyph-name="e" unicode="e" horiz-adv-x="454" 
d="M362.5 417.5q41.5 -44.5 41.5 -124.5q0 -20 -3 -41l-8 -9l-296 -2v-15q0 -89 40.5 -139t113.5 -50q36 0 71 11.5t62 31.5l7 -4l-7 -45q-65 -37 -139 -37q-91 0 -143.5 61.5t-52.5 168.5q0 72 24 126t69 83t104 29q75 0 116.5 -44.5zM356 300q0 58 -29 90.5t-82 32.5
q-57 0 -95 -38.5t-49 -105.5l253 4z" />
    <glyph glyph-name="f" unicode="f" horiz-adv-x="290" 
d="M330 695l-4 -42l-5 -3q-34 14 -68 14q-44 0 -67.5 -28t-23.5 -82l-1 -100h122l3 -5l-4 -32h-121l-2 -220l3 -197h-51l3 192l-1 225h-68l-4 5l4 32h68l-1 94q0 76 37.5 116t106.5 40q34 0 74 -9z" />
    <glyph glyph-name="g" unicode="g" horiz-adv-x="480" 
d="M371 406l-1 -3q29 -38 29 -96q0 -72 -45.5 -114.5t-123.5 -42.5q-37 0 -70 11q-23 -17 -31 -27.5t-8 -20.5q0 -22 28.5 -31.5t89.5 -18.5q59 -9 97 -19t65 -32t27 -60q0 -39 -28 -72t-76 -52.5t-104 -19.5q-76 0 -119.5 34.5t-43.5 88.5q10 30 33 53.5t62 46.5v5
q-38 10 -59.5 27.5t-21.5 47.5q13 29 60 60v3q-64 40 -64 128q0 74 45.5 116t123.5 42q55 0 92 -21q84 16 137 31l6 -4v-38q-46 -12 -100 -22zM320 219.5q32 31.5 32 87.5q0 55 -30.5 85t-86.5 30q-57 0 -89 -31t-32 -87q0 -54 31 -85t87 -31t88 31.5zM361 -14
q-20 15 -49.5 22t-79.5 14l-33 5q-46 -25 -70.5 -50t-24.5 -53q0 -33 32 -55.5t89 -22.5q43 0 78.5 13.5t56.5 36.5t21 49t-20 41z" />
    <glyph glyph-name="h" unicode="h" horiz-adv-x="513" 
d="M396 425.5q37 -35.5 36 -100.5l-2 -128l2 -197h-52l4 315q0 48 -24.5 74.5t-69.5 26.5q-71 0 -147 -82l-1 -136l3 -198h-51l3 195l-3 502l52 5l-3 -318h6q34 33 70.5 53t69.5 24q70 0 107 -35.5z" />
    <glyph glyph-name="i" unicode="i" horiz-adv-x="233" 
d="M92 195l-1 256l50 6l-1 -259l1 -198h-51zM140.5 639q8.5 -9 8.5 -24q0 -16 -9 -25.5t-25 -9.5t-24.5 8.5t-8.5 24.5t9 25.5t25 9.5t24.5 -9z" />
    <glyph glyph-name="j" unicode="j" horiz-adv-x="245" 
d="M156 455l-3 -257l2 -182q0 -78 -25.5 -123t-91.5 -86l-20 24v7q50 35 69.5 72.5t19.5 101.5l1 183l-2 222h-89l-5 6l4 31h89l49 3zM140.5 639q8.5 -9 8.5 -24q0 -16 -9 -25.5t-25 -9.5t-24.5 8.5t-8.5 24.5t9 25.5t25 9.5t24.5 -9z" />
    <glyph glyph-name="k" unicode="k" horiz-adv-x="438" 
d="M142 198l3 -198h-51l3 195l-3 502l52 5zM221 245q98 -121 208 -235v-7q-10 -5 -25 -7.5t-20 -3.5l-7 2q-117 127 -210 245v6l159 173l27 37h62z" />
    <glyph glyph-name="l" unicode="l" horiz-adv-x="239" 
d="M142 198l3 -198h-51l3 195l-3 502l52 5z" />
    <glyph glyph-name="m" unicode="m" horiz-adv-x="794" 
d="M712 197l1 -197h-52l4 315q0 48 -24 74.5t-69 26.5q-36 0 -73 -20.5t-72 -58.5v-12l-1 -128l1 -197h-52l4 315q0 48 -24 74.5t-69 26.5q-71 0 -147 -82v-136l2 -198h-52l3 195l-2 256l49 6v-73h6q34 33 70 53t70 24q52 0 86 -21t48 -60h5q35 34 73.5 55t73.5 26
q69 0 105.5 -35.5t36.5 -100.5z" />
    <glyph glyph-name="n" unicode="n" horiz-adv-x="509" 
d="M379 315q1 48 -23.5 74.5t-69.5 26.5q-36 0 -74 -21.5t-73 -61.5l-1 -135l3 -198h-52l3 195l-2 256l49 6v-73h5q34 33 70.5 53t70.5 24q69 0 106 -35.5t36 -100.5l-1 -128l2 -197h-52z" />
    <glyph glyph-name="o" unicode="o" horiz-adv-x="489" 
d="M388.5 401.5q50.5 -60.5 50.5 -168.5q0 -113 -53 -176t-147 -63q-90 0 -140 60.5t-50 167.5q0 113 52.5 176.5t146.5 63.5q90 0 140.5 -60.5zM137 373q-39 -50 -39 -141q0 -96 37.5 -147.5t105.5 -51.5q71 0 110 49.5t39 140.5q0 96 -38 148t-106 52q-70 0 -109 -50z" />
    <glyph glyph-name="p" unicode="p" horiz-adv-x="504" 
d="M408.5 403q45.5 -57 45.5 -163q0 -117 -57 -181.5t-161 -64.5q-50 0 -97 9l1 -188h-51l3 380l-3 256l50 6v-66h5q62 60 136 69q83 0 128.5 -57zM362 85.5q43 52.5 43 147.5q0 88 -33.5 135.5t-95.5 47.5q-73 0 -137 -76l-1 -142l1 -142q55 -23 102 -23q78 0 121 52.5z
" />
    <glyph glyph-name="q" unicode="q" horiz-adv-x="503" 
d="M408 460l6 -4l-4 -267l3 -374h-50l1 225v21h-5q-29 -29 -57.5 -44.5t-65.5 -21.5q-88 0 -137.5 60t-49.5 167q0 115 57 177.5t158 62.5q47 0 115 -17zM141 372q-43 -50 -43 -144q0 -89 37 -138.5t100 -49.5q36 0 67.5 17.5t61.5 55.5l1 70l-2 217q-56 22 -103 22
q-76 0 -119 -50z" />
    <glyph glyph-name="r" unicode="r" horiz-adv-x="311" 
d="M302 454v-50l-7 -2q-18 3 -32 3q-34 0 -64 -28.5t-61 -92.5v-86l3 -198h-52l3 195l-2 256l49 6v-102h5q57 101 132 101q12 0 26 -2z" />
    <glyph glyph-name="s" unicode="s" horiz-adv-x="364" 
d="M302 439l-8 -43l-9 -2q-47 27 -91 27q-41 0 -67 -23t-26 -56q0 -32 24 -50.5t73 -40.5q40 -19 62.5 -33t39 -37t16.5 -56q0 -35 -18.5 -65t-53.5 -48t-81 -18q-67 0 -125 33l7 45l7 4q25 -21 55.5 -32t58.5 -11q46 0 74 25t28 59q0 31 -23 49.5t-72 41.5q-39 18 -63 33
t-40.5 39t-16.5 58q0 53 40 87.5t106 34.5q53 0 103 -21z" />
    <glyph glyph-name="t" unicode="t" horiz-adv-x="309" 
d="M288 63l6 -5l-5 -36q-50 -26 -90 -27q-52 6 -77 36.5t-25 87.5l2 90l-1 208h-62l-4 5l4 32h62v91l44 18l6 -5l-1 -104h145l4 -5l-4 -32h-145l-3 -293q0 -43 17 -63.5t52 -20.5t75 23z" />
    <glyph glyph-name="u" unicode="u" horiz-adv-x="507" 
d="M483 45l-6 -33q-24 -14 -51 -16q-29 2 -45 20t-20 55h-4q-68 -68 -140 -76q-66 0 -101 35t-35 101l1 109l-2 211l52 6l-3 -316q0 -48 22.5 -74.5t65.5 -26.5q72 0 142 75v336l49 6l-2 -368q0 -26 7.5 -37.5t24.5 -11.5q18 0 38 10z" />
    <glyph glyph-name="v" unicode="v" horiz-adv-x="405" 
d="M81 404l114 -347h5l133 345l15 53h49l-175 -455h-55l-148 453l49 5z" />
    <glyph glyph-name="w" unicode="w" horiz-adv-x="654" 
d="M79 405l98 -345h5l111 343l15 52h52l11 -50l97 -345h5l112 343l14 52h48l-154 -455h-51l-108 384h-6l-125 -384h-52l-132 453l49 5z" />
    <glyph glyph-name="x" unicode="x" horiz-adv-x="423" 
d="M107 420l107 -156l102 154l22 37h52l-148 -223l156 -229l-56 -6l-22 41l-112 163l-111 -166l-20 -35h-52l155 233l-149 219l57 6z" />
    <glyph glyph-name="y" unicode="y" horiz-adv-x="417" 
d="M78 405l124 -342h6l129 339l15 53h49l-170 -446q-26 -68 -53.5 -106t-66 -58.5t-101.5 -34.5h-6q-14 13 -21 30l1 8q55 10 89 26t59 45t49 81l-167 453l49 5z" />
    <glyph glyph-name="z" unicode="z" horiz-adv-x="406" 
d="M119 455h213l33 1l1 -33l-273 -384h208l65 4l4 -5l-6 -39l-76 1h-215l-37 -1l-1 33l273 385h-198l-60 -5l-5 6l6 39z" />
    <glyph glyph-name="braceleft" unicode="{" horiz-adv-x="285" 
d="M267 648l3 -5l-6 -31q-25 5 -38 5q-33 0 -49.5 -19t-16.5 -61q0 -27 10 -93q10 -60 10 -82q0 -76 -66 -103v-3q66 -27 66 -103q0 -21 -10 -83q-10 -64 -10 -93q0 -41 16.5 -60.5t49.5 -19.5q13 0 38 5l6 -30l-3 -5q-21 -6 -45 -6q-105 0 -105 110q0 33 10 101q9 54 9 79
q0 40 -21 62t-66 29v30q45 7 66 29.5t21 61.5q0 25 -9 79q-10 70 -10 102q0 110 105 110q17 0 45 -6z" />
    <glyph glyph-name="bar" unicode="|" horiz-adv-x="317" 
d="M180 790l-1 -504v-548l-37 -2l-5 7v1048l39 3z" />
    <glyph glyph-name="braceright" unicode="}" horiz-adv-x="285" 
d="M18 -133l-3 5l6 31q25 -5 38 -5q33 0 49.5 19t16.5 61q0 27 -10 93q-10 60 -10 82q0 76 66 103v3q-66 27 -66 103q0 21 10 83q10 64 10 93q0 41 -16.5 60.5t-49.5 19.5q-13 0 -38 -5l-6 30l3 5q21 6 45 6q105 0 105 -110q0 -33 -10 -101q-9 -54 -9 -79q0 -40 21 -62
t66 -29v-30q-45 -7 -66 -29.5t-21 -61.5q0 -25 9 -79q10 -70 10 -102q0 -110 -105 -110q-17 0 -45 6z" />
    <glyph glyph-name="asciitilde" unicode="~" horiz-adv-x="480" 
d="M128.5 259q-10.5 -8 -24.5 -21t-21 -19h-8l-15 18v7l69 64l8 4q18 -2 50.5 -11.5t43.5 -12.5q32 -9 61.5 -16.5t40.5 -7.5q8 0 18 7.5t30 26.5l17 15h8l15 -19v-6l-70 -65l-8 -2q-23 2 -105 25q-74 21 -90 21q-9 0 -19.5 -8z" />
    <glyph glyph-name="uni00A0" unicode="&#xa0;" horiz-adv-x="172" 
 />
    <glyph glyph-name="exclamdown" unicode="&#xa1;" horiz-adv-x="252" 
d="M92 -191l15 442l33 3l6 -7l-3 -436l-6 -6l-39 -2zM110.5 404q-8.5 9 -8.5 24q0 16 9 25.5t25 9.5t24.5 -8.5t8.5 -24.5t-9 -25.5t-25 -9.5t-24.5 9z" />
    <glyph glyph-name="cent" unicode="&#xa2;" horiz-adv-x="384" 
d="M363 112l-4 -34q-27 -18 -62 -28.5t-70 -10.5h-5l-13 -156h-28l-6 6l13 154q-67 14 -105 73.5t-38 150.5q0 107 48.5 171t131.5 67l12 146h28l6 -6l-11 -142q28 -4 54 -13.5t46 -23.5l-10 -35h-7q-36 26 -86 34l-32 -389h9q30 0 62.5 10.5t59.5 28.5zM114.5 147
q27.5 -49 76.5 -65l31 385q-62 -5 -98.5 -57.5t-36.5 -139.5q0 -74 27.5 -123z" />
    <glyph glyph-name="sterling" unicode="&#xa3;" horiz-adv-x="401" 
d="M366 35l-5 -36l-87 1h-241l-5 5l4 30q71 12 71 109v154h-69l-4 4l4 30h69v105q-1 75 36 115t109 40q46 0 103 -18l-4 -39l-4 -3q-48 22 -96 22q-98 0 -98 -111v-111h139l4 -5l-4 -29h-139l-1 -148q0 -38 -9.5 -63.5t-30.5 -45.5v-2h178l76 2z" />
    <glyph glyph-name="currency" unicode="&#xa4;" horiz-adv-x="436" 
d="M385 515l-1 -7l-65 -64q29 -35 29 -82q0 -46 -29 -80l67 -64v-7l-23 -24l-7 1l-64 66q-37 -30 -81 -30q-22 0 -43 8t-37 22l-64 -67h-7l-24 23l1 7l66 64q-30 35 -30 81t29 81l-67 64l1 7l22 23h7l65 -67q34 29 81 29q44 0 79 -27l65 66h6zM138 435q-30 -30 -30 -73
t30 -73t73 -30t73.5 30t30.5 73t-30.5 73t-73.5 30t-73 -30z" />
    <glyph glyph-name="yen" unicode="&#xa5;" horiz-adv-x="459" 
d="M439 156l3 -4l-2 -27h-191l2 -125h-45l2 125h-186l-3 4l2 27h187l-1 24l-41 77h-144l-3 4l2 26h129l-112 207h49l10 -24l130 -236h5l141 235l12 25h49l-122 -207h127l4 -3l-3 -27h-145l-45 -77l-1 -24h190z" />
    <glyph glyph-name="brokenbar" unicode="&#xa6;" horiz-adv-x="317" 
d="M180 790l-1 -420l-37 -4l-5 4v421l39 3zM179 153v-415l-37 -2l-5 7v412l37 5z" />
    <glyph glyph-name="section" unicode="&#xa7;" horiz-adv-x="413" 
d="M341 176q-25 -34 -69 -55q46 -46 46 -95q0 -34 -20 -64t-55.5 -47.5t-80.5 -17.5q-31 0 -64.5 8.5t-59.5 24.5l7 44l7 5q25 -22 55 -33.5t60 -11.5q48 0 76.5 25.5t28.5 59.5q0 31 -24.5 56.5t-75.5 62.5q-60 43 -91 76.5t-31 80.5q0 39 25 73.5t68 56.5q-45 43 -45 92
q0 34 19.5 63t53.5 46t77 17q50 0 102 -21l-8 -44l-9 -2q-47 29 -92 29q-43 0 -70 -25t-27 -57q0 -30 23.5 -54t74.5 -61q40 -29 64.5 -50t42 -49t17.5 -61q0 -38 -25 -72zM320 240q0 34 -25 60.5t-77 64.5q-37 27 -45 34q-38 -20 -58 -45t-20 -52q0 -32 25 -58t77 -63
q42 -31 46 -34q77 36 77 93z" />
    <glyph glyph-name="dieresis" unicode="&#xa8;" horiz-adv-x="390" 
d="M143.5 625.5q8.5 -8.5 8.5 -23.5t-8.5 -24.5t-23.5 -9.5t-23.5 9t-8.5 24t8.5 24t24.5 9q14 0 22.5 -8.5zM293.5 625.5q8.5 -8.5 8.5 -23.5t-9 -24.5t-24 -9.5t-23.5 9t-8.5 24t9 24t24 9t23.5 -8.5z" />
    <glyph glyph-name="copyright" unicode="&#xa9;" horiz-adv-x="683" 
d="M495 560q67 -38 103.5 -107t36.5 -160t-36.5 -160t-103.5 -107t-154 -38t-153.5 38t-103 107t-36.5 160t36.5 160t103 107t153.5 38t154 -38zM201.5 536.5q-60.5 -34.5 -93.5 -97.5t-33 -146t33 -146t93.5 -97.5t139.5 -34.5t139.5 34.5t94 97.5t33.5 146t-33.5 146
t-94 97.5t-139.5 34.5t-139.5 -34.5zM449 439l-8 -32l-5 -1q-17 12 -39.5 18.5t-44.5 6.5q-56 0 -85.5 -34t-29.5 -100q0 -67 29 -102t84 -35q22 0 46.5 7t45.5 20l5 -1l-4 -33q-48 -28 -96 -28q-73 0 -111.5 44t-38.5 126t40 126t116 44q51 0 96 -26z" />
    <glyph glyph-name="ordfeminine" unicode="&#xaa;" horiz-adv-x="309" 
d="M225 625.5q24 -20.5 24 -58.5l-3 -84q-3 -52 -3 -76q0 -16 5 -23t15 -7q12 0 22 7l5 -3l-5 -29q-16 -12 -38 -12q-21 0 -31 11t-12 37h-3q-38 -43 -80 -49q-40 1 -62 22t-22 59q0 57 60 69l107 22l1 47q0 53 -55 53q-40 0 -91 -39l-5 2l-6 32q25 19 54 29.5t56 10.5
q43 0 67 -20.5zM117 465q-36 -7 -36 -41q0 -23 12.5 -36t36.5 -13q17 0 35.5 11.5t35.5 32.5l2 66z" />
    <glyph glyph-name="guillemotleft" unicode="&#xab;" horiz-adv-x="379" 
d="M213 216v14l150 171l26 -16v-8l-133 -153l133 -153v-8l-26 -16zM56 216v14l150 171l26 -16v-8l-133 -153l133 -153v-8l-26 -16z" />
    <glyph glyph-name="logicalnot" unicode="&#xac;" horiz-adv-x="480" 
d="M420 280v-215l-34 -3l-5 5v181h-345l-4 4l3 35h379z" />
    <glyph glyph-name="uni00AD" unicode="&#xad;" horiz-adv-x="309" 
d="M279 286v-35l-243 -34l-6 6v35l243 33z" />
    <glyph glyph-name="registered" unicode="&#xae;" horiz-adv-x="436" 
d="M348 653q49 -49 49 -129q0 -82 -49 -131t-130 -49t-130 49t-49 131q0 80 49 129t130 49t130 -49zM332 410q43 43 43 114q0 70 -43 112.5t-113 42.5q-71 0 -114 -42.5t-43 -112.5q0 -71 43 -114t114 -43q70 0 113 43zM274.5 535.5q-10.5 -15.5 -29.5 -24.5q24 -35 53 -71
l-1 -4q-5 -2 -28 -5l-3 2q-22 28 -47 71h-35v-9l2 -61h-29v193h66q62 0 62 -57q0 -19 -10.5 -34.5zM185 529l37 -1q34 11 34 40q0 17 -11 26t-31 10l-28 -1z" />
    <glyph glyph-name="macron" unicode="&#xaf;" horiz-adv-x="390" 
d="M341 617l-3 -33h-285l-4 5l2 32h286z" />
    <glyph glyph-name="degree" unicode="&#xb0;" horiz-adv-x="294" 
d="M234 609.5q36 -35.5 36 -87.5q0 -51 -36 -86t-87 -35q-52 0 -88 35t-36 86q0 52 36 87.5t88 35.5q51 0 87 -35.5zM81 587.5q-28 -27.5 -28 -65.5q0 -37 28 -64t66 -27t65.5 27t27.5 64q0 38 -27.5 65.5t-65.5 27.5t-66 -27.5z" />
    <glyph glyph-name="plusminus" unicode="&#xb1;" horiz-adv-x="480" 
d="M260 468v-181h180l5 -5l-3 -34h-182v-183l-35 -3l-5 5v181h-181l-4 4l3 35h182v182l35 4zM445 -45l-3 -34h-403l-4 4l3 35h402z" />
    <glyph glyph-name="uni00B2" unicode="&#xb2;" horiz-adv-x="343" 
d="M244 681.5q28 -22.5 28 -58.5q0 -29 -20.5 -63t-68.5 -93l-79 -100l2 -2h147l63 2l2 -5l-5 -37l-73 2h-167l-28 -1l-3 2v30l102 122q44 55 62 83t18 51q0 21 -16 36t-45 15q-27 0 -54 -14.5t-48 -39.5h-6l-8 36q57 57 126 57q43 0 71 -22.5z" />
    <glyph glyph-name="uni00B3" unicode="&#xb3;" horiz-adv-x="301" 
d="M208.5 682.5q27.5 -22.5 27.5 -59.5q0 -27 -17.5 -52.5t-48.5 -39.5v-3q40 -10 61 -33.5t21 -58.5q0 -50 -41 -81t-108 -31q-37 0 -64 7l-4 33l4 4q29 -7 64 -7q47 0 75 20.5t28 55.5q0 32 -22.5 49.5t-65.5 18.5h-39l-3 4l1 32h30q29 0 55 21.5t26 52.5q0 24 -16.5 38
t-43.5 14q-39 0 -83 -35h-5l-8 33q49 40 104 40q45 0 72.5 -22.5z" />
    <glyph glyph-name="acute" unicode="&#xb4;" horiz-adv-x="390" 
d="M266 683l21 -27l-1 -7q-48 -41 -158 -131l-7 1l-17 24q77 63 156 141z" />
    <glyph glyph-name="uni00B5" unicode="&#xb5;" horiz-adv-x="530" 
d="M496 45l-6 -33q-24 -15 -51 -16q-29 2 -45 20t-20 55h-4q-68 -68 -140 -76q-63 0 -95 37l7 -217h-49l2 380l-2 256l49 6v-316q0 -48 22.5 -74.5t65.5 -26.5q72 0 142 75v336l49 6l-2 -368q0 -26 7.5 -37.5t24.5 -11.5q18 0 38 10z" />
    <glyph glyph-name="paragraph" unicode="&#xb6;" horiz-adv-x="467" 
d="M437 633l-5 -37h-78l-1 -420l1 -50q0 -61 -34 -109t-109 -90l-17 25v8q58 36 84.5 75t26.5 86v43l-1 433h-65q-68 -5 -104.5 -44t-36.5 -106q0 -68 39.5 -113t114.5 -62l-15 -33q-92 17 -142 70t-50 140q0 90 53 140t152 50h181z" />
    <glyph glyph-name="periodcentered" unicode="&#xb7;" horiz-adv-x="230" 
d="M139.5 267q8.5 -9 8.5 -24q0 -16 -9 -25.5t-25 -9.5t-24.5 8.5t-8.5 24.5t9 25.5t25 9.5t24.5 -9z" />
    <glyph glyph-name="cedilla" unicode="&#xb8;" horiz-adv-x="390" 
d="M195 -53l32 -20q19 -11 27.5 -23.5t8.5 -29.5q0 -27 -20.5 -43.5t-50.5 -16.5q-40 0 -66 32l7 29l4 1q13 -16 24.5 -23.5t28.5 -7.5q16 0 26 8t10 22q0 10 -5.5 16t-17.5 13l-46 28l25 83h34z" />
    <glyph glyph-name="uni00B9" unicode="&#xb9;" horiz-adv-x="250" 
d="M154 700l-1 -241l1 -132h-47l1 126v199l-88 -24l-5 3v37l133 38z" />
    <glyph glyph-name="ordmasculine" unicode="&#xba;" horiz-adv-x="334" 
d="M266 606.5q34 -39.5 34 -110.5q0 -75 -35.5 -116.5t-100.5 -41.5q-62 0 -95.5 39.5t-33.5 111.5q0 75 35.5 116t99.5 41q62 0 96 -39.5zM103.5 581q-22.5 -30 -22.5 -88q0 -59 21.5 -89t63.5 -30q43 0 66 29.5t23 88.5q0 58 -22.5 88.5t-64.5 30.5t-64.5 -30z" />
    <glyph glyph-name="guillemotright" unicode="&#xbb;" horiz-adv-x="379" 
d="M323 233v-14l-150 -171l-26 16v8l133 153l-133 153v8l26 16zM166 233v-14l-150 -171l-26 16v8l133 153l-133 153v8l26 16z" />
    <glyph glyph-name="onequarter" unicode="&#xbc;" horiz-adv-x="656" 
d="M154 639l-1 -241l1 -132h-47l1 126v199l-88 -24l-5 3v37l133 38zM511 661l4 -11l-478 -740l-23 12l-4 11l478 741zM619 141l-4 -34l-59 2h-5l3 -105l-3 -4l-37 -2l-3 2l1 109h-126l-42 -2l-4 5v31l169 231h43l-1 -228h64zM512 146v171h-4l-125 -171h129z" />
    <glyph glyph-name="onehalf" unicode="&#xbd;" horiz-adv-x="655" 
d="M154 639l-1 -241l1 -132h-47l1 126v199l-88 -24l-5 3v37l133 38zM511 661l4 -11l-478 -740l-23 12l-4 11l478 741zM556 354.5q28 -22.5 28 -58.5q0 -29 -20.5 -63t-68.5 -93l-79 -100l2 -2h147l63 2l2 -5l-5 -37l-73 2h-167l-28 -1l-3 2v30l102 122q44 55 62 83t18 51
q0 21 -16 36t-45 15q-27 0 -54 -14.5t-48 -39.5h-6l-8 36q57 57 126 57q43 0 71 -22.5z" />
    <glyph glyph-name="threequarters" unicode="&#xbe;" horiz-adv-x="707" 
d="M208.5 621.5q27.5 -22.5 27.5 -59.5q0 -27 -17.5 -52.5t-48.5 -39.5v-3q40 -10 61 -33.5t21 -58.5q0 -50 -41 -81t-108 -31q-37 0 -64 7l-4 33l4 4q29 -7 64 -7q47 0 75 20.5t28 55.5q0 32 -22.5 49.5t-65.5 18.5h-39l-3 4l1 32h30q29 0 55 21.5t26 52.5q0 24 -16.5 38
t-43.5 14q-39 0 -83 -35h-5l-8 33q49 40 104 40q45 0 72.5 -22.5zM562 661l4 -11l-478 -740l-23 12l-4 11l478 741zM670 141l-4 -34l-59 2h-5l3 -105l-3 -4l-37 -2l-3 2l1 109h-126l-42 -2l-4 5v31l169 231h43l-1 -228h64zM563 146v171h-4l-125 -171h129z" />
    <glyph glyph-name="questiondown" unicode="&#xbf;" horiz-adv-x="327" 
d="M67 -149.5q-62 40.5 -62 107.5q0 38 21 71.5t60 59.5l90 60l1 3l-5 102l37 4l5 -6l7 -112l-5 -10l-98 -62q-32 -20 -48.5 -46t-16.5 -57q0 -54 52.5 -85.5t153.5 -37.5l4 -6l-11 -30l-8 -4q-115 8 -177 48.5zM165 404q-9 9 -9 24q0 16 9 25.5t25 9.5t24.5 -8.5t8.5 -24.5
t-9 -25.5t-25 -9.5q-15 0 -24 9z" />
    <glyph glyph-name="Agrave" unicode="&#xc0;" horiz-adv-x="567" 
d="M542 0h-54l-14 54l-48 138l-152 2l-137 -2l-52 -136l-15 -56h-54l244 639h59zM410 238l-119 341h-6l-130 -341l125 -1zM385 752l-11 -26l-7 -3q-100 45 -185 89l-3 7l15 30l7 2q75 -45 184 -99z" />
    <glyph glyph-name="Aacute" unicode="&#xc1;" horiz-adv-x="567" 
d="M542 0h-54l-14 54l-48 138l-152 2l-137 -2l-52 -136l-15 -56h-54l244 639h59zM410 238l-119 341h-6l-130 -341l125 -1zM394 849l14 -30l-2 -7q-89 -46 -186 -89l-7 3l-11 26q109 53 185 99z" />
    <glyph glyph-name="Acircumflex" unicode="&#xc2;" horiz-adv-x="567" 
d="M542 0h-54l-14 54l-48 138l-152 2l-137 -2l-52 -136l-15 -56h-54l244 639h59zM410 238l-119 341h-6l-130 -341l125 -1zM166 761q53 36 108 83h19q73 -58 109 -83l-11 -25h-8l-99 68q-48 -34 -99 -68h-7z" />
    <glyph glyph-name="Atilde" unicode="&#xc3;" horiz-adv-x="567" 
d="M542 0h-54l-14 54l-48 138l-152 2l-137 -2l-52 -136l-15 -56h-54l244 639h59zM410 238l-119 341h-6l-130 -341l125 -1zM433 816v-6l-57 -59l-8 -3q-21 2 -80 20q-64 18 -76 18q-6 0 -14.5 -6.5t-17.5 -16.5l-22 -21h-6l-17 18v6l57 59l8 2q23 -2 84 -20q57 -17 71 -17
q7 0 15 6t21 19l19 19h5z" />
    <glyph glyph-name="Adieresis" unicode="&#xc4;" horiz-adv-x="567" 
d="M542 0h-54l-14 54l-48 138l-152 2l-137 -2l-52 -136l-15 -56h-54l244 639h59zM410 238l-119 341h-6l-130 -341l125 -1zM233.5 809.5q8.5 -8.5 8.5 -23.5t-8.5 -24.5t-23.5 -9.5t-23.5 9t-8.5 24t8.5 24t24.5 9q14 0 22.5 -8.5zM383.5 809.5q8.5 -8.5 8.5 -23.5t-9 -24.5
t-24 -9.5t-23.5 9t-8.5 24t9 24t24 9t23.5 -8.5z" />
    <glyph glyph-name="Aring" unicode="&#xc5;" horiz-adv-x="567" 
d="M542 0h-54l-14 54l-48 138l-152 2l-137 -2l-52 -136l-15 -56h-54l244 639h59zM410 238l-119 341h-6l-130 -341l125 -1zM339.5 845.5q20.5 -21.5 20.5 -53.5q0 -36 -23 -57t-55 -21q-33 0 -55 20.5t-22 56.5q0 34 21 55t57 21t56.5 -21.5zM247.5 825q-12.5 -12 -12.5 -33
q0 -23 13 -35.5t34 -12.5t35 12t14 34q0 21 -12.5 34t-36.5 13q-22 0 -34.5 -12z" />
    <glyph glyph-name="AE" unicode="&#xc6;" horiz-adv-x="800" 
d="M780 41l-6 -41h-327l-5 54l-35 220l-250 -50l-93 -168l-23 -56h-56l352 639h339l4 -6l-6 -41l-164 3h-102l42 -269l225 42l5 -4v-39l-223 -41l37 -240h118l164 3zM400 316l-42 263h-4l-169 -304z" />
    <glyph glyph-name="Ccedilla" unicode="&#xc7;" horiz-adv-x="522" 
d="M412 630.5q45 -13.5 81 -39.5l-11 -47l-8 -1q-70 56 -158 56q-107 0 -163.5 -72t-56.5 -208t55 -207.5t158 -71.5q46 0 91 16.5t84 46.5l8 -3l-4 -49q-86 -57 -182 -57q-126 0 -194.5 83.5t-68.5 238.5q0 157 71.5 242.5t203.5 85.5q49 0 94 -13.5zM310 -53l32 -20
q19 -11 27.5 -23.5t8.5 -29.5q0 -27 -20.5 -43.5t-50.5 -16.5q-40 0 -66 32l7 29l4 1q13 -16 24.5 -23.5t28.5 -7.5q16 0 26 8t10 22q0 10 -5.5 16t-17.5 13l-46 28l25 83h34z" />
    <glyph glyph-name="Egrave" unicode="&#xc8;" horiz-adv-x="469" 
d="M443 41l-5 -41h-337l3 194l-3 445h336l4 -6l-6 -41l-149 2l-132 -1l-2 -241l125 -1l107 1l4 -5l-5 -41l-231 1l-1 -110l2 -152l129 -1l157 3zM371 752l-11 -26l-7 -3q-100 45 -185 89l-3 7l15 30l7 2q75 -45 184 -99z" />
    <glyph glyph-name="Eacute" unicode="&#xc9;" horiz-adv-x="469" 
d="M443 41l-5 -41h-337l3 194l-3 445h336l4 -6l-6 -41l-149 2l-132 -1l-2 -241l125 -1l107 1l4 -5l-5 -41l-231 1l-1 -110l2 -152l129 -1l157 3zM380 849l14 -30l-2 -7q-89 -46 -186 -89l-7 3l-11 26q109 53 185 99z" />
    <glyph glyph-name="Ecircumflex" unicode="&#xca;" horiz-adv-x="469" 
d="M443 41l-5 -41h-337l3 194l-3 445h336l4 -6l-6 -41l-149 2l-132 -1l-2 -241l125 -1l107 1l4 -5l-5 -41l-231 1l-1 -110l2 -152l129 -1l157 3zM152 761q53 36 108 83h19q73 -58 109 -83l-11 -25h-8l-99 68q-48 -34 -99 -68h-7z" />
    <glyph glyph-name="Edieresis" unicode="&#xcb;" horiz-adv-x="469" 
d="M443 41l-5 -41h-337l3 194l-3 445h336l4 -6l-6 -41l-149 2l-132 -1l-2 -241l125 -1l107 1l4 -5l-5 -41l-231 1l-1 -110l2 -152l129 -1l157 3zM219.5 809.5q8.5 -8.5 8.5 -23.5t-8.5 -24.5t-23.5 -9.5t-23.5 9t-8.5 24t8.5 24t24.5 9q14 0 22.5 -8.5zM369.5 809.5
q8.5 -8.5 8.5 -23.5t-9 -24.5t-24 -9.5t-23.5 9t-8.5 24t9 24t24 9t23.5 -8.5z" />
    <glyph glyph-name="Igrave" unicode="&#xcc;" horiz-adv-x="255" 
d="M151 197l2 -197h-52l3 194l-3 445h53zM228 752l-11 -26l-7 -3q-100 45 -185 89l-3 7l15 30l7 2q75 -45 184 -99z" />
    <glyph glyph-name="Iacute" unicode="&#xcd;" horiz-adv-x="255" 
d="M151 197l2 -197h-52l3 194l-3 445h53zM237 849l14 -30l-2 -7q-89 -46 -186 -89l-7 3l-11 26q109 53 185 99z" />
    <glyph glyph-name="Icircumflex" unicode="&#xce;" horiz-adv-x="255" 
d="M151 197l2 -197h-52l3 194l-3 445h53zM9 761q53 36 108 83h19q73 -58 109 -83l-11 -25h-8l-99 68q-48 -34 -99 -68h-7z" />
    <glyph glyph-name="Eth" unicode="&#xd0;" horiz-adv-x="661" 
d="M545.5 565q72.5 -78 72.5 -224q0 -167 -77 -256.5t-221 -89.5q-37 0 -94.5 1.5t-105.5 3.5l3 194l-3 445l217 4q136 0 208.5 -78zM503.5 114q61.5 75 61.5 218q0 132 -59 199.5t-172 67.5q-28 0 -75 -1.5t-86 -3.5l-3 -397l2 -152q41 -2 84.5 -4t70.5 -2q115 0 176.5 75z
M331.393 342l-1.87793 -35h-317.401l-2.50391 5l1.87793 35h317.401z" />
    <glyph glyph-name="Ntilde" unicode="&#xd1;" horiz-adv-x="677" 
d="M573 182v-182h-53l-366 552h-5l-1 -347l1 -205h-48l2 190l-1 449h54l365 -552h5l1 549l49 4zM484 816v-6l-57 -59l-8 -3q-21 2 -80 20q-64 18 -76 18q-6 0 -14.5 -6.5t-17.5 -16.5l-22 -21h-6l-17 18v6l57 59l8 2q23 -2 84 -20q57 -17 71 -17q7 0 15 6t21 19l19 19h5z
" />
    <glyph glyph-name="Ograve" unicode="&#xd2;" horiz-adv-x="631" 
d="M520 563.5q69 -81.5 69 -232.5q0 -163 -73 -250t-208 -87q-127 0 -196 83.5t-69 238.5q0 158 72.5 243.5t206.5 85.5q129 0 198 -81.5zM152 530q-57 -71 -57 -209q0 -141 55 -213t162 -72q110 0 167 73t57 214q0 138 -55 208t-162 70q-110 0 -167 -71zM417 752l-11 -26
l-7 -3q-100 45 -185 89l-3 7l15 30l7 2q75 -45 184 -99z" />
    <glyph glyph-name="Oacute" unicode="&#xd3;" horiz-adv-x="631" 
d="M520 563.5q69 -81.5 69 -232.5q0 -163 -73 -250t-208 -87q-127 0 -196 83.5t-69 238.5q0 158 72.5 243.5t206.5 85.5q129 0 198 -81.5zM152 530q-57 -71 -57 -209q0 -141 55 -213t162 -72q110 0 167 73t57 214q0 138 -55 208t-162 70q-110 0 -167 -71zM426 849l14 -30
l-2 -7q-89 -46 -186 -89l-7 3l-11 26q109 53 185 99z" />
    <glyph glyph-name="Ocircumflex" unicode="&#xd4;" horiz-adv-x="631" 
d="M520 563.5q69 -81.5 69 -232.5q0 -163 -73 -250t-208 -87q-127 0 -196 83.5t-69 238.5q0 158 72.5 243.5t206.5 85.5q129 0 198 -81.5zM152 530q-57 -71 -57 -209q0 -141 55 -213t162 -72q110 0 167 73t57 214q0 138 -55 208t-162 70q-110 0 -167 -71zM198 761
q53 36 108 83h19q73 -58 109 -83l-11 -25h-8l-99 68q-48 -34 -99 -68h-7z" />
    <glyph glyph-name="Otilde" unicode="&#xd5;" horiz-adv-x="631" 
d="M520 563.5q69 -81.5 69 -232.5q0 -163 -73 -250t-208 -87q-127 0 -196 83.5t-69 238.5q0 158 72.5 243.5t206.5 85.5q129 0 198 -81.5zM152 530q-57 -71 -57 -209q0 -141 55 -213t162 -72q110 0 167 73t57 214q0 138 -55 208t-162 70q-110 0 -167 -71zM465 816v-6
l-57 -59l-8 -3q-21 2 -80 20q-64 18 -76 18q-6 0 -14.5 -6.5t-17.5 -16.5l-22 -21h-6l-17 18v6l57 59l8 2q23 -2 84 -20q57 -17 71 -17q7 0 15 6t21 19l19 19h5z" />
    <glyph glyph-name="multiply" unicode="&#xd7;" horiz-adv-x="480" 
d="M396 402v-7l-128 -127l128 -129v-6l-27 -23l-129 130l-130 -130l-26 23v6l129 129l-129 127v7l26 22l130 -129l129 129z" />
    <glyph glyph-name="Oslash" unicode="&#xd8;" horiz-adv-x="631" 
d="M558 501.5q31 -70.5 31 -170.5q0 -163 -73 -250t-208 -87q-63 0 -115 22l-52 -111l-34 11l-3 5l53 115q-56 38 -85 109t-29 171q0 158 72.5 243.5t206.5 85.5q63 0 110 -19l42 91l33 -11l3 -7l-42 -91q59 -36 90 -106.5zM178 79l234 505q-42 17 -93 17q-110 0 -167 -71
t-57 -209q0 -173 83 -242zM479 109q57 73 57 214q0 176 -89 241l-235 -507q42 -21 100 -21q110 0 167 73z" />
    <glyph glyph-name="Ugrave" unicode="&#xd9;" horiz-adv-x="619" 
d="M539 313v-77q2 -115 -59 -178t-174 -63q-110 0 -168.5 61t-57.5 176v407h51l-2 -402q-1 -96 45 -146t135 -50t135.5 49t45.5 142l-2 407h52zM414 752l-11 -26l-7 -3q-100 45 -185 89l-3 7l15 30l7 2q75 -45 184 -99z" />
    <glyph glyph-name="Uacute" unicode="&#xda;" horiz-adv-x="619" 
d="M539 313v-77q2 -115 -59 -178t-174 -63q-110 0 -168.5 61t-57.5 176v407h51l-2 -402q-1 -96 45 -146t135 -50t135.5 49t45.5 142l-2 407h52zM423 849l14 -30l-2 -7q-89 -46 -186 -89l-7 3l-11 26q109 53 185 99z" />
    <glyph glyph-name="Ucircumflex" unicode="&#xdb;" horiz-adv-x="619" 
d="M539 313v-77q2 -115 -59 -178t-174 -63q-110 0 -168.5 61t-57.5 176v407h51l-2 -402q-1 -96 45 -146t135 -50t135.5 49t45.5 142l-2 407h52zM195 761q53 36 108 83h19q73 -58 109 -83l-11 -25h-8l-99 68q-48 -34 -99 -68h-7z" />
    <glyph glyph-name="Udieresis" unicode="&#xdc;" horiz-adv-x="619" 
d="M539 313v-77q2 -115 -59 -178t-174 -63q-110 0 -168.5 61t-57.5 176v407h51l-2 -402q-1 -96 45 -146t135 -50t135.5 49t45.5 142l-2 407h52zM262.5 809.5q8.5 -8.5 8.5 -23.5t-8.5 -24.5t-23.5 -9.5t-23.5 9t-8.5 24t8.5 24t24.5 9q14 0 22.5 -8.5zM412.5 809.5
q8.5 -8.5 8.5 -23.5t-9 -24.5t-24 -9.5t-23.5 9t-8.5 24t9 24t24 9t23.5 -8.5z" />
    <glyph glyph-name="Thorn" unicode="&#xde;" horiz-adv-x="507" 
d="M412.5 476.5q48.5 -47.5 48.5 -137.5q0 -105 -58.5 -161.5t-168.5 -56.5l-82 -1l1 -120h-52l2 194l-2 445h53l-1 -116l119 1q92 0 140.5 -47.5zM371 219q37 44 37 118q0 68 -36.5 104t-105.5 39l-113 -2l-1 -281v-31l112 -2q70 11 107 55z" />
    <glyph glyph-name="germandbls" unicode="&#xdf;" horiz-adv-x="542" 
d="M346.5 308q24.5 -23 72.5 -51q36 -21 57.5 -37t36.5 -39.5t15 -55.5q0 -36 -19 -66t-54 -47.5t-81 -17.5q-32 0 -64.5 8.5t-59.5 24.5l7 45l7 4q52 -43 113 -43q47 0 75 24.5t28 59.5q0 31 -22.5 52t-68.5 49q-38 23 -60.5 40t-38.5 42.5t-16 59.5q0 37 16 60.5t48 52.5
q30 27 45 48.5t15 54.5q0 42 -27.5 65t-76.5 23q-63 0 -97.5 -38t-35.5 -110l-2 -321l3 -195h-51l3 190l-1 227h-68l-4 5l4 32h67v58q0 92 48.5 142t133.5 50q71 0 110 -32.5t39 -89.5q0 -40 -17 -66.5t-49 -56.5q-27 -25 -41 -44.5t-14 -47.5q0 -36 24.5 -59z" />
    <glyph glyph-name="agrave" unicode="&#xe0;" horiz-adv-x="453" 
d="M319 431q34 -31 34 -86q0 -21 -2 -55.5t-3 -73.5q-6 -114 -6 -129q0 -26 7.5 -36.5t25.5 -10.5t38 10l7 -5l-6 -33q-24 -15 -51 -16q-60 2 -63 75h-5q-57 -65 -118 -77q-60 0 -94 31.5t-34 87.5q0 81 88 101l166 39l2 81q0 43 -23 65.5t-65 22.5q-64 0 -140 -65l-6 3
l-8 37q82 65 161 65q61 0 95 -31zM147 179q-51 -12 -51 -60q0 -38 21 -59.5t58 -21.5q30 0 61.5 21t61.5 60l4 97zM309 543l-17 -24l-7 -1q-88 70 -158 131l-2 7l21 27l7 1q71 -71 156 -141z" />
    <glyph glyph-name="aacute" unicode="&#xe1;" horiz-adv-x="453" 
d="M319 431q34 -31 34 -86q0 -21 -2 -55.5t-3 -73.5q-6 -114 -6 -129q0 -26 7.5 -36.5t25.5 -10.5t38 10l7 -5l-6 -33q-24 -15 -51 -16q-60 2 -63 75h-5q-57 -65 -118 -77q-60 0 -94 31.5t-34 87.5q0 81 88 101l166 39l2 81q0 43 -23 65.5t-65 22.5q-64 0 -140 -65l-6 3
l-8 37q82 65 161 65q61 0 95 -31zM147 179q-51 -12 -51 -60q0 -38 21 -59.5t58 -21.5q30 0 61.5 21t61.5 60l4 97zM317 683l21 -27l-1 -7q-48 -41 -158 -131l-7 1l-17 24q77 63 156 141z" />
    <glyph glyph-name="acircumflex" unicode="&#xe2;" horiz-adv-x="453" 
d="M319 431q34 -31 34 -86q0 -21 -2 -55.5t-3 -73.5q-6 -114 -6 -129q0 -26 7.5 -36.5t25.5 -10.5t38 10l7 -5l-6 -33q-24 -15 -51 -16q-60 2 -63 75h-5q-57 -65 -118 -77q-60 0 -94 31.5t-34 87.5q0 81 88 101l166 39l2 81q0 43 -23 65.5t-65 22.5q-64 0 -140 -65l-6 3
l-8 37q82 65 161 65q61 0 95 -31zM147 179q-51 -12 -51 -60q0 -38 21 -59.5t58 -21.5q30 0 61.5 21t61.5 60l4 97zM95 544q51 54 112 130h21q64 -80 112 -130l-16 -23h-7q-56 58 -100 110q-50 -60 -99 -110h-7z" />
    <glyph glyph-name="atilde" unicode="&#xe3;" horiz-adv-x="453" 
d="M319 431q34 -31 34 -86q0 -21 -2 -55.5t-3 -73.5q-6 -114 -6 -129q0 -26 7.5 -36.5t25.5 -10.5t38 10l7 -5l-6 -33q-24 -15 -51 -16q-60 2 -63 75h-5q-57 -65 -118 -77q-60 0 -94 31.5t-34 87.5q0 81 88 101l166 39l2 81q0 43 -23 65.5t-65 22.5q-64 0 -140 -65l-6 3
l-8 37q82 65 161 65q61 0 95 -31zM147 179q-51 -12 -51 -60q0 -38 21 -59.5t58 -21.5q30 0 61.5 21t61.5 60l4 97zM366 632v-6l-57 -59l-8 -3q-21 2 -80 20q-64 18 -76 18q-6 0 -14.5 -6.5t-17.5 -16.5l-22 -21h-6l-17 18v6l57 59l8 2q23 -2 84 -20q57 -17 71 -17q7 0 15 6
t21 19l19 19h5z" />
    <glyph glyph-name="adieresis" unicode="&#xe4;" horiz-adv-x="453" 
d="M319 431q34 -31 34 -86q0 -21 -2 -55.5t-3 -73.5q-6 -114 -6 -129q0 -26 7.5 -36.5t25.5 -10.5t38 10l7 -5l-6 -33q-24 -15 -51 -16q-60 2 -63 75h-5q-57 -65 -118 -77q-60 0 -94 31.5t-34 87.5q0 81 88 101l166 39l2 81q0 43 -23 65.5t-65 22.5q-64 0 -140 -65l-6 3
l-8 37q82 65 161 65q61 0 95 -31zM147 179q-51 -12 -51 -60q0 -38 21 -59.5t58 -21.5q30 0 61.5 21t61.5 60l4 97zM166.5 625.5q8.5 -8.5 8.5 -23.5t-8.5 -24.5t-23.5 -9.5t-23.5 9t-8.5 24t8.5 24t24.5 9q14 0 22.5 -8.5zM316.5 625.5q8.5 -8.5 8.5 -23.5t-9 -24.5
t-24 -9.5t-23.5 9t-8.5 24t9 24t24 9t23.5 -8.5z" />
    <glyph glyph-name="aring" unicode="&#xe5;" horiz-adv-x="453" 
d="M319 431q34 -31 34 -86q0 -21 -2 -55.5t-3 -73.5q-6 -114 -6 -129q0 -26 7.5 -36.5t25.5 -10.5t38 10l7 -5l-6 -33q-24 -15 -51 -16q-60 2 -63 75h-5q-57 -65 -118 -77q-60 0 -94 31.5t-34 87.5q0 81 88 101l166 39l2 81q0 43 -23 65.5t-65 22.5q-64 0 -140 -65l-6 3
l-8 37q82 65 161 65q61 0 95 -31zM147 179q-51 -12 -51 -60q0 -38 21 -59.5t58 -21.5q30 0 61.5 21t61.5 60l4 97zM272.5 661.5q20.5 -21.5 20.5 -53.5q0 -36 -23 -57t-55 -21q-33 0 -55 20.5t-22 56.5q0 34 21 55t57 21t56.5 -21.5zM180.5 641q-12.5 -12 -12.5 -33
q0 -23 13 -35.5t34 -12.5t35 12t14 34q0 21 -12.5 34t-36.5 13q-22 0 -34.5 -12z" />
    <glyph glyph-name="ae" unicode="&#xe6;" horiz-adv-x="671" 
d="M630 279l-290 -57q2 -90 39 -138.5t105 -48.5q34 0 68 12t60 34l7 -4l-6 -43q-29 -19 -64 -29.5t-69 -10.5q-55 0 -95.5 27t-62.5 77q-37 -46 -71.5 -71t-74.5 -33q-61 0 -96 32.5t-35 87.5q0 85 88 102l165 33v85q0 43 -22 65.5t-63 22.5q-62 0 -139 -65l-7 3l-8 37
q82 65 160 65q49 0 78.5 -23.5t36.5 -65.5q54 88 150 88q70 0 111 -45t42 -128zM409 402q-32 -21 -50.5 -56.5t-18.5 -76.5v-12l249 52q-4 53 -33.5 83.5t-75.5 30.5q-39 0 -71 -21zM235 60q30 21 72 71q-8 39 -9 82l-148 -31q-31 -7 -44.5 -22.5t-13.5 -41.5q0 -37 22 -58
t59 -21q32 0 62 21z" />
    <glyph glyph-name="ccedilla" unicode="&#xe7;" horiz-adv-x="386" 
d="M305.5 452.5q34.5 -9.5 59.5 -24.5l-10 -45l-8 -1q-23 16 -52 26t-57 10q-65 0 -102.5 -51.5t-37.5 -140.5q0 -87 38 -138t104 -51q30 0 62 10.5t58 27.5l7 -4l-5 -44q-27 -15 -60.5 -24t-66.5 -9q-86 0 -136 62t-50 168q0 109 51 173.5t139 64.5q32 0 66.5 -9.5z
M238 -53l32 -20q19 -11 27.5 -23.5t8.5 -29.5q0 -27 -20.5 -43.5t-50.5 -16.5q-40 0 -66 32l7 29l4 1q13 -16 24.5 -23.5t28.5 -7.5q16 0 26 8t10 22q0 10 -5.5 16t-17.5 13l-46 28l25 83h34z" />
    <glyph glyph-name="egrave" unicode="&#xe8;" horiz-adv-x="454" 
d="M362.5 417.5q41.5 -44.5 41.5 -124.5q0 -20 -3 -41l-8 -9l-296 -2v-15q0 -89 40.5 -139t113.5 -50q36 0 71 11.5t62 31.5l7 -4l-7 -45q-65 -37 -139 -37q-91 0 -143.5 61.5t-52.5 168.5q0 72 24 126t69 83t104 29q75 0 116.5 -44.5zM356 300q0 58 -29 90.5t-82 32.5
q-57 0 -95 -38.5t-49 -105.5l253 4zM326 543l-17 -24l-7 -1q-88 70 -158 131l-2 7l21 27l7 1q71 -71 156 -141z" />
    <glyph glyph-name="eacute" unicode="&#xe9;" horiz-adv-x="454" 
d="M362.5 417.5q41.5 -44.5 41.5 -124.5q0 -20 -3 -41l-8 -9l-296 -2v-15q0 -89 40.5 -139t113.5 -50q36 0 71 11.5t62 31.5l7 -4l-7 -45q-65 -37 -139 -37q-91 0 -143.5 61.5t-52.5 168.5q0 72 24 126t69 83t104 29q75 0 116.5 -44.5zM356 300q0 58 -29 90.5t-82 32.5
q-57 0 -95 -38.5t-49 -105.5l253 4zM334 683l21 -27l-1 -7q-48 -41 -158 -131l-7 1l-17 24q77 63 156 141z" />
    <glyph glyph-name="ecircumflex" unicode="&#xea;" horiz-adv-x="454" 
d="M362.5 417.5q41.5 -44.5 41.5 -124.5q0 -20 -3 -41l-8 -9l-296 -2v-15q0 -89 40.5 -139t113.5 -50q36 0 71 11.5t62 31.5l7 -4l-7 -45q-65 -37 -139 -37q-91 0 -143.5 61.5t-52.5 168.5q0 72 24 126t69 83t104 29q75 0 116.5 -44.5zM356 300q0 58 -29 90.5t-82 32.5
q-57 0 -95 -38.5t-49 -105.5l253 4zM112 544q51 54 112 130h21q64 -80 112 -130l-16 -23h-7q-56 58 -100 110q-50 -60 -99 -110h-7z" />
    <glyph glyph-name="edieresis" unicode="&#xeb;" horiz-adv-x="454" 
d="M362.5 417.5q41.5 -44.5 41.5 -124.5q0 -20 -3 -41l-8 -9l-296 -2v-15q0 -89 40.5 -139t113.5 -50q36 0 71 11.5t62 31.5l7 -4l-7 -45q-65 -37 -139 -37q-91 0 -143.5 61.5t-52.5 168.5q0 72 24 126t69 83t104 29q75 0 116.5 -44.5zM356 300q0 58 -29 90.5t-82 32.5
q-57 0 -95 -38.5t-49 -105.5l253 4zM183.5 625.5q8.5 -8.5 8.5 -23.5t-8.5 -24.5t-23.5 -9.5t-23.5 9t-8.5 24t8.5 24t24.5 9q14 0 22.5 -8.5zM333.5 625.5q8.5 -8.5 8.5 -23.5t-9 -24.5t-24 -9.5t-23.5 9t-8.5 24t9 24t24 9t23.5 -8.5z" />
    <glyph glyph-name="igrave" unicode="&#xec;" horiz-adv-x="233" 
d="M92 195l-1 256l50 6l-1 -259l1 -198h-51zM208 543l-17 -24l-7 -1q-88 70 -158 131l-2 7l21 27l7 1q71 -71 156 -141z" />
    <glyph glyph-name="iacute" unicode="&#xed;" horiz-adv-x="233" 
d="M92 195l-1 256l50 6l-1 -259l1 -198h-51zM216 683l21 -27l-1 -7q-48 -41 -158 -131l-7 1l-17 24q77 63 156 141z" />
    <glyph glyph-name="icircumflex" unicode="&#xee;" horiz-adv-x="233" 
d="M92 195l-1 256l50 6l-1 -259l1 -198h-51zM-6 544q51 54 112 130h21q64 -80 112 -130l-16 -23h-7q-56 58 -100 110q-50 -60 -99 -110h-7z" />
    <glyph glyph-name="eth" unicode="&#xf0;" horiz-adv-x="489" 
d="M400 433q37 -88 37 -189q0 -118 -50.5 -184t-143.5 -66q-90 0 -142 61t-52 169q0 109 53 171.5t147 62.5q57 0 104 -26q-37 80 -102 137l-125 -59l-6 3l-11 28l112 53q-66 48 -143 79v7l28 24h5q87 -36 153 -90l119 56l6 -3l12 -28l-108 -51q70 -67 107 -155zM354 85
q37 54 37 157q0 69 -16 126q-52 52 -124 52q-74 0 -115 -51.5t-41 -144.5q0 -92 40 -142.5t110 -50.5q72 0 109 54z" />
    <glyph glyph-name="ntilde" unicode="&#xf1;" horiz-adv-x="509" 
d="M379 315q1 48 -23.5 74.5t-69.5 26.5q-36 0 -74 -21.5t-73 -61.5l-1 -135l3 -198h-52l3 195l-2 256l49 6v-73h5q34 33 70.5 53t70.5 24q69 0 106 -35.5t36 -100.5l-1 -128l2 -197h-52zM417 632v-6l-57 -59l-8 -3q-21 2 -80 20q-64 18 -76 18q-6 0 -14.5 -6.5t-17.5 -16.5
l-22 -21h-6l-17 18v6l57 59l8 2q23 -2 84 -20q57 -17 71 -17q7 0 15 6t21 19l19 19h5z" />
    <glyph glyph-name="ograve" unicode="&#xf2;" horiz-adv-x="489" 
d="M388.5 401.5q50.5 -60.5 50.5 -168.5q0 -113 -53 -176t-147 -63q-90 0 -140 60.5t-50 167.5q0 113 52.5 176.5t146.5 63.5q90 0 140.5 -60.5zM137 373q-39 -50 -39 -141q0 -96 37.5 -147.5t105.5 -51.5q71 0 110 49.5t39 140.5q0 96 -38 148t-106 52q-70 0 -109 -50z
M336 543l-17 -24l-7 -1q-88 70 -158 131l-2 7l21 27l7 1q71 -71 156 -141z" />
    <glyph glyph-name="oacute" unicode="&#xf3;" horiz-adv-x="489" 
d="M388.5 401.5q50.5 -60.5 50.5 -168.5q0 -113 -53 -176t-147 -63q-90 0 -140 60.5t-50 167.5q0 113 52.5 176.5t146.5 63.5q90 0 140.5 -60.5zM137 373q-39 -50 -39 -141q0 -96 37.5 -147.5t105.5 -51.5q71 0 110 49.5t39 140.5q0 96 -38 148t-106 52q-70 0 -109 -50z
M344 683l21 -27l-1 -7q-48 -41 -158 -131l-7 1l-17 24q77 63 156 141z" />
    <glyph glyph-name="ocircumflex" unicode="&#xf4;" horiz-adv-x="489" 
d="M388.5 401.5q50.5 -60.5 50.5 -168.5q0 -113 -53 -176t-147 -63q-90 0 -140 60.5t-50 167.5q0 113 52.5 176.5t146.5 63.5q90 0 140.5 -60.5zM137 373q-39 -50 -39 -141q0 -96 37.5 -147.5t105.5 -51.5q71 0 110 49.5t39 140.5q0 96 -38 148t-106 52q-70 0 -109 -50z
M122 544q51 54 112 130h21q64 -80 112 -130l-16 -23h-7q-56 58 -100 110q-50 -60 -99 -110h-7z" />
    <glyph glyph-name="otilde" unicode="&#xf5;" horiz-adv-x="489" 
d="M388.5 401.5q50.5 -60.5 50.5 -168.5q0 -113 -53 -176t-147 -63q-90 0 -140 60.5t-50 167.5q0 113 52.5 176.5t146.5 63.5q90 0 140.5 -60.5zM137 373q-39 -50 -39 -141q0 -96 37.5 -147.5t105.5 -51.5q71 0 110 49.5t39 140.5q0 96 -38 148t-106 52q-70 0 -109 -50z
M393 632v-6l-57 -59l-8 -3q-21 2 -80 20q-64 18 -76 18q-6 0 -14.5 -6.5t-17.5 -16.5l-22 -21h-6l-17 18v6l57 59l8 2q23 -2 84 -20q57 -17 71 -17q7 0 15 6t21 19l19 19h5z" />
    <glyph glyph-name="divide" unicode="&#xf7;" horiz-adv-x="480" 
d="M458 282l-3 -34h-403l-4 4l3 35h402zM285.056 115.216q8.22949 -8.71289 8.22949 -23.2354q0 -15.4902 -8.71387 -24.6875q-8.71289 -9.19727 -24.2031 -9.19727t-23.7197 8.22949q-8.22949 8.22852 -8.22949 23.7188t8.71387 24.6875q8.71289 9.19727 24.2031 9.19727
t23.7197 -8.71289zM285.056 471.216q8.22949 -8.71289 8.22949 -23.2354q0 -15.4902 -8.71387 -24.6875q-8.71289 -9.19727 -24.2031 -9.19727t-23.7197 8.22949q-8.22949 8.22852 -8.22949 23.7188t8.71387 24.6875q8.71289 9.19727 24.2031 9.19727t23.7197 -8.71289z" />
    <glyph glyph-name="oslash" unicode="&#xf8;" horiz-adv-x="489" 
d="M418.5 350.5q20.5 -49.5 20.5 -117.5q0 -113 -53 -176t-147 -63q-43 0 -77 14l-57 -120l-31 12l-3 6l57 121q-38 28 -58.5 77.5t-20.5 117.5q0 113 52.5 176.5t146.5 63.5q45 0 79 -15l45 94l29 -11l4 -7l-45 -95q38 -28 58.5 -77.5zM148 69l161 340q-28 14 -63 14
q-70 0 -109 -50t-39 -141q0 -111 50 -163zM351 82.5q39 49.5 39 140.5q0 110 -50 162l-160 -339q29 -13 61 -13q71 0 110 49.5z" />
    <glyph glyph-name="ugrave" unicode="&#xf9;" horiz-adv-x="507" 
d="M483 45l-6 -33q-24 -14 -51 -16q-29 2 -45 20t-20 55h-4q-68 -68 -140 -76q-66 0 -101 35t-35 101l1 109l-2 211l52 6l-3 -316q0 -48 22.5 -74.5t65.5 -26.5q72 0 142 75v336l49 6l-2 -368q0 -26 7.5 -37.5t24.5 -11.5q18 0 38 10zM346 543l-17 -24l-7 -1
q-88 70 -158 131l-2 7l21 27l7 1q71 -71 156 -141z" />
    <glyph glyph-name="uacute" unicode="&#xfa;" horiz-adv-x="507" 
d="M483 45l-6 -33q-24 -14 -51 -16q-29 2 -45 20t-20 55h-4q-68 -68 -140 -76q-66 0 -101 35t-35 101l1 109l-2 211l52 6l-3 -316q0 -48 22.5 -74.5t65.5 -26.5q72 0 142 75v336l49 6l-2 -368q0 -26 7.5 -37.5t24.5 -11.5q18 0 38 10zM354 683l21 -27l-1 -7
q-48 -41 -158 -131l-7 1l-17 24q77 63 156 141z" />
    <glyph glyph-name="ucircumflex" unicode="&#xfb;" horiz-adv-x="507" 
d="M483 45l-6 -33q-24 -14 -51 -16q-29 2 -45 20t-20 55h-4q-68 -68 -140 -76q-66 0 -101 35t-35 101l1 109l-2 211l52 6l-3 -316q0 -48 22.5 -74.5t65.5 -26.5q72 0 142 75v336l49 6l-2 -368q0 -26 7.5 -37.5t24.5 -11.5q18 0 38 10zM132 544q51 54 112 130h21
q64 -80 112 -130l-16 -23h-7q-56 58 -100 110q-50 -60 -99 -110h-7z" />
    <glyph glyph-name="udieresis" unicode="&#xfc;" horiz-adv-x="507" 
d="M483 45l-6 -33q-24 -14 -51 -16q-29 2 -45 20t-20 55h-4q-68 -68 -140 -76q-66 0 -101 35t-35 101l1 109l-2 211l52 6l-3 -316q0 -48 22.5 -74.5t65.5 -26.5q72 0 142 75v336l49 6l-2 -368q0 -26 7.5 -37.5t24.5 -11.5q18 0 38 10zM203.5 625.5q8.5 -8.5 8.5 -23.5
t-8.5 -24.5t-23.5 -9.5t-23.5 9t-8.5 24t8.5 24t24.5 9q14 0 22.5 -8.5zM353.5 625.5q8.5 -8.5 8.5 -23.5t-9 -24.5t-24 -9.5t-23.5 9t-8.5 24t9 24t24 9t23.5 -8.5z" />
    <glyph glyph-name="thorn" unicode="&#xfe;" horiz-adv-x="508" 
d="M413 402q45 -58 45 -162q0 -117 -57 -182t-159 -65q-50 0 -99 17l2 -195h-51l3 380l-3 502l51 5l-2 -312h5q32 31 65 48t72 22q83 0 128 -58zM366 84.5q43 51.5 43 148.5q0 87 -33.5 135t-94.5 48q-74 0 -138 -77l-1 -141l1 -137q55 -28 103 -28q77 0 120 51.5z" />
    <glyph glyph-name="ydieresis" unicode="&#xff;" horiz-adv-x="417" 
d="M78 405l124 -342h6l129 339l15 53h49l-170 -446q-26 -68 -53.5 -106t-66 -58.5t-101.5 -34.5h-6q-14 13 -21 30l1 8q55 10 89 26t59 45t49 81l-167 453l49 5zM160.5 625.5q8.5 -8.5 8.5 -23.5t-8.5 -24.5t-23.5 -9.5t-23.5 9t-8.5 24t8.5 24t24.5 9q14 0 22.5 -8.5z
M310.5 625.5q8.5 -8.5 8.5 -23.5t-9 -24.5t-24 -9.5t-23.5 9t-8.5 24t9 24t24 9t23.5 -8.5z" />
    <glyph glyph-name="Amacron" unicode="&#x100;" horiz-adv-x="567" 
d="M542 0h-54l-14 54l-48 138l-152 2l-137 -2l-52 -136l-15 -56h-54l244 639h59zM410 238l-119 341h-6l-130 -341l125 -1zM430 801l-3 -33h-285l-4 5l2 32h286z" />
    <glyph glyph-name="amacron" unicode="&#x101;" horiz-adv-x="453" 
d="M319 431q34 -31 34 -86q0 -21 -2 -55.5t-3 -73.5q-6 -114 -6 -129q0 -26 7.5 -36.5t25.5 -10.5t38 10l7 -5l-6 -33q-24 -15 -51 -16q-60 2 -63 75h-5q-57 -65 -118 -77q-60 0 -94 31.5t-34 87.5q0 81 88 101l166 39l2 81q0 43 -23 65.5t-65 22.5q-64 0 -140 -65l-6 3
l-8 37q82 65 161 65q61 0 95 -31zM147 179q-51 -12 -51 -60q0 -38 21 -59.5t58 -21.5q30 0 61.5 21t61.5 60l4 97zM363 617l-3 -33h-285l-4 5l2 32h286z" />
    <glyph glyph-name="Abreve" unicode="&#x102;" horiz-adv-x="567" 
d="M542 0h-54l-14 54l-48 138l-152 2l-137 -2l-52 -136l-15 -56h-54l244 639h59zM410 238l-119 341h-6l-130 -341l125 -1zM398 809q-13 -40 -43 -61t-72 -21q-43 0 -72 21t-41 61l17 20h9q9 -30 31.5 -46.5t55.5 -16.5t56 16.5t33 46.5h9z" />
    <glyph glyph-name="abreve" unicode="&#x103;" horiz-adv-x="453" 
d="M319 431q34 -31 34 -86q0 -21 -2 -55.5t-3 -73.5q-6 -114 -6 -129q0 -26 7.5 -36.5t25.5 -10.5t38 10l7 -5l-6 -33q-24 -15 -51 -16q-60 2 -63 75h-5q-57 -65 -118 -77q-60 0 -94 31.5t-34 87.5q0 81 88 101l166 39l2 81q0 43 -23 65.5t-65 22.5q-64 0 -140 -65l-6 3
l-8 37q82 65 161 65q61 0 95 -31zM147 179q-51 -12 -51 -60q0 -38 21 -59.5t58 -21.5q30 0 61.5 21t61.5 60l4 97zM332 635q-23 -111 -116 -111t-113 111l17 21h9q16 -92 88 -92t88 92h9z" />
    <glyph glyph-name="Aogonek" unicode="&#x104;" horiz-adv-x="567" 
d="M542 0h-54l-14 54l-48 138l-152 2l-137 -2l-52 -136l-15 -56h-54l244 639h59zM410 238l-119 341h-6l-130 -341l125 -1zM474 -95q-15 -24 -15 -38q0 -25 25 -25q28 0 50 39h3l16 -26q-29 -48 -76 -48q-26 0 -41 14t-15 38q0 23 17 50t68 91h36q-53 -71 -68 -95z" />
    <glyph glyph-name="aogonek" unicode="&#x105;" horiz-adv-x="453" 
d="M319 431q34 -31 34 -86q0 -21 -2 -55.5t-3 -73.5q-6 -114 -6 -129q0 -26 7.5 -36.5t25.5 -10.5t38 10l7 -5l-6 -33q-24 -15 -51 -16q-60 2 -63 75h-5q-57 -65 -118 -77q-60 0 -94 31.5t-34 87.5q0 81 88 101l166 39l2 81q0 43 -23 65.5t-65 22.5q-64 0 -140 -65l-6 3
l-8 37q82 65 161 65q61 0 95 -31zM147 179q-51 -12 -51 -60q0 -38 21 -59.5t58 -21.5q30 0 61.5 21t61.5 60l4 97zM292 -192.5q-20 17.5 -20 48.5q0 20 8 37.5t29 43.5t67 75h38q-37 -44 -62 -74.5t-32.5 -45t-7.5 -28.5q0 -36 39 -36q37 0 76 45h3l13 -30q-45 -53 -97 -53
q-34 0 -54 17.5z" />
    <glyph glyph-name="Cacute" unicode="&#x106;" horiz-adv-x="522" 
d="M412 630.5q45 -13.5 81 -39.5l-11 -47l-8 -1q-70 56 -158 56q-107 0 -163.5 -72t-56.5 -208t55 -207.5t158 -71.5q46 0 91 16.5t84 46.5l8 -3l-4 -49q-86 -57 -182 -57q-126 0 -194.5 83.5t-68.5 238.5q0 157 71.5 242.5t203.5 85.5q49 0 94 -13.5zM423 849l14 -30l-2 -7
q-89 -46 -186 -89l-7 3l-11 26q109 53 185 99z" />
    <glyph glyph-name="cacute" unicode="&#x107;" horiz-adv-x="386" 
d="M305.5 452.5q34.5 -9.5 59.5 -24.5l-10 -45l-8 -1q-23 16 -52 26t-57 10q-65 0 -102.5 -51.5t-37.5 -140.5q0 -87 38 -138t104 -51q30 0 62 10.5t58 27.5l7 -4l-5 -44q-27 -15 -60.5 -24t-66.5 -9q-86 0 -136 62t-50 168q0 109 51 173.5t139 64.5q32 0 66.5 -9.5z
M335 683l21 -27l-1 -7q-48 -41 -158 -131l-7 1l-17 24q77 63 156 141z" />
    <glyph glyph-name="Ccircumflex" unicode="&#x108;" horiz-adv-x="522" 
d="M412 630.5q45 -13.5 81 -39.5l-11 -47l-8 -1q-70 56 -158 56q-107 0 -163.5 -72t-56.5 -208t55 -207.5t158 -71.5q46 0 91 16.5t84 46.5l8 -3l-4 -49q-86 -57 -182 -57q-126 0 -194.5 83.5t-68.5 238.5q0 157 71.5 242.5t203.5 85.5q49 0 94 -13.5zM195 761q53 36 108 83
h19q73 -58 109 -83l-11 -25h-8l-99 68q-48 -34 -99 -68h-7z" />
    <glyph glyph-name="ccircumflex" unicode="&#x109;" horiz-adv-x="386" 
d="M305.5 452.5q34.5 -9.5 59.5 -24.5l-10 -45l-8 -1q-23 16 -52 26t-57 10q-65 0 -102.5 -51.5t-37.5 -140.5q0 -87 38 -138t104 -51q30 0 62 10.5t58 27.5l7 -4l-5 -44q-27 -15 -60.5 -24t-66.5 -9q-86 0 -136 62t-50 168q0 109 51 173.5t139 64.5q32 0 66.5 -9.5z
M113 544q51 54 112 130h21q64 -80 112 -130l-16 -23h-7q-56 58 -100 110q-50 -60 -99 -110h-7z" />
    <glyph glyph-name="Cdotaccent" unicode="&#x10a;" horiz-adv-x="522" 
d="M412 630.5q45 -13.5 81 -39.5l-11 -47l-8 -1q-70 56 -158 56q-107 0 -163.5 -72t-56.5 -208t55 -207.5t158 -71.5q46 0 91 16.5t84 46.5l8 -3l-4 -49q-86 -57 -182 -57q-126 0 -194.5 83.5t-68.5 238.5q0 157 71.5 242.5t203.5 85.5q49 0 94 -13.5zM338.5 823
q8.5 -9 8.5 -24q0 -16 -9 -25.5t-25 -9.5t-24.5 8.5t-8.5 24.5t9 25.5t25 9.5t24.5 -9z" />
    <glyph glyph-name="cdotaccent" unicode="&#x10b;" horiz-adv-x="386" 
d="M305.5 452.5q34.5 -9.5 59.5 -24.5l-10 -45l-8 -1q-23 16 -52 26t-57 10q-65 0 -102.5 -51.5t-37.5 -140.5q0 -87 38 -138t104 -51q30 0 62 10.5t58 27.5l7 -4l-5 -44q-27 -15 -60.5 -24t-66.5 -9q-86 0 -136 62t-50 168q0 109 51 173.5t139 64.5q32 0 66.5 -9.5z
M260.5 639q8.5 -9 8.5 -24q0 -16 -9 -25.5t-25 -9.5t-24.5 8.5t-8.5 24.5t9 25.5t25 9.5t24.5 -9z" />
    <glyph glyph-name="Ccaron" unicode="&#x10c;" horiz-adv-x="522" 
d="M412 630.5q45 -13.5 81 -39.5l-11 -47l-8 -1q-70 56 -158 56q-107 0 -163.5 -72t-56.5 -208t55 -207.5t158 -71.5q46 0 91 16.5t84 46.5l8 -3l-4 -49q-86 -57 -182 -57q-126 0 -194.5 83.5t-68.5 238.5q0 157 71.5 242.5t203.5 85.5q49 0 94 -13.5zM431 810
q-53 -36 -108 -83h-19q-73 58 -109 83l11 25h8l99 -68q48 34 99 68h7z" />
    <glyph glyph-name="ccaron" unicode="&#x10d;" horiz-adv-x="386" 
d="M305.5 452.5q34.5 -9.5 59.5 -24.5l-10 -45l-8 -1q-23 16 -52 26t-57 10q-65 0 -102.5 -51.5t-37.5 -140.5q0 -87 38 -138t104 -51q30 0 62 10.5t58 27.5l7 -4l-5 -44q-27 -15 -60.5 -24t-66.5 -9q-86 0 -136 62t-50 168q0 109 51 173.5t139 64.5q32 0 66.5 -9.5z
M357 651q-51 -54 -112 -130h-21q-64 80 -112 130l16 23h7q56 -58 100 -110q50 60 99 110h7z" />
    <glyph glyph-name="Dcaron" unicode="&#x10e;" horiz-adv-x="642" 
d="M526.5 565q72.5 -78 72.5 -224q0 -167 -77 -256.5t-221 -89.5q-37 0 -94.5 1.5t-105.5 3.5l3 194l-3 445l217 4q136 0 208.5 -78zM484.5 114q61.5 75 61.5 218q0 132 -59 199.5t-172 67.5q-28 0 -75 -1.5t-86 -3.5l-3 -397l2 -152q41 -2 84.5 -4t70.5 -2q115 0 176.5 75z
M439 810q-53 -36 -108 -83h-19q-73 58 -109 83l11 25h8l99 -68q48 34 99 68h7z" />
    <glyph glyph-name="dcaron" unicode="&#x10f;" horiz-adv-x="550" 
d="M410 198l2 -111q0 -26 7 -36.5t25 -10.5q17 0 37 10l7 -5l-6 -33q-24 -15 -51 -16q-57 2 -62 71h-5q-31 -31 -60 -48t-65 -24q-90 0 -140 60t-50 168q0 114 57 176.5t160 62.5q43 0 97 -13v248l51 5zM538 647l-18 -159l-28 -4l-5 5l8 160l38 3zM141 373q-43 -50 -43 -143
q0 -90 37 -140t102 -50q35 0 66 17.5t61 55.5l1 81l-2 207q-53 22 -102 22q-77 0 -120 -50z" />
    <glyph glyph-name="Dcroat" unicode="&#x110;" horiz-adv-x="661" 
d="M545.5 565q72.5 -78 72.5 -224q0 -167 -77 -256.5t-221 -89.5q-37 0 -94.5 1.5t-105.5 3.5l3 194l-3 445l217 4q136 0 208.5 -78zM503.5 114q61.5 75 61.5 218q0 132 -59 199.5t-172 67.5q-28 0 -75 -1.5t-86 -3.5l-3 -397l2 -152q41 -2 84.5 -4t70.5 -2q115 0 176.5 75z
M331.393 342l-1.87793 -35h-317.401l-2.50391 5l1.87793 35h317.401z" />
    <glyph glyph-name="dcroat" unicode="&#x111;" horiz-adv-x="514" 
d="M413 559l-3 -361l2 -111q0 -26 7 -36.5t25 -10.5q17 0 37 10l7 -5l-6 -33q-24 -15 -51 -16q-57 2 -62 71h-5q-31 -31 -60 -48t-65 -24q-90 0 -140 60t-50 168q0 114 57 176.5t160 62.5q43 0 97 -13v110h-130l-4 4l3 31h131v103l51 5l-1 -108h76l5 -5l-4 -30h-77zM365 194
l-2 207q-53 22 -102 22q-77 0 -120 -50t-43 -143q0 -90 37 -140t102 -50q35 0 66 17.5t61 55.5z" />
    <glyph glyph-name="Emacron" unicode="&#x112;" horiz-adv-x="469" 
d="M443 41l-5 -41h-337l3 194l-3 445h336l4 -6l-6 -41l-149 2l-132 -1l-2 -241l125 -1l107 1l4 -5l-5 -41l-231 1l-1 -110l2 -152l129 -1l157 3zM416 801l-3 -33h-285l-4 5l2 32h286z" />
    <glyph glyph-name="emacron" unicode="&#x113;" horiz-adv-x="454" 
d="M362.5 417.5q41.5 -44.5 41.5 -124.5q0 -20 -3 -41l-8 -9l-296 -2v-15q0 -89 40.5 -139t113.5 -50q36 0 71 11.5t62 31.5l7 -4l-7 -45q-65 -37 -139 -37q-91 0 -143.5 61.5t-52.5 168.5q0 72 24 126t69 83t104 29q75 0 116.5 -44.5zM356 300q0 58 -29 90.5t-82 32.5
q-57 0 -95 -38.5t-49 -105.5l253 4zM380 617l-3 -33h-285l-4 5l2 32h286z" />
    <glyph glyph-name="Ebreve" unicode="&#x114;" horiz-adv-x="469" 
d="M443 41l-5 -41h-337l3 194l-3 445h336l4 -6l-6 -41l-149 2l-132 -1l-2 -241l125 -1l107 1l4 -5l-5 -41l-231 1l-1 -110l2 -152l129 -1l157 3zM384 809q-13 -40 -43 -61t-72 -21q-43 0 -72 21t-41 61l17 20h9q9 -30 31.5 -46.5t55.5 -16.5t56 16.5t33 46.5h9z" />
    <glyph glyph-name="ebreve" unicode="&#x115;" horiz-adv-x="454" 
d="M362.5 417.5q41.5 -44.5 41.5 -124.5q0 -20 -3 -41l-8 -9l-296 -2v-15q0 -89 40.5 -139t113.5 -50q36 0 71 11.5t62 31.5l7 -4l-7 -45q-65 -37 -139 -37q-91 0 -143.5 61.5t-52.5 168.5q0 72 24 126t69 83t104 29q75 0 116.5 -44.5zM356 300q0 58 -29 90.5t-82 32.5
q-57 0 -95 -38.5t-49 -105.5l253 4zM349 635q-23 -111 -116 -111t-113 111l17 21h9q16 -92 88 -92t88 92h9z" />
    <glyph glyph-name="Edotaccent" unicode="&#x116;" horiz-adv-x="469" 
d="M443 41l-5 -41h-337l3 194l-3 445h336l4 -6l-6 -41l-149 2l-132 -1l-2 -241l125 -1l107 1l4 -5l-5 -41l-231 1l-1 -110l2 -152l129 -1l157 3zM295.5 823q8.5 -9 8.5 -24q0 -16 -9 -25.5t-25 -9.5t-24.5 8.5t-8.5 24.5t9 25.5t25 9.5t24.5 -9z" />
    <glyph glyph-name="edotaccent" unicode="&#x117;" horiz-adv-x="454" 
d="M362.5 417.5q41.5 -44.5 41.5 -124.5q0 -20 -3 -41l-8 -9l-296 -2v-15q0 -89 40.5 -139t113.5 -50q36 0 71 11.5t62 31.5l7 -4l-7 -45q-65 -37 -139 -37q-91 0 -143.5 61.5t-52.5 168.5q0 72 24 126t69 83t104 29q75 0 116.5 -44.5zM356 300q0 58 -29 90.5t-82 32.5
q-57 0 -95 -38.5t-49 -105.5l253 4zM259.5 639q8.5 -9 8.5 -24q0 -16 -9 -25.5t-25 -9.5t-24.5 8.5t-8.5 24.5t9 25.5t25 9.5t24.5 -9z" />
    <glyph glyph-name="Eogonek" unicode="&#x118;" horiz-adv-x="469" 
d="M443 41l-5 -41h-337l3 194l-3 445h336l4 -6l-6 -41l-149 2l-132 -1l-2 -241l125 -1l107 1l4 -5l-5 -41l-231 1l-1 -110l2 -152l129 -1l157 3zM280 -186.5q-20 17.5 -20 48.5q0 20 8 37.5t29 43.5t67 75h38q-37 -44 -62 -74.5t-32.5 -45t-7.5 -28.5q0 -36 39 -36
q37 0 76 45h3l13 -30q-45 -53 -97 -53q-34 0 -54 17.5z" />
    <glyph glyph-name="eogonek" unicode="&#x119;" horiz-adv-x="454" 
d="M362.5 417.5q41.5 -44.5 41.5 -124.5q0 -20 -3 -41l-8 -9l-296 -2v-15q0 -89 40.5 -139t113.5 -50q36 0 71 11.5t62 31.5l7 -4l-7 -45q-65 -37 -139 -37q-91 0 -143.5 61.5t-52.5 168.5q0 72 24 126t69 83t104 29q75 0 116.5 -44.5zM356 300q0 58 -29 90.5t-82 32.5
q-57 0 -95 -38.5t-49 -105.5l253 4zM262 -173.5q-20 17.5 -20 48.5q0 20 8 37.5t29 43.5t67 75h38q-37 -44 -62 -74.5t-32.5 -45t-7.5 -28.5q0 -36 39 -36q37 0 76 45h3l13 -30q-45 -53 -97 -53q-34 0 -54 17.5z" />
    <glyph glyph-name="Ecaron" unicode="&#x11a;" horiz-adv-x="469" 
d="M443 41l-5 -41h-337l3 194l-3 445h336l4 -6l-6 -41l-149 2l-132 -1l-2 -241l125 -1l107 1l4 -5l-5 -41l-231 1l-1 -110l2 -152l129 -1l157 3zM388 810q-53 -36 -108 -83h-19q-73 58 -109 83l11 25h8l99 -68q48 34 99 68h7z" />
    <glyph glyph-name="ecaron" unicode="&#x11b;" horiz-adv-x="454" 
d="M362.5 417.5q41.5 -44.5 41.5 -124.5q0 -20 -3 -41l-8 -9l-296 -2v-15q0 -89 40.5 -139t113.5 -50q36 0 71 11.5t62 31.5l7 -4l-7 -45q-65 -37 -139 -37q-91 0 -143.5 61.5t-52.5 168.5q0 72 24 126t69 83t104 29q75 0 116.5 -44.5zM356 300q0 58 -29 90.5t-82 32.5
q-57 0 -95 -38.5t-49 -105.5l253 4zM356 651q-51 -54 -112 -130h-21q-64 80 -112 130l16 23h7q56 -58 100 -110q50 60 99 110h7z" />
    <glyph glyph-name="Gcircumflex" unicode="&#x11c;" horiz-adv-x="602" 
d="M531 594l-12 -48l-8 -1q-90 54 -170 54q-120 0 -182.5 -72.5t-62.5 -214.5q0 -136 56 -204t166 -68q38 0 71.5 5.5t86.5 20.5l1 93l-1 92l50 4l-1 -90l2 -135q-67 -19 -113.5 -27t-96.5 -9q-135 0 -204.5 82t-69.5 234q0 161 79 247.5t225 86.5q94 0 184 -50zM207 761
q53 36 108 83h19q73 -58 109 -83l-11 -25h-8l-99 68q-48 -34 -99 -68h-7z" />
    <glyph glyph-name="gcircumflex" unicode="&#x11d;" horiz-adv-x="480" 
d="M371 406l-1 -3q29 -38 29 -96q0 -72 -45.5 -114.5t-123.5 -42.5q-37 0 -70 11q-23 -17 -31 -27.5t-8 -20.5q0 -22 28.5 -31.5t89.5 -18.5q59 -9 97 -19t65 -32t27 -60q0 -39 -28 -72t-76 -52.5t-104 -19.5q-76 0 -119.5 34.5t-43.5 88.5q10 30 33 53.5t62 46.5v5
q-38 10 -59.5 27.5t-21.5 47.5q13 29 60 60v3q-64 40 -64 128q0 74 45.5 116t123.5 42q55 0 92 -21q84 16 137 31l6 -4v-38q-46 -12 -100 -22zM320 219.5q32 31.5 32 87.5q0 55 -30.5 85t-86.5 30q-57 0 -89 -31t-32 -87q0 -54 31 -85t87 -31t88 31.5zM361 -14
q-20 15 -49.5 22t-79.5 14l-33 5q-46 -25 -70.5 -50t-24.5 -53q0 -33 32 -55.5t89 -22.5q43 0 78.5 13.5t56.5 36.5t21 49t-20 41zM119 534q51 54 112 130h21q64 -80 112 -130l-16 -23h-7q-56 58 -100 110q-50 -60 -99 -110h-7z" />
    <glyph glyph-name="Gbreve" unicode="&#x11e;" horiz-adv-x="602" 
d="M531 594l-12 -48l-8 -1q-90 54 -170 54q-120 0 -182.5 -72.5t-62.5 -214.5q0 -136 56 -204t166 -68q38 0 71.5 5.5t86.5 20.5l1 93l-1 92l50 4l-1 -90l2 -135q-67 -19 -113.5 -27t-96.5 -9q-135 0 -204.5 82t-69.5 234q0 161 79 247.5t225 86.5q94 0 184 -50zM439 809
q-13 -40 -43 -61t-72 -21q-43 0 -72 21t-41 61l17 20h9q9 -30 31.5 -46.5t55.5 -16.5t56 16.5t33 46.5h9z" />
    <glyph glyph-name="gbreve" unicode="&#x11f;" horiz-adv-x="480" 
d="M371 406l-1 -3q29 -38 29 -96q0 -72 -45.5 -114.5t-123.5 -42.5q-37 0 -70 11q-23 -17 -31 -27.5t-8 -20.5q0 -22 28.5 -31.5t89.5 -18.5q59 -9 97 -19t65 -32t27 -60q0 -39 -28 -72t-76 -52.5t-104 -19.5q-76 0 -119.5 34.5t-43.5 88.5q10 30 33 53.5t62 46.5v5
q-38 10 -59.5 27.5t-21.5 47.5q13 29 60 60v3q-64 40 -64 128q0 74 45.5 116t123.5 42q55 0 92 -21q84 16 137 31l6 -4v-38q-46 -12 -100 -22zM320 219.5q32 31.5 32 87.5q0 55 -30.5 85t-86.5 30q-57 0 -89 -31t-32 -87q0 -54 31 -85t87 -31t88 31.5zM361 -14
q-20 15 -49.5 22t-79.5 14l-33 5q-46 -25 -70.5 -50t-24.5 -53q0 -33 32 -55.5t89 -22.5q43 0 78.5 13.5t56.5 36.5t21 49t-20 41zM356 625q-23 -111 -116 -111t-113 111l17 21h9q16 -92 88 -92t88 92h9z" />
    <glyph glyph-name="Gdotaccent" unicode="&#x120;" horiz-adv-x="602" 
d="M531 594l-12 -48l-8 -1q-90 54 -170 54q-120 0 -182.5 -72.5t-62.5 -214.5q0 -136 56 -204t166 -68q38 0 71.5 5.5t86.5 20.5l1 93l-1 92l50 4l-1 -90l2 -135q-67 -19 -113.5 -27t-96.5 -9q-135 0 -204.5 82t-69.5 234q0 161 79 247.5t225 86.5q94 0 184 -50zM350.5 823
q8.5 -9 8.5 -24q0 -16 -9 -25.5t-25 -9.5t-24.5 8.5t-8.5 24.5t9 25.5t25 9.5t24.5 -9z" />
    <glyph glyph-name="gdotaccent" unicode="&#x121;" horiz-adv-x="480" 
d="M371 406l-1 -3q29 -38 29 -96q0 -72 -45.5 -114.5t-123.5 -42.5q-37 0 -70 11q-23 -17 -31 -27.5t-8 -20.5q0 -22 28.5 -31.5t89.5 -18.5q59 -9 97 -19t65 -32t27 -60q0 -39 -28 -72t-76 -52.5t-104 -19.5q-76 0 -119.5 34.5t-43.5 88.5q10 30 33 53.5t62 46.5v5
q-38 10 -59.5 27.5t-21.5 47.5q13 29 60 60v3q-64 40 -64 128q0 74 45.5 116t123.5 42q55 0 92 -21q84 16 137 31l6 -4v-38q-46 -12 -100 -22zM320 219.5q32 31.5 32 87.5q0 55 -30.5 85t-86.5 30q-57 0 -89 -31t-32 -87q0 -54 31 -85t87 -31t88 31.5zM361 -14
q-20 15 -49.5 22t-79.5 14l-33 5q-46 -25 -70.5 -50t-24.5 -53q0 -33 32 -55.5t89 -22.5q43 0 78.5 13.5t56.5 36.5t21 49t-20 41zM266.5 629q8.5 -9 8.5 -24q0 -16 -9 -25.5t-25 -9.5t-24.5 8.5t-8.5 24.5t9 25.5t25 9.5t24.5 -9z" />
    <glyph glyph-name="Gcommaaccent" unicode="&#x122;" horiz-adv-x="602" 
d="M531 594l-12 -48l-8 -1q-90 54 -170 54q-120 0 -182.5 -72.5t-62.5 -214.5q0 -136 56 -204t166 -68q38 0 71.5 5.5t86.5 20.5l1 93l-1 92l50 4l-1 -90l2 -135q-67 -19 -113.5 -27t-96.5 -9q-135 0 -204.5 82t-69.5 234q0 161 79 247.5t225 86.5q94 0 184 -50zM358 -117
q0 -52 -78 -110l-18 17v5q53 39 53 80q0 23 -30 40v5q17 14 35 20q38 -24 38 -57z" />
    <glyph glyph-name="gcommaaccent" unicode="&#x123;" horiz-adv-x="480" 
d="M195 581q0 53 62 115l21 -15l1 -6q-42 -43 -42 -80q0 -35 37 -46v-6q-10 -11 -29 -24q-50 15 -50 62zM371 406l-1 -3q29 -38 29 -96q0 -72 -45.5 -114.5t-123.5 -42.5q-37 0 -70 11q-23 -17 -31 -27.5t-8 -20.5q0 -22 28.5 -31.5t89.5 -18.5q59 -9 97 -19t65 -32t27 -60
q0 -39 -28 -72t-76 -52.5t-104 -19.5q-76 0 -119.5 34.5t-43.5 88.5q10 30 33 53.5t62 46.5v5q-38 10 -59.5 27.5t-21.5 47.5q13 29 60 60v3q-64 40 -64 128q0 74 45.5 116t123.5 42q55 0 92 -21q84 16 137 31l6 -4v-38q-46 -12 -100 -22zM320 219.5q32 31.5 32 87.5
q0 55 -30.5 85t-86.5 30q-57 0 -89 -31t-32 -87q0 -54 31 -85t87 -31t88 31.5zM361 -14q-20 15 -49.5 22t-79.5 14l-33 5q-46 -25 -70.5 -50t-24.5 -53q0 -33 32 -55.5t89 -22.5q43 0 78.5 13.5t56.5 36.5t21 49t-20 41z" />
    <glyph glyph-name="Hcircumflex" unicode="&#x124;" horiz-adv-x="677" 
d="M574 197l1 -197h-51l2 194v107h-375v-104l2 -197h-52l2 194l-2 445h52l-1 -293h373l-1 293h52zM221 761q53 36 108 83h19q73 -58 109 -83l-11 -25h-8l-99 68q-48 -34 -99 -68h-7z" />
    <glyph glyph-name="hcircumflex" unicode="&#x125;" horiz-adv-x="513" 
d="M396 425.5q37 -35.5 36 -100.5l-2 -128l2 -197h-52l4 315q0 48 -24.5 74.5t-69.5 26.5q-71 0 -147 -82l-1 -136l3 -198h-51l3 195l-3 502l52 5l-3 -318h6q34 33 70.5 53t69.5 24q70 0 107 -35.5zM1 765q53 36 108 83h19q73 -58 109 -83l-11 -25h-8l-99 68
q-48 -34 -99 -68h-7z" />
    <glyph glyph-name="Hbar" unicode="&#x126;" horiz-adv-x="708" 
d="M658 481h-68l-1 -284v-197h-51l2 194v107h-374v-104l1 -197h-51l2 194l-1 287h-65l-5 4l3 35h67l-1 119h52l-1 -119h372l-1 119h52v-119h66l5 -5zM539 481h-372v-135h372v135z" />
    <glyph glyph-name="hbar" unicode="&#x127;" horiz-adv-x="505" 
d="M388 425.5q37 -35.5 36 -100.5l-1 -128l1 -197h-52l4 315q1 48 -23.5 74.5t-69.5 26.5q-36 0 -73.5 -21.5t-73.5 -60.5l-1 -136l3 -198h-52l3 195l-1 353h-70l-5 5l3 29h71v115l51 5l-1 -120h151l4 -5l-2 -29h-153l-1 -164h5q34 33 70.5 53t70.5 24q69 0 106 -35.5z" />
    <glyph glyph-name="Imacron" unicode="&#x12a;" horiz-adv-x="255" 
d="M151 197l2 -197h-52l3 194l-3 445h53zM237 801l-4 -33h-211l-5 5l3 32h212z" />
    <glyph glyph-name="imacron" unicode="&#x12b;" horiz-adv-x="233" 
d="M92 195l-1 256l50 6l-1 -259l1 -198h-51zM226 617l-4 -33h-211l-5 5l3 32h212z" />
    <glyph glyph-name="Ibreve" unicode="&#x12c;" horiz-adv-x="255" 
d="M151 197l2 -197h-52l3 194l-3 445h53zM241 809q-13 -40 -43 -61t-72 -21q-43 0 -72 21t-41 61l17 20h9q9 -30 31.5 -46.5t55.5 -16.5t56 16.5t33 46.5h9z" />
    <glyph glyph-name="ibreve" unicode="&#x12d;" horiz-adv-x="233" 
d="M92 195l-1 256l50 6l-1 -259l1 -198h-51zM231 635q-23 -111 -116 -111t-113 111l17 21h9q16 -92 88 -92t88 92h9z" />
    <glyph glyph-name="Iogonek" unicode="&#x12e;" horiz-adv-x="255" 
d="M151 197l2 -197h-52l3 194l-3 445h53zM85 -95q-15 -24 -15 -38q0 -25 25 -25q28 0 50 39h3l16 -26q-29 -48 -76 -48q-26 0 -41 14t-15 38q0 23 17 50t68 91h36q-53 -71 -68 -95z" />
    <glyph glyph-name="iogonek" unicode="&#x12f;" horiz-adv-x="233" 
d="M92 195l-1 256l50 6l-1 -259l1 -198h-51zM141.5 639q8.5 -9 8.5 -24q0 -16 -9 -25.5t-25 -9.5t-24.5 8.5t-8.5 24.5t9 25.5t25 9.5t24.5 -9zM73 -95q-15 -24 -15 -38q0 -25 25 -25q28 0 50 39h3l16 -26q-29 -48 -76 -48q-26 0 -41 14t-15 38q0 23 17 50t68 91h36
q-53 -71 -68 -95z" />
    <glyph glyph-name="Idotaccent" unicode="&#x130;" horiz-adv-x="255" 
d="M151 197l2 -197h-52l3 194l-3 445h53zM152.5 823q8.5 -9 8.5 -24q0 -16 -9 -25.5t-25 -9.5t-24.5 8.5t-8.5 24.5t9 25.5t25 9.5t24.5 -9z" />
    <glyph glyph-name="dotlessi" unicode="&#x131;" horiz-adv-x="233" 
d="M92 195l-1 256l50 6l-1 -259l1 -198h-51z" />
    <glyph glyph-name="IJ" unicode="&#x132;" horiz-adv-x="545" 
d="M151 197l2 -197h-52l3 194l-3 445h53zM443 212l1 -96q0 -73 -34 -121.5t-117 -94.5l-21 29v8q67 40 95 79.5t28 98.5v91l-2 389h-125l-6 5l4 39h179z" />
    <glyph glyph-name="ij" unicode="&#x133;" horiz-adv-x="478" 
d="M92 195l-1 256l50 6l-1 -259l1 -198h-51zM140.5 639q8.5 -9 8.5 -24q0 -16 -9 -25.5t-25 -9.5t-24.5 8.5t-8.5 24.5t9 25.5t25 9.5t24.5 -9zM389 455l-3 -257l2 -182q0 -78 -25.5 -123t-91.5 -86l-20 24v7q50 35 69.5 72.5t19.5 101.5l1 183l-2 222h-89l-5 6l4 31h89
l49 3zM373.5 639q8.5 -9 8.5 -24q0 -16 -9 -25.5t-25 -9.5t-24.5 8.5t-8.5 24.5t9 25.5t25 9.5t24.5 -9z" />
    <glyph glyph-name="Jcircumflex" unicode="&#x134;" horiz-adv-x="290" 
d="M188 212l1 -96q0 -73 -34 -121.5t-117 -94.5l-21 29v8q67 40 95 79.5t28 98.5v91l-2 389h-125l-6 5l4 39h179zM3 761q53 36 108 83h19q73 -58 109 -83l-11 -25h-8l-99 68q-48 -34 -99 -68h-7z" />
    <glyph glyph-name="jcircumflex" unicode="&#x135;" horiz-adv-x="245" 
d="M156 455l-3 -257l2 -182q0 -78 -25.5 -123t-91.5 -86l-20 24v7q50 35 69.5 72.5t19.5 101.5l1 183l-2 222h-89l-5 6l4 31h89l49 3zM-7 544q51 54 112 130h21q64 -80 112 -130l-16 -23h-7q-56 58 -100 110q-50 -60 -99 -110h-7z" />
    <glyph glyph-name="Kcommaaccent" unicode="&#x136;" horiz-adv-x="528" 
d="M151 197l2 -197h-52l2 194l-2 445h52zM230 340q137 -172 294 -329v-7q-15 -6 -47 -12l-7 3q-166 174 -297 342v4l230 247l42 51h62zM329 -117q0 -52 -78 -110l-18 17v5q53 39 53 80q0 23 -30 40v5q17 14 35 20q38 -24 38 -57z" />
    <glyph glyph-name="kcommaaccent" unicode="&#x137;" horiz-adv-x="438" 
d="M142 198l3 -198h-51l3 195l-3 502l52 5zM221 245q98 -121 208 -235v-7q-10 -5 -25 -7.5t-20 -3.5l-7 2q-117 127 -210 245v6l159 173l27 37h62zM293 -117q0 -52 -78 -110l-18 17v5q53 39 53 80q0 23 -30 40v5q17 14 35 20q38 -24 38 -57z" />
    <glyph glyph-name="kgreenlandic" unicode="&#x138;" horiz-adv-x="434" 
d="M91 195l-1 256l50 6l-1 -259l1 -198h-51zM215 245q96 -118 210 -235v-7q-11 -5 -25.5 -7.5t-18.5 -3.5l-7 2q-121 131 -212 245v6l161 173l28 37h59z" />
    <glyph glyph-name="Lacute" unicode="&#x139;" horiz-adv-x="408" 
d="M404 39l-6 -39h-299l3 194l-3 445h53l-3 -442l2 -152h248zM237 849l14 -30l-2 -7q-89 -46 -186 -89l-7 3l-11 26q109 53 185 99z" />
    <glyph glyph-name="lacute" unicode="&#x13a;" horiz-adv-x="239" 
d="M142 198l3 -198h-51l3 195l-3 502l52 5zM229 890l14 -30l-2 -7q-89 -46 -186 -89l-7 3l-11 26q109 53 185 99z" />
    <glyph glyph-name="Lcommaaccent" unicode="&#x13b;" horiz-adv-x="408" 
d="M404 39l-6 -39h-299l3 194l-3 445h53l-3 -442l2 -152h248zM284 -117q0 -52 -78 -110l-18 17v5q53 39 53 80q0 23 -30 40v5q17 14 35 20q38 -24 38 -57z" />
    <glyph glyph-name="lcommaaccent" unicode="&#x13c;" horiz-adv-x="239" 
d="M142 198l3 -198h-51l3 195l-3 502l52 5zM167 -117q0 -52 -78 -110l-18 17v5q53 39 53 80q0 23 -30 40v5q17 14 35 20q38 -24 38 -57z" />
    <glyph glyph-name="Lcaron" unicode="&#x13d;" horiz-adv-x="429" 
d="M404 39l-6 -39h-299l3 194l-3 445h53l-3 -442l2 -152h248zM322 413l-5 5l8 160l39 3l4 -6l-18 -158z" />
    <glyph glyph-name="lcaron" unicode="&#x13e;" horiz-adv-x="272" 
d="M142 198l3 -198h-51l3 195l-3 502l52 5zM273 641l-18 -158l-28 -4l-5 5l8 160l38 3z" />
    <glyph glyph-name="Ldot" unicode="&#x13f;" horiz-adv-x="408" 
d="M404 39l-6 -39h-299l3 194l-3 445h53l-3 -442l2 -152h248zM348.5 398q8.5 -9 8.5 -24q0 -16 -9 -25.5t-25 -9.5t-24.5 8.5t-8.5 24.5t9 25.5t25 9.5t24.5 -9z" />
    <glyph glyph-name="ldot" unicode="&#x140;" horiz-adv-x="239" 
d="M142 198l3 -198h-51l3 195l-3 502l52 5zM260.5 299q8.5 -9 8.5 -24q0 -16 -9 -25.5t-25 -9.5q-15 0 -24 9t-9 24q0 16 9.5 25.5t25.5 9.5q15 0 23.5 -9z" />
    <glyph glyph-name="Lslash" unicode="&#x141;" horiz-adv-x="419" 
d="M416 39l-6 -39h-299l3 194l-1 116l-79 -43l-7 4l-11 33l97 51l-2 284h53l-2 -257l144 76l8 -3l10 -32l-162 -87l-1 -139l2 -152h248z" />
    <glyph glyph-name="lslash" unicode="&#x142;" horiz-adv-x="246" 
d="M146 198l3 -198h-52l3 195l-1 156l-77 -40l-5 3l-12 34l94 49l-1 300l51 5l-2 -282l79 41l5 -2l12 -34l-96 -51z" />
    <glyph glyph-name="Nacute" unicode="&#x143;" horiz-adv-x="677" 
d="M573 182v-182h-53l-366 552h-5l-1 -347l1 -205h-48l2 190l-1 449h54l365 -552h5l1 549l49 4zM445 849l14 -30l-2 -7q-89 -46 -186 -89l-7 3l-11 26q109 53 185 99z" />
    <glyph glyph-name="nacute" unicode="&#x144;" horiz-adv-x="509" 
d="M379 315q1 48 -23.5 74.5t-69.5 26.5q-36 0 -74 -21.5t-73 -61.5l-1 -135l3 -198h-52l3 195l-2 256l49 6v-73h5q34 33 70.5 53t70.5 24q69 0 106 -35.5t36 -100.5l-1 -128l2 -197h-52zM368 683l21 -27l-1 -7q-48 -41 -158 -131l-7 1l-17 24q77 63 156 141z" />
    <glyph glyph-name="Ncommaaccent" unicode="&#x145;" horiz-adv-x="677" 
d="M573 182v-182h-53l-366 552h-5l-1 -347l1 -205h-48l2 190l-1 449h54l365 -552h5l1 549l49 4zM382 -117q0 -52 -78 -110l-18 17v5q53 39 53 80q0 23 -30 40v5q17 14 35 20q38 -24 38 -57z" />
    <glyph glyph-name="ncommaaccent" unicode="&#x146;" horiz-adv-x="509" 
d="M379 315q1 48 -23.5 74.5t-69.5 26.5q-36 0 -74 -21.5t-73 -61.5l-1 -135l3 -198h-52l3 195l-2 256l49 6v-73h5q34 33 70.5 53t70.5 24q69 0 106 -35.5t36 -100.5l-1 -128l2 -197h-52zM303 -117q0 -52 -78 -110l-18 17v5q53 39 53 80q0 23 -30 40v5q17 14 35 20
q38 -24 38 -57z" />
    <glyph glyph-name="Ncaron" unicode="&#x147;" horiz-adv-x="677" 
d="M573 182v-182h-53l-366 552h-5l-1 -347l1 -205h-48l2 190l-1 449h54l365 -552h5l1 549l49 4zM453 810q-53 -36 -108 -83h-19q-73 58 -109 83l11 25h8l99 -68q48 34 99 68h7z" />
    <glyph glyph-name="ncaron" unicode="&#x148;" horiz-adv-x="509" 
d="M379 315q1 48 -23.5 74.5t-69.5 26.5q-36 0 -74 -21.5t-73 -61.5l-1 -135l3 -198h-52l3 195l-2 256l49 6v-73h5q34 33 70.5 53t70.5 24q69 0 106 -35.5t36 -100.5l-1 -128l2 -197h-52zM390 651q-51 -54 -112 -130h-21q-64 80 -112 130l16 23h7q56 -58 100 -110
q50 60 99 110h7z" />
    <glyph glyph-name="Eng" unicode="&#x14a;" horiz-adv-x="677" 
d="M573 182v-134q0 -67 -34 -112.5t-117 -88.5l-21 29v8q53 30 80.5 57.5t36.5 61.5l-363 549h-6l-1 -347l2 -205h-49l3 190l-2 449h54l365 -551h5l1 548l49 4z" />
    <glyph glyph-name="eng" unicode="&#x14b;" horiz-adv-x="517" 
d="M429 16q0 -78 -25.5 -123t-90.5 -86l-21 24v8q50 35 69 72t19 101l-1 303q0 48 -24 74.5t-69 26.5q-36 0 -74 -21.5t-73 -61.5l-1 -135l3 -198h-52l3 195l-2 256l49 6v-73h5q34 33 70.5 53t70.5 24q69 0 106 -35.5t36 -100.5l-1 -127z" />
    <glyph glyph-name="Omacron" unicode="&#x14c;" horiz-adv-x="631" 
d="M520 563.5q69 -81.5 69 -232.5q0 -163 -73 -250t-208 -87q-127 0 -196 83.5t-69 238.5q0 158 72.5 243.5t206.5 85.5q129 0 198 -81.5zM152 530q-57 -71 -57 -209q0 -141 55 -213t162 -72q110 0 167 73t57 214q0 138 -55 208t-162 70q-110 0 -167 -71zM462 801l-3 -33
h-285l-4 5l2 32h286z" />
    <glyph glyph-name="omacron" unicode="&#x14d;" horiz-adv-x="489" 
d="M388.5 401.5q50.5 -60.5 50.5 -168.5q0 -113 -53 -176t-147 -63q-90 0 -140 60.5t-50 167.5q0 113 52.5 176.5t146.5 63.5q90 0 140.5 -60.5zM137 373q-39 -50 -39 -141q0 -96 37.5 -147.5t105.5 -51.5q71 0 110 49.5t39 140.5q0 96 -38 148t-106 52q-70 0 -109 -50z
M390 617l-3 -33h-285l-4 5l2 32h286z" />
    <glyph glyph-name="Obreve" unicode="&#x14e;" horiz-adv-x="631" 
d="M520 563.5q69 -81.5 69 -232.5q0 -163 -73 -250t-208 -87q-127 0 -196 83.5t-69 238.5q0 158 72.5 243.5t206.5 85.5q129 0 198 -81.5zM152 530q-57 -71 -57 -209q0 -141 55 -213t162 -72q110 0 167 73t57 214q0 138 -55 208t-162 70q-110 0 -167 -71zM430 809
q-13 -40 -43 -61t-72 -21q-43 0 -72 21t-41 61l17 20h9q9 -30 31.5 -46.5t55.5 -16.5t56 16.5t33 46.5h9z" />
    <glyph glyph-name="obreve" unicode="&#x14f;" horiz-adv-x="489" 
d="M388.5 401.5q50.5 -60.5 50.5 -168.5q0 -113 -53 -176t-147 -63q-90 0 -140 60.5t-50 167.5q0 113 52.5 176.5t146.5 63.5q90 0 140.5 -60.5zM137 373q-39 -50 -39 -141q0 -96 37.5 -147.5t105.5 -51.5q71 0 110 49.5t39 140.5q0 96 -38 148t-106 52q-70 0 -109 -50z
M359 635q-23 -111 -116 -111t-113 111l17 21h9q16 -92 88 -92t88 92h9z" />
    <glyph glyph-name="Ohungarumlaut" unicode="&#x150;" horiz-adv-x="631" 
d="M520 563.5q69 -81.5 69 -232.5q0 -163 -73 -250t-208 -87q-127 0 -196 83.5t-69 238.5q0 158 72.5 243.5t206.5 85.5q129 0 198 -81.5zM152 530q-57 -71 -57 -209q0 -141 55 -213t162 -72q110 0 167 73t57 214q0 138 -55 208t-162 70q-110 0 -167 -71zM326 853h7l23 -18
v-7q-36 -36 -115 -108h-7l-19 19q75 75 111 114zM463 853h6l25 -18l-1 -7q-36 -36 -115 -108h-7l-19 19q75 75 111 114z" />
    <glyph glyph-name="ohungarumlaut" unicode="&#x151;" horiz-adv-x="489" 
d="M388.5 401.5q50.5 -60.5 50.5 -168.5q0 -113 -53 -176t-147 -63q-90 0 -140 60.5t-50 167.5q0 113 52.5 176.5t146.5 63.5q90 0 140.5 -60.5zM137 373q-39 -50 -39 -141q0 -96 37.5 -147.5t105.5 -51.5q71 0 110 49.5t39 140.5q0 96 -38 148t-106 52q-70 0 -109 -50z
M256 683h6l24 -19v-7q-66 -67 -144 -139h-7l-19 19q73 71 140 146zM392 683h7l24 -19l-1 -7q-66 -67 -144 -139h-7l-19 19q73 71 140 146z" />
    <glyph glyph-name="OE" unicode="&#x152;" horiz-adv-x="843" 
d="M439 645q52 -6 79 -6h292l4 -6l-5 -41l-139 2h-144v-242l117 -1l115 1l4 -5l-5 -41l-232 1v-262l133 -1l154 3l5 -6l-6 -41h-293q-31 0 -89 -6t-85 -6q-144 0 -222.5 86.5t-78.5 242.5q0 158 82 246t232 88q30 0 82 -6zM161.5 532q-66.5 -74 -66.5 -214
q0 -138 64.5 -211.5t190.5 -73.5q26 0 56 3.5t45 6.5q15 4 20.5 10t5.5 20l-3 486q0 19 -3 26t-11 9q-12 4 -44.5 8t-62.5 4q-125 0 -191.5 -74z" />
    <glyph glyph-name="oe" unicode="&#x153;" horiz-adv-x="777" 
d="M695.5 416.5q40.5 -44.5 40.5 -121.5l-2 -38l-11 -10l-294 -5v-16q0 -88 39 -138.5t112 -50.5q33 0 67.5 11.5t61.5 33.5l7 -3l-6 -45q-61 -40 -133 -40q-61 0 -105 30t-66 86q-22 -56 -66.5 -86t-107.5 -30q-89 0 -139 60.5t-50 168.5q0 112 52.5 175t144.5 63
q62 0 105.5 -30t63.5 -86q23 56 68 86t106 30q72 0 112.5 -44.5zM347.5 82.5q38.5 49.5 38.5 140.5q0 96 -38 148t-106 52q-70 0 -109 -50t-39 -141q0 -96 37.5 -147.5t106.5 -51.5q71 0 109.5 49.5zM689 300q0 59 -29.5 90.5t-80.5 31.5q-58 0 -96.5 -37.5t-49.5 -105.5
l254 8z" />
    <glyph glyph-name="Racute" unicode="&#x154;" horiz-adv-x="538" 
d="M494 12v-7q-16 -8 -45 -13l-8 4q-97 139 -164 254h-126v-53l2 -197h-52l3 194l-3 445l170 1q91 0 140 -46t49 -133q0 -70 -36 -121.5t-103 -77.5q75 -121 173 -250zM152 296l130 -2q61 17 93 58.5t32 105.5q0 67 -36.5 101.5t-105.5 36.5l-111 -2zM369 867l21 -27l-1 -7
q-48 -41 -158 -131l-7 1l-17 24q77 63 156 141z" />
    <glyph glyph-name="racute" unicode="&#x155;" horiz-adv-x="311" 
d="M302 454v-50l-7 -2q-18 3 -32 3q-34 0 -64 -28.5t-61 -92.5v-86l3 -198h-52l3 195l-2 256l49 6v-102h5q57 101 132 101q12 0 26 -2zM290 683l21 -27l-1 -7q-48 -41 -158 -131l-7 1l-17 24q77 63 156 141z" />
    <glyph glyph-name="Rcommaaccent" unicode="&#x156;" horiz-adv-x="538" 
d="M494 12v-7q-16 -8 -45 -13l-8 4q-97 139 -164 254h-126v-53l2 -197h-52l3 194l-3 445l170 1q91 0 140 -46t49 -133q0 -70 -36 -121.5t-103 -77.5q75 -121 173 -250zM152 296l130 -2q61 17 93 58.5t32 105.5q0 67 -36.5 101.5t-105.5 36.5l-111 -2zM317 -117
q0 -52 -78 -110l-18 17v5q53 39 53 80q0 23 -30 40v5q17 14 35 20q38 -24 38 -57z" />
    <glyph glyph-name="rcommaaccent" unicode="&#x157;" horiz-adv-x="311" 
d="M302 454v-50l-7 -2q-18 3 -32 3q-34 0 -64 -28.5t-61 -92.5v-86l3 -198h-52l3 195l-2 256l49 6v-102h5q57 101 132 101q12 0 26 -2zM164 -117q0 -52 -78 -110l-18 17v5q53 39 53 80q0 23 -30 40v5q17 14 35 20q38 -24 38 -57z" />
    <glyph glyph-name="Rcaron" unicode="&#x158;" horiz-adv-x="538" 
d="M494 12v-7q-16 -8 -45 -13l-8 4q-97 139 -164 254h-126v-53l2 -197h-52l3 194l-3 445l170 1q91 0 140 -46t49 -133q0 -70 -36 -121.5t-103 -77.5q75 -121 173 -250zM152 296l130 -2q61 17 93 58.5t32 105.5q0 67 -36.5 101.5t-105.5 36.5l-111 -2zM387 810
q-53 -36 -108 -83h-19q-73 58 -109 83l11 25h8l99 -68q48 34 99 68h7z" />
    <glyph glyph-name="rcaron" unicode="&#x159;" horiz-adv-x="311" 
d="M302 454v-50l-7 -2q-18 3 -32 3q-34 0 -64 -28.5t-61 -92.5v-86l3 -198h-52l3 195l-2 256l49 6v-102h5q57 101 132 101q12 0 26 -2zM312 651q-51 -54 -112 -130h-21q-64 80 -112 130l16 23h7q56 -58 100 -110q50 60 99 110h7z" />
    <glyph glyph-name="Sacute" unicode="&#x15a;" horiz-adv-x="459" 
d="M390 613l-9 -48l-10 -3q-28 18 -59.5 27.5t-60.5 9.5q-42 0 -73.5 -17.5t-48 -45.5t-16.5 -57q0 -31 18 -54t44.5 -39.5t71.5 -37.5q53 -26 85.5 -46.5t55.5 -53t23 -78.5q0 -47 -25.5 -87.5t-72 -64t-104.5 -23.5q-41 0 -84 11.5t-78 33.5l6 53l7 3q33 -29 74 -43.5
t79 -14.5q44 0 77 18t51 47t18 61q0 33 -18.5 57.5t-45 40.5t-73.5 39q-52 25 -84 45t-54 52t-22 77q0 46 24.5 84.5t69 61t101.5 22.5q66 0 133 -30zM341 867l21 -27l-1 -7q-48 -41 -158 -131l-7 1l-17 24q77 63 156 141z" />
    <glyph glyph-name="sacute" unicode="&#x15b;" horiz-adv-x="364" 
d="M302 439l-8 -43l-9 -2q-47 27 -91 27q-41 0 -67 -23t-26 -56q0 -32 24 -50.5t73 -40.5q40 -19 62.5 -33t39 -37t16.5 -56q0 -35 -18.5 -65t-53.5 -48t-81 -18q-67 0 -125 33l7 45l7 4q25 -21 55.5 -32t58.5 -11q46 0 74 25t28 59q0 31 -23 49.5t-72 41.5q-39 18 -63 33
t-40.5 39t-16.5 58q0 53 40 87.5t106 34.5q53 0 103 -21zM280 683l21 -27l-1 -7q-48 -41 -158 -131l-7 1l-17 24q77 63 156 141z" />
    <glyph glyph-name="Scircumflex" unicode="&#x15c;" horiz-adv-x="459" 
d="M390 613l-9 -48l-10 -3q-28 18 -59.5 27.5t-60.5 9.5q-42 0 -73.5 -17.5t-48 -45.5t-16.5 -57q0 -31 18 -54t44.5 -39.5t71.5 -37.5q53 -26 85.5 -46.5t55.5 -53t23 -78.5q0 -47 -25.5 -87.5t-72 -64t-104.5 -23.5q-41 0 -84 11.5t-78 33.5l6 53l7 3q33 -29 74 -43.5
t79 -14.5q44 0 77 18t51 47t18 61q0 33 -18.5 57.5t-45 40.5t-73.5 39q-52 25 -84 45t-54 52t-22 77q0 46 24.5 84.5t69 61t101.5 22.5q66 0 133 -30zM119 728q51 54 112 130h21q64 -80 112 -130l-16 -23h-7q-56 58 -100 110q-50 -60 -99 -110h-7z" />
    <glyph glyph-name="scircumflex" unicode="&#x15d;" horiz-adv-x="364" 
d="M302 439l-8 -43l-9 -2q-47 27 -91 27q-41 0 -67 -23t-26 -56q0 -32 24 -50.5t73 -40.5q40 -19 62.5 -33t39 -37t16.5 -56q0 -35 -18.5 -65t-53.5 -48t-81 -18q-67 0 -125 33l7 45l7 4q25 -21 55.5 -32t58.5 -11q46 0 74 25t28 59q0 31 -23 49.5t-72 41.5q-39 18 -63 33
t-40.5 39t-16.5 58q0 53 40 87.5t106 34.5q53 0 103 -21zM58 544q51 54 112 130h21q64 -80 112 -130l-16 -23h-7q-56 58 -100 110q-50 -60 -99 -110h-7z" />
    <glyph glyph-name="Scedilla" unicode="&#x15e;" horiz-adv-x="459" 
d="M390 613l-9 -48l-10 -3q-28 18 -59.5 27.5t-60.5 9.5q-42 0 -73.5 -17.5t-48 -45.5t-16.5 -57q0 -31 18 -54t44.5 -39.5t71.5 -37.5q53 -26 85.5 -46.5t55.5 -53t23 -78.5q0 -47 -25.5 -87.5t-72 -64t-104.5 -23.5q-41 0 -84 11.5t-78 33.5l6 53l7 3q33 -29 74 -43.5
t79 -14.5q44 0 77 18t51 47t18 61q0 33 -18.5 57.5t-45 40.5t-73.5 39q-52 25 -84 45t-54 52t-22 77q0 46 24.5 84.5t69 61t101.5 22.5q66 0 133 -30zM227 -53l32 -20q19 -11 27.5 -23.5t8.5 -29.5q0 -27 -20.5 -43.5t-50.5 -16.5q-40 0 -66 32l7 29l4 1q13 -16 24.5 -23.5
t28.5 -7.5q16 0 26 8t10 22q0 10 -5.5 16t-17.5 13l-46 28l25 83h34z" />
    <glyph glyph-name="scedilla" unicode="&#x15f;" horiz-adv-x="364" 
d="M302 439l-8 -43l-9 -2q-47 27 -91 27q-41 0 -67 -23t-26 -56q0 -32 24 -50.5t73 -40.5q40 -19 62.5 -33t39 -37t16.5 -56q0 -35 -18.5 -65t-53.5 -48t-81 -18q-67 0 -125 33l7 45l7 4q25 -21 55.5 -32t58.5 -11q46 0 74 25t28 59q0 31 -23 49.5t-72 41.5q-39 18 -63 33
t-40.5 39t-16.5 58q0 53 40 87.5t106 34.5q53 0 103 -21zM172 -53l32 -20q19 -11 27.5 -23.5t8.5 -29.5q0 -27 -20.5 -43.5t-50.5 -16.5q-40 0 -66 32l7 29l4 1q13 -16 24.5 -23.5t28.5 -7.5q16 0 26 8t10 22q0 10 -5.5 16t-17.5 13l-46 28l25 83h34z" />
    <glyph glyph-name="Scaron" unicode="&#x160;" horiz-adv-x="459" 
d="M390 613l-9 -48l-10 -3q-28 18 -59.5 27.5t-60.5 9.5q-42 0 -73.5 -17.5t-48 -45.5t-16.5 -57q0 -31 18 -54t44.5 -39.5t71.5 -37.5q53 -26 85.5 -46.5t55.5 -53t23 -78.5q0 -47 -25.5 -87.5t-72 -64t-104.5 -23.5q-41 0 -84 11.5t-78 33.5l6 53l7 3q33 -29 74 -43.5
t79 -14.5q44 0 77 18t51 47t18 61q0 33 -18.5 57.5t-45 40.5t-73.5 39q-52 25 -84 45t-54 52t-22 77q0 46 24.5 84.5t69 61t101.5 22.5q66 0 133 -30zM359 810q-53 -36 -108 -83h-19q-73 58 -109 83l11 25h8l99 -68q48 34 99 68h7z" />
    <glyph glyph-name="scaron" unicode="&#x161;" horiz-adv-x="364" 
d="M302 439l-8 -43l-9 -2q-47 27 -91 27q-41 0 -67 -23t-26 -56q0 -32 24 -50.5t73 -40.5q40 -19 62.5 -33t39 -37t16.5 -56q0 -35 -18.5 -65t-53.5 -48t-81 -18q-67 0 -125 33l7 45l7 4q25 -21 55.5 -32t58.5 -11q46 0 74 25t28 59q0 31 -23 49.5t-72 41.5q-39 18 -63 33
t-40.5 39t-16.5 58q0 53 40 87.5t106 34.5q53 0 103 -21zM302 651q-51 -54 -112 -130h-21q-64 80 -112 130l16 23h7q56 -58 100 -110q50 60 99 110h7z" />
    <glyph glyph-name="uni0162" unicode="&#x162;" horiz-adv-x="483" 
d="M459 633l-5 -40l-107 3h-78l-3 -399l2 -197h-11l-17 -53l33 -20q19 -11 27 -23.5t8 -29.5q0 -27 -20 -43.5t-51 -16.5q-40 0 -66 32l7 29l5 1q12 -15 23.5 -23t28.5 -8t26.5 8t9.5 22q0 10 -5.5 16t-16.5 13l-46 28l20 68h-7l3 194l-3 402h-78l-109 -3l-4 6l5 40h424z
" />
    <glyph glyph-name="uni0163" unicode="&#x163;" horiz-adv-x="309" 
d="M288 63l6 -5l-5 -36q-50 -26 -90 -27q-52 6 -77 36.5t-25 87.5l2 90l-1 208h-62l-4 5l4 32h62v91l44 18l6 -5l-1 -104h145l4 -5l-4 -32h-145l-3 -293q0 -43 17 -63.5t52 -20.5t75 23zM205 -53l32 -20q19 -11 27.5 -23.5t8.5 -29.5q0 -27 -20.5 -43.5t-50.5 -16.5
q-40 0 -66 32l7 29l4 1q13 -16 24.5 -23.5t28.5 -7.5q16 0 26 8t10 22q0 10 -5.5 16t-17.5 13l-46 28l25 83h34z" />
    <glyph glyph-name="Tcaron" unicode="&#x164;" horiz-adv-x="483" 
d="M459 633l-5 -40l-107 3h-78l-3 -399l2 -197h-52l3 194l-3 402h-78l-109 -3l-4 6l5 40h424zM363 810q-53 -36 -108 -83h-19q-73 58 -109 83l11 25h8l99 -68q48 34 99 68h7z" />
    <glyph glyph-name="tcaron" unicode="&#x165;" horiz-adv-x="334" 
d="M288 63l6 -5l-5 -36q-50 -26 -90 -27q-52 6 -77 36.5t-25 87.5l2 90l-1 208h-62l-4 5l4 32h62v91l44 18l6 -5l-1 -104h145l4 -5l-4 -32h-145l-3 -293q0 -43 17 -63.5t52 -20.5t75 23zM289 667l-18 -159l-28 -3l-5 4l8 161l38 3z" />
    <glyph glyph-name="Tbar" unicode="&#x166;" horiz-adv-x="483" 
d="M269 596l-2 -248h104l5 -5l-3 -31h-106l-1 -115l2 -197h-52l3 194l-1 118h-96l-5 4l3 32h98l-2 248h-78l-109 -3l-4 6l5 40h424l5 -6l-5 -40l-107 3h-78z" />
    <glyph glyph-name="tbar" unicode="&#x167;" horiz-adv-x="313" 
d="M290 63l6 -5l-5 -36q-50 -26 -90 -27q-52 6 -77 36.5t-25 87.5l2 90v42h-63l-4 5l3 31h64l-1 130h-62l-4 5l4 32h62v91l44 18l6 -5l-1 -104h145l4 -5l-4 -32h-145l-1 -130h130l5 -4l-3 -32h-133l-1 -127q0 -43 17 -63.5t52 -20.5t75 23z" />
    <glyph glyph-name="Umacron" unicode="&#x16a;" horiz-adv-x="619" 
d="M539 313v-77q2 -115 -59 -178t-174 -63q-110 0 -168.5 61t-57.5 176v407h51l-2 -402q-1 -96 45 -146t135 -50t135.5 49t45.5 142l-2 407h52zM459 801l-3 -33h-285l-4 5l2 32h286z" />
    <glyph glyph-name="umacron" unicode="&#x16b;" horiz-adv-x="507" 
d="M483 45l-6 -33q-24 -14 -51 -16q-29 2 -45 20t-20 55h-4q-68 -68 -140 -76q-66 0 -101 35t-35 101l1 109l-2 211l52 6l-3 -316q0 -48 22.5 -74.5t65.5 -26.5q72 0 142 75v336l49 6l-2 -368q0 -26 7.5 -37.5t24.5 -11.5q18 0 38 10zM400 617l-3 -33h-285l-4 5l2 32h286z
" />
    <glyph glyph-name="Ubreve" unicode="&#x16c;" horiz-adv-x="619" 
d="M539 313v-77q2 -115 -59 -178t-174 -63q-110 0 -168.5 61t-57.5 176v407h51l-2 -402q-1 -96 45 -146t135 -50t135.5 49t45.5 142l-2 407h52zM428 819q-23 -111 -116 -111t-113 111l17 21h9q16 -92 88 -92t88 92h9z" />
    <glyph glyph-name="ubreve" unicode="&#x16d;" horiz-adv-x="507" 
d="M483 45l-6 -33q-24 -14 -51 -16q-29 2 -45 20t-20 55h-4q-68 -68 -140 -76q-66 0 -101 35t-35 101l1 109l-2 211l52 6l-3 -316q0 -48 22.5 -74.5t65.5 -26.5q72 0 142 75v336l49 6l-2 -368q0 -26 7.5 -37.5t24.5 -11.5q18 0 38 10zM369 635q-23 -111 -116 -111t-113 111
l17 21h9q16 -92 88 -92t88 92h9z" />
    <glyph glyph-name="Uring" unicode="&#x16e;" horiz-adv-x="619" 
d="M539 313v-77q2 -115 -59 -178t-174 -63q-110 0 -168.5 61t-57.5 176v407h51l-2 -402q-1 -96 45 -146t135 -50t135.5 49t45.5 142l-2 407h52zM368.5 845.5q20.5 -21.5 20.5 -53.5q0 -36 -23 -57t-55 -21q-33 0 -55 20.5t-22 56.5q0 34 21 55t57 21t56.5 -21.5zM276.5 825
q-12.5 -12 -12.5 -33q0 -23 13 -35.5t34 -12.5t35 12t14 34q0 21 -12.5 34t-36.5 13q-22 0 -34.5 -12z" />
    <glyph glyph-name="uring" unicode="&#x16f;" horiz-adv-x="507" 
d="M483 45l-6 -33q-24 -14 -51 -16q-29 2 -45 20t-20 55h-4q-68 -68 -140 -76q-66 0 -101 35t-35 101l1 109l-2 211l52 6l-3 -316q0 -48 22.5 -74.5t65.5 -26.5q72 0 142 75v336l49 6l-2 -368q0 -26 7.5 -37.5t24.5 -11.5q18 0 38 10zM309.5 661.5q20.5 -21.5 20.5 -53.5
q0 -36 -23 -57t-55 -21q-33 0 -55 20.5t-22 56.5q0 34 21 55t57 21t56.5 -21.5zM217.5 641q-12.5 -12 -12.5 -33q0 -23 13 -35.5t34 -12.5t35 12t14 34q0 21 -12.5 34t-36.5 13q-22 0 -34.5 -12z" />
    <glyph glyph-name="Uhungarumlaut" unicode="&#x170;" horiz-adv-x="619" 
d="M539 313v-77q2 -115 -59 -178t-174 -63q-110 0 -168.5 61t-57.5 176v407h51l-2 -402q-1 -96 45 -146t135 -50t135.5 49t45.5 142l-2 407h52zM323 853h7l23 -18v-7q-36 -36 -115 -108h-7l-19 19q75 75 111 114zM460 853h6l25 -18l-1 -7q-36 -36 -115 -108h-7l-19 19
q75 75 111 114z" />
    <glyph glyph-name="uhungarumlaut" unicode="&#x171;" horiz-adv-x="507" 
d="M483 45l-6 -33q-24 -14 -51 -16q-29 2 -45 20t-20 55h-4q-68 -68 -140 -76q-66 0 -101 35t-35 101l1 109l-2 211l52 6l-3 -316q0 -48 22.5 -74.5t65.5 -26.5q72 0 142 75v336l49 6l-2 -368q0 -26 7.5 -37.5t24.5 -11.5q18 0 38 10zM266 683h6l24 -19v-7
q-66 -67 -144 -139h-7l-19 19q73 71 140 146zM402 683h7l24 -19l-1 -7q-66 -67 -144 -139h-7l-19 19q73 71 140 146z" />
    <glyph glyph-name="Uogonek" unicode="&#x172;" horiz-adv-x="619" 
d="M539 313v-77q2 -115 -59 -178t-174 -63q-110 0 -168.5 61t-57.5 176v407h51l-2 -402q-1 -96 45 -146t135 -50t135.5 49t45.5 142l-2 407h52zM321 -174.5q-20 17.5 -20 48.5q0 20 8 37.5t29 43.5t67 75h38q-37 -44 -62 -74.5t-32.5 -45t-7.5 -28.5q0 -36 39 -36
q37 0 76 45h3l13 -30q-45 -53 -97 -53q-34 0 -54 17.5z" />
    <glyph glyph-name="uogonek" unicode="&#x173;" horiz-adv-x="507" 
d="M483 45l-6 -33q-24 -14 -51 -16q-29 2 -45 20t-20 55h-4q-68 -68 -140 -76q-66 0 -101 35t-35 101l1 109l-2 211l52 6l-3 -316q0 -48 22.5 -74.5t65.5 -26.5q72 0 142 75v336l49 6l-2 -368q0 -26 7.5 -37.5t24.5 -11.5q18 0 38 10zM355 -192.5q-20 17.5 -20 48.5
q0 20 8 37.5t29 43.5t67 75h38q-37 -44 -62 -74.5t-32.5 -45t-7.5 -28.5q0 -36 39 -36q37 0 76 45h3l13 -30q-45 -53 -97 -53q-34 0 -54 17.5z" />
    <glyph glyph-name="Wcircumflex" unicode="&#x174;" horiz-adv-x="889" 
d="M639 0h-53l-140 403h-5l-150 -403h-53l-216 639h53l12 -53l178 -523h5l153 412l-57 164h54l14 -57l178 -519h6l195 521l14 55h51zM319 761q53 36 108 83h19q73 -58 109 -83l-11 -25h-8l-99 68q-48 -34 -99 -68h-7z" />
    <glyph glyph-name="wcircumflex" unicode="&#x175;" horiz-adv-x="654" 
d="M79 405l98 -345h5l111 343l15 52h52l11 -50l97 -345h5l112 343l14 52h48l-154 -455h-51l-108 384h-6l-125 -384h-52l-132 453l49 5zM208 544q51 54 112 130h21q64 -80 112 -130l-16 -23h-7q-56 58 -100 110q-50 -60 -99 -110h-7z" />
    <glyph glyph-name="Ycircumflex" unicode="&#x176;" horiz-adv-x="512" 
d="M271 191l2 -191h-52l2 191l-1 45l-202 403h58l12 -31l156 -310h6l170 309l13 32h57l-220 -401zM131 761q53 36 108 83h19q73 -58 109 -83l-11 -25h-8l-99 68q-48 -34 -99 -68h-7z" />
    <glyph glyph-name="ycircumflex" unicode="&#x177;" horiz-adv-x="417" 
d="M78 405l124 -342h6l129 339l15 53h49l-170 -446q-26 -68 -53.5 -106t-66 -58.5t-101.5 -34.5h-6q-14 13 -21 30l1 8q55 10 89 26t59 45t49 81l-167 453l49 5zM89 544q51 54 112 130h21q64 -80 112 -130l-16 -23h-7q-56 58 -100 110q-50 -60 -99 -110h-7z" />
    <glyph glyph-name="Ydieresis" unicode="&#x178;" horiz-adv-x="512" 
d="M271 191l2 -191h-52l2 191l-1 45l-202 403h58l12 -31l156 -310h6l170 309l13 32h57l-220 -401zM198.5 809.5q8.5 -8.5 8.5 -23.5t-8.5 -24.5t-23.5 -9.5t-23.5 9t-8.5 24t8.5 24t24.5 9q14 0 22.5 -8.5zM348.5 809.5q8.5 -8.5 8.5 -23.5t-9 -24.5t-24 -9.5t-23.5 9
t-8.5 24t9 24t24 9t23.5 -8.5z" />
    <glyph glyph-name="Zacute" unicode="&#x179;" horiz-adv-x="518" 
d="M474 600l-379 -556h296l83 4l4 -5l-5 -44l-96 1h-298l-47 -2v40l379 557h-282l-78 -5l-4 6l5 44l89 -1h289l44 1v-40zM369 849l14 -30l-2 -7q-89 -46 -186 -89l-7 3l-11 26q109 53 185 99z" />
    <glyph glyph-name="zacute" unicode="&#x17a;" horiz-adv-x="406" 
d="M119 455h213l33 1l1 -33l-273 -384h208l65 4l4 -5l-6 -39l-76 1h-215l-37 -1l-1 33l273 385h-198l-60 -5l-5 6l6 39zM303 683l21 -27l-1 -7q-48 -41 -158 -131l-7 1l-17 24q77 63 156 141z" />
    <glyph glyph-name="Zdotaccent" unicode="&#x17b;" horiz-adv-x="518" 
d="M474 600l-379 -556h296l83 4l4 -5l-5 -44l-96 1h-298l-47 -2v40l379 557h-282l-78 -5l-4 6l5 44l89 -1h289l44 1v-40zM284.5 823q8.5 -9 8.5 -24q0 -16 -9 -25.5t-25 -9.5t-24.5 8.5t-8.5 24.5t9 25.5t25 9.5t24.5 -9z" />
    <glyph glyph-name="zdotaccent" unicode="&#x17c;" horiz-adv-x="406" 
d="M119 455h213l33 1l1 -33l-273 -384h208l65 4l4 -5l-6 -39l-76 1h-215l-37 -1l-1 33l273 385h-198l-60 -5l-5 6l6 39zM228.5 639q8.5 -9 8.5 -24q0 -16 -9 -25.5t-25 -9.5t-24.5 8.5t-8.5 24.5t9 25.5t25 9.5t24.5 -9z" />
    <glyph glyph-name="Zcaron" unicode="&#x17d;" horiz-adv-x="518" 
d="M474 600l-379 -556h296l83 4l4 -5l-5 -44l-96 1h-298l-47 -2v40l379 557h-282l-78 -5l-4 6l5 44l89 -1h289l44 1v-40zM378 810q-53 -36 -108 -83h-19q-73 58 -109 83l11 25h8l99 -68q48 34 99 68h7z" />
    <glyph glyph-name="zcaron" unicode="&#x17e;" horiz-adv-x="406" 
d="M119 455h213l33 1l1 -33l-273 -384h208l65 4l4 -5l-6 -39l-76 1h-215l-37 -1l-1 33l273 385h-198l-60 -5l-5 6l6 39zM325 651q-51 -54 -112 -130h-21q-64 80 -112 130l16 23h7q56 -58 100 -110q50 60 99 110h7z" />
    <glyph glyph-name="uni018F" unicode="&#x18f;" horiz-adv-x="618" 
d="M503.5 559.5q72.5 -84.5 72.5 -235.5q0 -100 -33.5 -174.5t-95 -115t-144.5 -40.5q-71 0 -126 28t-85.5 80.5t-30.5 121.5q0 20 4 54l10 11l447 4q1 9 1 29q0 131 -59.5 202.5t-169.5 71.5q-52 0 -103 -16t-88 -44l-9 5l7 49q93 54 200 54q130 0 202.5 -84.5zM445.5 94.5
q56.5 56.5 72.5 155.5l-403 -4l-2 -27q0 -83 52.5 -132t137.5 -49q86 0 142.5 56.5z" />
    <glyph glyph-name="florin" unicode="&#x192;" horiz-adv-x="257" 
d="M352 605l-9 -36l-4 -3q-26 11 -58 11q-49 0 -74.5 -26.5t-32.5 -76.5l-13 -104h112l3 -5l-3 -28h-116l-20 -152l-18 -141q-7 -66 -30 -106t-80 -87l-22 21l1 6q45 42 63.5 75.5t25.5 88.5l17 140l19 155h-64l-4 4l3 29h69l13 99q8 70 48.5 107t106.5 37q25 0 67 -8z" />
    <glyph glyph-name="Ohorn" unicode="&#x1a0;" horiz-adv-x="643" 
d="M590 328q0 -160 -73 -247t-206 -87q-128 0 -197.5 83.5t-69.5 237.5q0 157 71.5 243.5t199.5 86.5q37 0 65 -6t60 -16q34 -12 52 -12q24 0 39 13t15 34q0 17 -8.5 34.5t-24.5 33.5l2 7q16 11 26 11q17 0 32.5 -26.5t15.5 -56.5q0 -34 -23 -56.5t-61 -26.5q85 -76 85 -250
zM479.5 109q57.5 73 57.5 212t-55 209.5t-163 70.5q-109 0 -165.5 -71.5t-56.5 -209.5q0 -140 55 -212t162 -72q108 0 165.5 73z" />
    <glyph glyph-name="ohorn" unicode="&#x1a1;" horiz-adv-x="518" 
d="M452.5 438.5q-29.5 -26.5 -75.5 -26.5q62 -62 62 -180q0 -112 -52.5 -175t-146.5 -63q-91 0 -141 60t-50 169q0 112 52.5 175.5t146.5 63.5q32 0 72 -12q31 -9 51 -9q32 0 50 15.5t18 42.5q0 35 -33 69l2 6q17 12 27 12q17 0 32 -25.5t15 -52.5q0 -43 -29.5 -69.5z
M351.5 83q38.5 51 38.5 144q0 95 -37.5 145.5t-107.5 50.5q-71 0 -109.5 -51t-38.5 -144q0 -96 37.5 -146t107.5 -50q71 0 109.5 51z" />
    <glyph glyph-name="Uhorn" unicode="&#x1af;" horiz-adv-x="629" 
d="M539 313v-77q2 -115 -59 -178t-174 -63q-110 0 -168.5 61t-57.5 176v407h51l-2 -402q-1 -96 45 -146t135 -50t135.5 49t45.5 142l-2 407h25q32 0 49.5 13.5t17.5 38.5q0 29 -34 60l3 7q16 11 26 11q9 0 20 -10.5t19 -27.5t8 -37q0 -33 -22 -55.5t-60 -29.5z" />
    <glyph glyph-name="uhorn" unicode="&#x1b0;" horiz-adv-x="533" 
d="M490.5 579.5q15.5 -23.5 15.5 -53.5q0 -72 -97 -96l-2 -341q0 -26 8 -37.5t25 -11.5q18 0 38 10l7 -5l-6 -33q-24 -15 -51 -16q-59 2 -63 75h-6q-68 -68 -142 -76q-66 0 -101 35.5t-35 100.5l1 103l-2 217l52 6l-3 -316q0 -48 22.5 -74.5t65.5 -26.5q72 0 144 75v336
l23 4q41 7 60 22t19 40q0 34 -33 68l2 6q17 12 28 12q15 0 30.5 -23.5z" />
    <glyph glyph-name="uni01C4" unicode="&#x1c4;" horiz-adv-x="1160" 
d="M526.5 565q72.5 -78 72.5 -224q0 -167 -77 -256.5t-221 -89.5q-37 0 -94.5 1.5t-105.5 3.5l3 194l-3 445l217 4q136 0 208.5 -78zM484.5 114q61.5 75 61.5 218q0 132 -59 199.5t-172 67.5q-28 0 -75 -1.5t-86 -3.5l-3 -397l2 -152q41 -2 84.5 -4t70.5 -2q115 0 176.5 75z
M1116 600l-379 -556h296l83 4l4 -5l-5 -44l-96 1h-298l-47 -2v40l379 557h-282l-78 -5l-4 6l5 44l89 -1h289l44 1v-40zM1020 810q-53 -36 -108 -83h-19q-73 58 -109 83l11 25h8l99 -68q48 34 99 68h7z" />
    <glyph glyph-name="uni01C5" unicode="&#x1c5;" horiz-adv-x="1048" 
d="M526.5 565q72.5 -78 72.5 -224q0 -167 -77 -256.5t-221 -89.5q-37 0 -94.5 1.5t-105.5 3.5l3 194l-3 445l217 4q136 0 208.5 -78zM484.5 114q61.5 75 61.5 218q0 132 -59 199.5t-172 67.5q-28 0 -75 -1.5t-86 -3.5l-3 -397l2 -152q41 -2 84.5 -4t70.5 -2q115 0 176.5 75z
M761 455h213l33 1l1 -33l-273 -384h208l65 4l4 -5l-6 -39l-76 1h-215l-37 -1l-1 33l273 385h-198l-60 -5l-5 6l6 39zM967 651q-51 -54 -112 -130h-21q-64 80 -112 130l16 23h7q56 -58 100 -110q50 60 99 110h7z" />
    <glyph glyph-name="uni01C6" unicode="&#x1c6;" horiz-adv-x="919" 
d="M410 198l2 -111q0 -26 7 -36.5t25 -10.5q17 0 37 10l7 -5l-6 -33q-24 -15 -51 -16q-57 2 -62 71h-5q-31 -31 -60 -48t-65 -24q-90 0 -140 60t-50 168q0 114 57 176.5t160 62.5q43 0 97 -13v248l51 5zM141 373q-43 -50 -43 -143q0 -90 37 -140t102 -50q35 0 66 17.5
t61 55.5l1 81l-2 207q-53 22 -102 22q-77 0 -120 -50zM632 455h213l33 1l1 -33l-273 -384h208l65 4l4 -5l-6 -39l-76 1h-215l-37 -1l-1 33l273 385h-198l-60 -5l-5 6l6 39zM838 651q-51 -54 -112 -130h-21q-64 80 -112 130l16 23h7q56 -58 100 -110q50 60 99 110h7z" />
    <glyph glyph-name="uni01C7" unicode="&#x1c7;" horiz-adv-x="698" 
d="M404 39l-6 -39h-299l3 194l-3 445h53l-3 -442l2 -152h248zM596 212l1 -96q0 -73 -34 -121.5t-117 -94.5l-21 29v8q67 40 95 79.5t28 98.5v91l-2 389h-125l-6 5l4 39h179z" />
    <glyph glyph-name="uni01C8" unicode="&#x1c8;" horiz-adv-x="653" 
d="M404 39l-6 -39h-299l3 194l-3 445h53l-3 -442l2 -152h248zM564 455l-3 -257l2 -182q0 -78 -25.5 -123t-91.5 -86l-20 24v7q50 35 69.5 72.5t19.5 101.5l1 183l-2 222h-89l-5 6l4 31h89l49 3zM548.5 639q8.5 -9 8.5 -24q0 -16 -9 -25.5t-25 -9.5t-24.5 8.5t-8.5 24.5
t9 25.5t25 9.5t24.5 -9z" />
    <glyph glyph-name="uni01C9" unicode="&#x1c9;" horiz-adv-x="484" 
d="M142 198l3 -198h-51l3 195l-3 502l52 5zM395 455l-3 -257l2 -182q0 -78 -25.5 -123t-91.5 -86l-20 24v7q50 35 69.5 72.5t19.5 101.5l1 183l-2 222h-89l-5 6l4 31h89l49 3zM379.5 639q8.5 -9 8.5 -24q0 -16 -9 -25.5t-25 -9.5t-24.5 8.5t-8.5 24.5t9 25.5t25 9.5t24.5 -9
z" />
    <glyph glyph-name="uni01CA" unicode="&#x1ca;" horiz-adv-x="967" 
d="M573 182v-182h-53l-366 552h-5l-1 -347l1 -205h-48l2 190l-1 449h54l365 -552h5l1 549l49 4zM865 212l1 -96q0 -73 -34 -121.5t-117 -94.5l-21 29v8q67 40 95 79.5t28 98.5v91l-2 389h-125l-6 5l4 39h179z" />
    <glyph glyph-name="uni01CB" unicode="&#x1cb;" horiz-adv-x="922" 
d="M573 182v-182h-53l-366 552h-5l-1 -347l1 -205h-48l2 190l-1 449h54l365 -552h5l1 549l49 4zM833 455l-3 -257l2 -182q0 -78 -25.5 -123t-91.5 -86l-20 24v7q50 35 69.5 72.5t19.5 101.5l1 183l-2 222h-89l-5 6l4 31h89l49 3zM817.5 639q8.5 -9 8.5 -24q0 -16 -9 -25.5
t-25 -9.5t-24.5 8.5t-8.5 24.5t9 25.5t25 9.5t24.5 -9z" />
    <glyph glyph-name="uni01CC" unicode="&#x1cc;" horiz-adv-x="754" 
d="M379 315q1 48 -23.5 74.5t-69.5 26.5q-36 0 -74 -21.5t-73 -61.5l-1 -135l3 -198h-52l3 195l-2 256l49 6v-73h5q34 33 70.5 53t70.5 24q69 0 106 -35.5t36 -100.5l-1 -128l2 -197h-52zM665 455l-3 -257l2 -182q0 -78 -25.5 -123t-91.5 -86l-20 24v7q50 35 69.5 72.5
t19.5 101.5l1 183l-2 222h-89l-5 6l4 31h89l49 3zM649.5 639q8.5 -9 8.5 -24q0 -16 -9 -25.5t-25 -9.5t-24.5 8.5t-8.5 24.5t9 25.5t25 9.5t24.5 -9z" />
    <glyph glyph-name="uni01CD" unicode="&#x1cd;" horiz-adv-x="567" 
d="M542 0h-54l-14 54l-48 138l-152 2l-137 -2l-52 -136l-15 -56h-54l244 639h59zM410 238l-119 341h-6l-130 -341l125 -1zM402 810q-53 -36 -108 -83h-19q-73 58 -109 83l11 25h8l99 -68q48 34 99 68h7z" />
    <glyph glyph-name="uni01CE" unicode="&#x1ce;" horiz-adv-x="453" 
d="M319 431q34 -31 34 -86q0 -21 -2 -55.5t-3 -73.5q-6 -114 -6 -129q0 -26 7.5 -36.5t25.5 -10.5t38 10l7 -5l-6 -33q-24 -15 -51 -16q-60 2 -63 75h-5q-57 -65 -118 -77q-60 0 -94 31.5t-34 87.5q0 81 88 101l166 39l2 81q0 43 -23 65.5t-65 22.5q-64 0 -140 -65l-6 3
l-8 37q82 65 161 65q61 0 95 -31zM147 179q-51 -12 -51 -60q0 -38 21 -59.5t58 -21.5q30 0 61.5 21t61.5 60l4 97zM339 651q-51 -54 -112 -130h-21q-64 80 -112 130l16 23h7q56 -58 100 -110q50 60 99 110h7z" />
    <glyph glyph-name="uni01CF" unicode="&#x1cf;" horiz-adv-x="255" 
d="M151 197l2 -197h-52l3 194l-3 445h53zM245 810q-53 -36 -108 -83h-19q-73 58 -109 83l11 25h8l99 -68q48 34 99 68h7z" />
    <glyph glyph-name="uni01D0" unicode="&#x1d0;" horiz-adv-x="233" 
d="M92 195l-1 256l50 6l-1 -259l1 -198h-51zM238 651q-51 -54 -112 -130h-21q-64 80 -112 130l16 23h7q56 -58 100 -110q50 60 99 110h7z" />
    <glyph glyph-name="uni01D1" unicode="&#x1d1;" horiz-adv-x="631" 
d="M520 563.5q69 -81.5 69 -232.5q0 -163 -73 -250t-208 -87q-127 0 -196 83.5t-69 238.5q0 158 72.5 243.5t206.5 85.5q129 0 198 -81.5zM152 530q-57 -71 -57 -209q0 -141 55 -213t162 -72q110 0 167 73t57 214q0 138 -55 208t-162 70q-110 0 -167 -71zM434 810
q-53 -36 -108 -83h-19q-73 58 -109 83l11 25h8l99 -68q48 34 99 68h7z" />
    <glyph glyph-name="uni01D2" unicode="&#x1d2;" horiz-adv-x="489" 
d="M388.5 401.5q50.5 -60.5 50.5 -168.5q0 -113 -53 -176t-147 -63q-90 0 -140 60.5t-50 167.5q0 113 52.5 176.5t146.5 63.5q90 0 140.5 -60.5zM137 373q-39 -50 -39 -141q0 -96 37.5 -147.5t105.5 -51.5q71 0 110 49.5t39 140.5q0 96 -38 148t-106 52q-70 0 -109 -50z
M366 651q-51 -54 -112 -130h-21q-64 80 -112 130l16 23h7q56 -58 100 -110q50 60 99 110h7z" />
    <glyph glyph-name="uni01D3" unicode="&#x1d3;" horiz-adv-x="619" 
d="M539 313v-77q2 -115 -59 -178t-174 -63q-110 0 -168.5 61t-57.5 176v407h51l-2 -402q-1 -96 45 -146t135 -50t135.5 49t45.5 142l-2 407h52zM431 810q-53 -36 -108 -83h-19q-73 58 -109 83l11 25h8l99 -68q48 34 99 68h7z" />
    <glyph glyph-name="uni01D4" unicode="&#x1d4;" horiz-adv-x="507" 
d="M483 45l-6 -33q-24 -14 -51 -16q-29 2 -45 20t-20 55h-4q-68 -68 -140 -76q-66 0 -101 35t-35 101l1 109l-2 211l52 6l-3 -316q0 -48 22.5 -74.5t65.5 -26.5q72 0 142 75v336l49 6l-2 -368q0 -26 7.5 -37.5t24.5 -11.5q18 0 38 10zM376 651q-51 -54 -112 -130h-21
q-64 80 -112 130l16 23h7q56 -58 100 -110q50 60 99 110h7z" />
    <glyph glyph-name="uni01D5" unicode="&#x1d5;" horiz-adv-x="619" 
d="M539 313v-77q2 -115 -59 -178t-174 -63q-110 0 -168.5 61t-57.5 176v407h51l-2 -402q-1 -96 45 -146t135 -50t135.5 49t45.5 142l-2 407h52zM427 900l-3 -32h-218l-5 4l3 33h219zM260.5 788.5q8.5 -8.5 8.5 -22.5t-9 -23t-23 -9t-22.5 8.5t-8.5 22.5t9 23t23 9t22.5 -8.5
zM409.5 788.5q8.5 -8.5 8.5 -22.5t-8.5 -23t-23.5 -9q-14 0 -22.5 8.5t-8.5 22.5t9 23t23 9t22.5 -8.5z" />
    <glyph glyph-name="uni01D6" unicode="&#x1d6;" horiz-adv-x="507" 
d="M483 45l-6 -33q-24 -14 -51 -16q-29 2 -45 20t-20 55h-4q-68 -68 -140 -76q-66 0 -101 35t-35 101l1 109l-2 211l52 6l-3 -316q0 -48 22.5 -74.5t65.5 -26.5q72 0 142 75v336l49 6l-2 -368q0 -26 7.5 -37.5t24.5 -11.5q18 0 38 10zM368 716l-3 -32h-218l-5 4l3 33h219z
M201.5 604.5q8.5 -8.5 8.5 -22.5t-9 -23t-23 -9t-22.5 8.5t-8.5 22.5t9 23t23 9t22.5 -8.5zM350.5 604.5q8.5 -8.5 8.5 -22.5t-8.5 -23t-23.5 -9q-14 0 -22.5 8.5t-8.5 22.5t9 23t23 9t22.5 -8.5z" />
    <glyph glyph-name="uni01D7" unicode="&#x1d7;" horiz-adv-x="619" 
d="M539 313v-77q2 -115 -59 -178t-174 -63q-110 0 -168.5 61t-57.5 176v407h51l-2 -402q-1 -96 45 -146t135 -50t135.5 49t45.5 142l-2 407h52zM411 941l9 -32l-4 -7q-83 -26 -197 -55l-7 5l-6 27q110 32 199 66zM260.5 788.5q8.5 -8.5 8.5 -22.5t-9 -23t-23 -9t-22.5 8.5
t-8.5 22.5t9 23t23 9t22.5 -8.5zM409.5 788.5q8.5 -8.5 8.5 -22.5t-8.5 -23t-23.5 -9q-14 0 -22.5 8.5t-8.5 22.5t9 23t23 9t22.5 -8.5z" />
    <glyph glyph-name="uni01D8" unicode="&#x1d8;" horiz-adv-x="507" 
d="M483 45l-6 -33q-24 -14 -51 -16q-29 2 -45 20t-20 55h-4q-68 -68 -140 -76q-66 0 -101 35t-35 101l1 109l-2 211l52 6l-3 -316q0 -48 22.5 -74.5t65.5 -26.5q72 0 142 75v336l49 6l-2 -368q0 -26 7.5 -37.5t24.5 -11.5q18 0 38 10zM351 754l9 -32l-4 -7q-91 -28 -197 -55
l-7 4l-7 28q105 29 200 66zM200 604.5q8 -8.5 8 -22.5t-8.5 -23t-22.5 -9q-15 0 -23 8.5t-8 22.5t8.5 23t23.5 9q14 0 22 -8.5zM349 604.5q8 -8.5 8 -22.5t-8.5 -23t-22.5 -9t-22.5 8.5t-8.5 22.5t9 23t23 9t22 -8.5z" />
    <glyph glyph-name="uni01D9" unicode="&#x1d9;" horiz-adv-x="619" 
d="M539 313v-77q2 -115 -59 -178t-174 -63q-110 0 -168.5 61t-57.5 176v407h51l-2 -402q-1 -96 45 -146t135 -50t135.5 49t45.5 142l-2 407h52zM431 908q-63 -44 -108 -83h-19q-62 50 -109 83l11 25h8l99 -68q48 34 99 68h7zM260.5 788.5q8.5 -8.5 8.5 -22.5t-9 -23t-23 -9
t-22.5 8.5t-8.5 22.5t9 23t23 9t22.5 -8.5zM409.5 788.5q8.5 -8.5 8.5 -22.5t-8.5 -23t-23.5 -9q-14 0 -22.5 8.5t-8.5 22.5t9 23t23 9t22.5 -8.5z" />
    <glyph glyph-name="uni01DA" unicode="&#x1da;" horiz-adv-x="507" 
d="M483 45l-6 -33q-24 -14 -51 -16q-29 2 -45 20t-20 55h-4q-68 -68 -140 -76q-66 0 -101 35t-35 101l1 109l-2 211l52 6l-3 -316q0 -48 22.5 -74.5t65.5 -26.5q72 0 142 75v336l49 6l-2 -368q0 -26 7.5 -37.5t24.5 -11.5q18 0 38 10zM372 724q-63 -44 -108 -83h-19
q-62 50 -109 83l11 25h8l99 -68q48 34 99 68h7zM201.5 604.5q8.5 -8.5 8.5 -22.5t-9 -23t-23 -9t-22.5 8.5t-8.5 22.5t9 23t23 9t22.5 -8.5zM350.5 604.5q8.5 -8.5 8.5 -22.5t-8.5 -23t-23.5 -9q-14 0 -22.5 8.5t-8.5 22.5t9 23t23 9t22.5 -8.5z" />
    <glyph glyph-name="uni01DB" unicode="&#x1db;" horiz-adv-x="619" 
d="M539 313v-77q2 -115 -59 -178t-174 -63q-110 0 -168.5 61t-57.5 176v407h51l-2 -402q-1 -96 45 -146t135 -50t135.5 49t45.5 142l-2 407h52zM420 885l-6 -28l-7 -5q-123 32 -197 55l-4 7l9 32l6 4q99 -38 199 -65zM260.5 788.5q8.5 -8.5 8.5 -22.5t-9 -23t-23 -9
t-22.5 8.5t-8.5 22.5t9 23t23 9t22.5 -8.5zM409.5 788.5q8.5 -8.5 8.5 -22.5t-8.5 -23t-23.5 -9q-14 0 -22.5 8.5t-8.5 22.5t9 23t23 9t22.5 -8.5z" />
    <glyph glyph-name="uni01DC" unicode="&#x1dc;" horiz-adv-x="507" 
d="M483 45l-6 -33q-24 -14 -51 -16q-29 2 -45 20t-20 55h-4q-68 -68 -140 -76q-66 0 -101 35t-35 101l1 109l-2 211l52 6l-3 -316q0 -48 22.5 -74.5t65.5 -26.5q72 0 142 75v336l49 6l-2 -368q0 -26 7.5 -37.5t24.5 -11.5q18 0 38 10zM151 715l-4 7l9 32l6 4q93 -36 199 -66
l-6 -28l-7 -4q-123 32 -197 55zM155.5 558.5q-8.5 8.5 -8.5 22.5t9 23t23 9t22.5 -8.5t8.5 -22.5t-9 -23t-23 -9t-22.5 8.5zM304.5 558.5q-8.5 8.5 -8.5 22.5t9 23t23 9t22.5 -8.5t8.5 -22.5t-8.5 -23t-23.5 -9q-14 0 -22.5 8.5z" />
    <glyph glyph-name="Gcaron" unicode="&#x1e6;" horiz-adv-x="602" 
d="M531 594l-12 -48l-8 -1q-90 54 -170 54q-120 0 -182.5 -72.5t-62.5 -214.5q0 -136 56 -204t166 -68q38 0 71.5 5.5t86.5 20.5l1 93l-1 92l50 4l-1 -90l2 -135q-67 -19 -113.5 -27t-96.5 -9q-135 0 -204.5 82t-69.5 234q0 161 79 247.5t225 86.5q94 0 184 -50zM443 810
q-53 -36 -108 -83h-19q-73 58 -109 83l11 25h8l99 -68q48 34 99 68h7z" />
    <glyph glyph-name="gcaron" unicode="&#x1e7;" horiz-adv-x="480" 
d="M371 406l-1 -3q29 -38 29 -96q0 -72 -45.5 -114.5t-123.5 -42.5q-37 0 -70 11q-23 -17 -31 -27.5t-8 -20.5q0 -22 28.5 -31.5t89.5 -18.5q59 -9 97 -19t65 -32t27 -60q0 -39 -28 -72t-76 -52.5t-104 -19.5q-76 0 -119.5 34.5t-43.5 88.5q10 30 33 53.5t62 46.5v5
q-38 10 -59.5 27.5t-21.5 47.5q13 29 60 60v3q-64 40 -64 128q0 74 45.5 116t123.5 42q55 0 92 -21q84 16 137 31l6 -4v-38q-46 -12 -100 -22zM320 219.5q32 31.5 32 87.5q0 55 -30.5 85t-86.5 30q-57 0 -89 -31t-32 -87q0 -54 31 -85t87 -31t88 31.5zM361 -14
q-20 15 -49.5 22t-79.5 14l-33 5q-46 -25 -70.5 -50t-24.5 -53q0 -33 32 -55.5t89 -22.5q43 0 78.5 13.5t56.5 36.5t21 49t-20 41zM363 641q-51 -54 -112 -130h-21q-64 80 -112 130l16 23h7q56 -58 100 -110q50 60 99 110h7z" />
    <glyph glyph-name="uni01EA" unicode="&#x1ea;" horiz-adv-x="631" 
d="M520 563.5q69 -81.5 69 -232.5q0 -163 -73 -250t-208 -87q-127 0 -196 83.5t-69 238.5q0 158 72.5 243.5t206.5 85.5q129 0 198 -81.5zM152 530q-57 -71 -57 -209q0 -141 55 -213t162 -72q110 0 167 73t57 214q0 138 -55 208t-162 70q-110 0 -167 -71zM317 -180.5
q-20 17.5 -20 48.5q0 20 8 37.5t29 43.5t67 75h38q-37 -44 -62 -74.5t-32.5 -45t-7.5 -28.5q0 -36 39 -36q37 0 76 45h3l13 -30q-45 -53 -97 -53q-34 0 -54 17.5z" />
    <glyph glyph-name="uni01EB" unicode="&#x1eb;" horiz-adv-x="489" 
d="M388.5 401.5q50.5 -60.5 50.5 -168.5q0 -113 -53 -176t-147 -63q-90 0 -140 60.5t-50 167.5q0 113 52.5 176.5t146.5 63.5q90 0 140.5 -60.5zM137 373q-39 -50 -39 -141q0 -96 37.5 -147.5t105.5 -51.5q71 0 110 49.5t39 140.5q0 96 -38 148t-106 52q-70 0 -109 -50z
M225 -177.5q-20 17.5 -20 48.5q0 20 8 37.5t29 43.5t67 75h38q-37 -44 -62 -74.5t-32.5 -45t-7.5 -28.5q0 -36 39 -36q37 0 76 45h3l13 -30q-45 -53 -97 -53q-34 0 -54 17.5z" />
    <glyph glyph-name="Aringacute" unicode="&#x1fa;" horiz-adv-x="567" 
d="M211 782l-6 28q115 35 198 67l7 -4l9 -32l-4 -6q-64 -21 -197 -57zM542 0h-54l-14 54l-48 137l-152 2l-137 -2l-52 -135l-15 -56h-54l238 616q-19 9 -30 27t-11 43q0 34 21 55t56 21q37 0 57.5 -22t20.5 -54q0 -25 -12 -43t-32 -27zM254.5 719.5q-12.5 -12.5 -12.5 -33.5
q0 -23 13.5 -35.5t34.5 -12.5t34.5 12.5t13.5 34.5q0 21 -12.5 34t-36.5 13q-22 0 -34.5 -12.5zM410 237l-119 339h-6l-130 -339l125 -1z" />
    <glyph glyph-name="aringacute" unicode="&#x1fb;" horiz-adv-x="453" 
d="M319 431q34 -31 34 -86q0 -21 -2 -55.5t-3 -73.5q-6 -114 -6 -129q0 -26 7.5 -36.5t25.5 -10.5t38 10l7 -5l-6 -33q-24 -15 -51 -16q-60 2 -63 75h-5q-57 -65 -118 -77q-60 0 -94 31.5t-34 87.5q0 81 88 101l166 39l2 81q0 43 -23 65.5t-65 22.5q-64 0 -140 -65l-6 3
l-8 37q82 65 161 65q61 0 95 -31zM147 179q-51 -12 -51 -60q0 -38 21 -59.5t58 -21.5q30 0 61.5 21t61.5 60l4 97zM272.5 661.5q20.5 -21.5 20.5 -53.5q0 -36 -23 -57t-55 -21q-33 0 -55 20.5t-22 56.5q0 34 21 55t57 21t56.5 -21.5zM180.5 641q-12.5 -12 -12.5 -33
q0 -23 13 -35.5t34 -12.5t35 12t14 34q0 21 -12.5 34t-36.5 13q-22 0 -34.5 -12zM336.025 795.443l8.77148 -31.9268l-3.14648 -6.56641q-95.4658 -30.4268 -198.316 -56.5537l-6.39844 4.13184l-6.48438 27.4795q116.359 33.9746 199.008 66.582z" />
    <glyph glyph-name="AEacute" unicode="&#x1fc;" horiz-adv-x="800" 
d="M780 41l-6 -41h-327l-5 54l-35 220l-250 -50l-93 -168l-23 -56h-56l352 639h339l4 -6l-6 -41l-164 3h-102l42 -269l225 42l5 -4v-39l-223 -41l37 -240h118l164 3zM400 316l-42 263h-4l-169 -304zM605 849l14 -30l-2 -7q-89 -46 -186 -89l-7 3l-11 26q109 53 185 99z" />
    <glyph glyph-name="aeacute" unicode="&#x1fd;" horiz-adv-x="671" 
d="M630 279l-290 -57q2 -90 39 -138.5t105 -48.5q34 0 68 12t60 34l7 -4l-6 -43q-29 -19 -64 -29.5t-69 -10.5q-55 0 -95.5 27t-62.5 77q-37 -46 -71.5 -71t-74.5 -33q-61 0 -96 32.5t-35 87.5q0 85 88 102l165 33v85q0 43 -22 65.5t-63 22.5q-62 0 -139 -65l-7 3l-8 37
q82 65 160 65q49 0 78.5 -23.5t36.5 -65.5q54 88 150 88q70 0 111 -45t42 -128zM409 402q-32 -21 -50.5 -56.5t-18.5 -76.5v-12l249 52q-4 53 -33.5 83.5t-75.5 30.5q-39 0 -71 -21zM235 60q30 21 72 71q-8 39 -9 82l-148 -31q-31 -7 -44.5 -22.5t-13.5 -41.5q0 -37 22 -58
t59 -21q32 0 62 21zM440 683l21 -27l-1 -7q-48 -41 -158 -131l-7 1l-17 24q77 63 156 141z" />
    <glyph glyph-name="Oslashacute" unicode="&#x1fe;" horiz-adv-x="631" 
d="M558 501.5q31 -70.5 31 -170.5q0 -163 -73 -250t-208 -87q-63 0 -115 22l-52 -111l-34 11l-3 5l53 115q-56 38 -85 109t-29 171q0 158 72.5 243.5t206.5 85.5q63 0 110 -19l42 91l33 -11l3 -7l-42 -91q59 -36 90 -106.5zM178 79l234 505q-42 17 -93 17q-110 0 -167 -71
t-57 -209q0 -173 83 -242zM479 109q57 73 57 214q0 176 -89 241l-235 -507q42 -21 100 -21q110 0 167 73zM424 849l14 -30l-2 -7q-89 -46 -186 -89l-7 3l-11 26q109 53 185 99z" />
    <glyph glyph-name="oslashacute" unicode="&#x1ff;" horiz-adv-x="489" 
d="M418.5 350.5q20.5 -49.5 20.5 -117.5q0 -113 -53 -176t-147 -63q-43 0 -77 14l-57 -120l-31 12l-3 6l57 121q-38 28 -58.5 77.5t-20.5 117.5q0 113 52.5 176.5t146.5 63.5q45 0 79 -15l45 94l29 -11l4 -7l-45 -95q38 -28 58.5 -77.5zM148 69l161 340q-28 14 -63 14
q-70 0 -109 -50t-39 -141q0 -111 50 -163zM351 82.5q39 49.5 39 140.5q0 110 -50 162l-160 -339q29 -13 61 -13q71 0 110 49.5zM344 683l21 -27l-1 -7q-48 -41 -158 -131l-7 1l-17 24q77 63 156 141z" />
    <glyph glyph-name="uni0200" unicode="&#x200;" horiz-adv-x="567" 
d="M542 0h-54l-14 54l-48 138l-152 2l-137 -2l-52 -136l-15 -56h-54l244 639h59zM410 238l-119 341h-6l-130 -341l125 -1zM230 720h-7l-30 27q-73 68 -86 81v7l24 18h7q36 -39 111 -114zM366 720h-6l-30 27q-73 68 -86 81v7l24 18h7q36 -39 111 -114z" />
    <glyph glyph-name="uni0201" unicode="&#x201;" horiz-adv-x="453" 
d="M319 431q34 -31 34 -86q0 -21 -2 -55.5t-3 -73.5q-6 -114 -6 -129q0 -26 7.5 -36.5t25.5 -10.5t38 10l7 -5l-6 -33q-24 -15 -51 -16q-60 2 -63 75h-5q-57 -65 -118 -77q-60 0 -94 31.5t-34 87.5q0 81 88 101l166 39l2 81q0 43 -23 65.5t-65 22.5q-64 0 -140 -65l-6 3
l-8 37q82 65 161 65q61 0 95 -31zM147 179q-51 -12 -51 -60q0 -38 21 -59.5t58 -21.5q30 0 61.5 21t61.5 60l4 97zM76 683h-7l-24 -19v-7q57 -58 145 -139h6l19 19q-76 76 -139 146zM212 683h-7l-24 -19l1 -7q66 -67 144 -139h7l19 19q-73 71 -140 146z" />
    <glyph glyph-name="uni0202" unicode="&#x202;" horiz-adv-x="567" 
d="M542 0h-54l-14 54l-48 138l-152 2l-137 -2l-52 -136l-15 -56h-54l244 639h59zM410 238l-119 341h-6l-130 -341l125 -1zM169 741q23 111 116 111t113 -111l-17 -21h-9q-16 92 -88 92t-88 -92h-9z" />
    <glyph glyph-name="uni0203" unicode="&#x203;" horiz-adv-x="453" 
d="M319 431q34 -31 34 -86q0 -21 -2 -55.5t-3 -73.5q-6 -114 -6 -129q0 -26 7.5 -36.5t25.5 -10.5t38 10l7 -5l-6 -33q-24 -15 -51 -16q-60 2 -63 75h-5q-57 -65 -118 -77q-60 0 -94 31.5t-34 87.5q0 81 88 101l166 39l2 81q0 43 -23 65.5t-65 22.5q-64 0 -140 -65l-6 3
l-8 37q82 65 161 65q61 0 95 -31zM147 179q-51 -12 -51 -60q0 -38 21 -59.5t58 -21.5q30 0 61.5 21t61.5 60l4 97zM102 557q23 111 116 111t113 -111l-17 -21h-9q-16 92 -88 92t-88 -92h-9z" />
    <glyph glyph-name="uni0204" unicode="&#x204;" horiz-adv-x="469" 
d="M443 41l-5 -41h-337l3 194l-3 445h336l4 -6l-6 -41l-149 2l-132 -1l-2 -241l125 -1l107 1l4 -5l-5 -41l-231 1l-1 -110l2 -152l129 -1l157 3zM216 720h-7l-30 27q-73 68 -86 81v7l24 18h7q36 -39 111 -114zM352 720h-6l-30 27q-73 68 -86 81v7l24 18h7q36 -39 111 -114z
" />
    <glyph glyph-name="uni0205" unicode="&#x205;" horiz-adv-x="454" 
d="M362.5 417.5q41.5 -44.5 41.5 -124.5q0 -20 -3 -41l-8 -9l-296 -2v-15q0 -89 40.5 -139t113.5 -50q36 0 71 11.5t62 31.5l7 -4l-7 -45q-65 -37 -139 -37q-91 0 -143.5 61.5t-52.5 168.5q0 72 24 126t69 83t104 29q75 0 116.5 -44.5zM356 300q0 58 -29 90.5t-82 32.5
q-57 0 -95 -38.5t-49 -105.5l253 4zM93 683h-7l-24 -19v-7q57 -58 145 -139h6l19 19q-76 76 -139 146zM229 683h-7l-24 -19l1 -7q66 -67 144 -139h7l19 19q-73 71 -140 146z" />
    <glyph glyph-name="uni0206" unicode="&#x206;" horiz-adv-x="469" 
d="M443 41l-5 -41h-337l3 194l-3 445h336l4 -6l-6 -41l-149 2l-132 -1l-2 -241l125 -1l107 1l4 -5l-5 -41l-231 1l-1 -110l2 -152l129 -1l157 3zM155 741q23 111 116 111t113 -111l-17 -21h-9q-16 92 -88 92t-88 -92h-9z" />
    <glyph glyph-name="uni0207" unicode="&#x207;" horiz-adv-x="454" 
d="M362.5 417.5q41.5 -44.5 41.5 -124.5q0 -20 -3 -41l-8 -9l-296 -2v-15q0 -89 40.5 -139t113.5 -50q36 0 71 11.5t62 31.5l7 -4l-7 -45q-65 -37 -139 -37q-91 0 -143.5 61.5t-52.5 168.5q0 72 24 126t69 83t104 29q75 0 116.5 -44.5zM356 300q0 58 -29 90.5t-82 32.5
q-57 0 -95 -38.5t-49 -105.5l253 4zM119 557q23 111 116 111t113 -111l-17 -21h-9q-16 92 -88 92t-88 -92h-9z" />
    <glyph glyph-name="uni0208" unicode="&#x208;" horiz-adv-x="255" 
d="M151 197l2 -197h-52l3 194l-3 445h53zM73 720h-7l-30 27q-73 68 -86 81v7l24 18h7q36 -39 111 -114zM209 720h-6l-30 27q-73 68 -86 81v7l24 18h7q36 -39 111 -114z" />
    <glyph glyph-name="uni0209" unicode="&#x209;" horiz-adv-x="233" 
d="M92 195l-1 256l50 6l-1 -259l1 -198h-51zM-25 683h-7l-24 -19v-7q57 -58 145 -139h6l19 19q-76 76 -139 146zM111 683h-7l-24 -19l1 -7q66 -67 144 -139h7l19 19q-73 71 -140 146z" />
    <glyph glyph-name="uni020A" unicode="&#x20a;" horiz-adv-x="255" 
d="M151 197l2 -197h-52l3 194l-3 445h53zM12 741q23 111 116 111t113 -111l-17 -21h-9q-16 92 -88 92t-88 -92h-9z" />
    <glyph glyph-name="uni020B" unicode="&#x20b;" horiz-adv-x="233" 
d="M92 195l-1 256l50 6l-1 -259l1 -198h-51zM1 557q23 111 116 111t113 -111l-17 -21h-9q-16 92 -88 92t-88 -92h-9z" />
    <glyph glyph-name="uni020C" unicode="&#x20c;" horiz-adv-x="631" 
d="M520 563.5q69 -81.5 69 -232.5q0 -163 -73 -250t-208 -87q-127 0 -196 83.5t-69 238.5q0 158 72.5 243.5t206.5 85.5q129 0 198 -81.5zM152 530q-57 -71 -57 -209q0 -141 55 -213t162 -72q110 0 167 73t57 214q0 138 -55 208t-162 70q-110 0 -167 -71zM262 720h-7l-30 27
q-73 68 -86 81v7l24 18h7q36 -39 111 -114zM398 720h-6l-30 27q-73 68 -86 81v7l24 18h7q36 -39 111 -114z" />
    <glyph glyph-name="uni020D" unicode="&#x20d;" horiz-adv-x="489" 
d="M388.5 401.5q50.5 -60.5 50.5 -168.5q0 -113 -53 -176t-147 -63q-90 0 -140 60.5t-50 167.5q0 113 52.5 176.5t146.5 63.5q90 0 140.5 -60.5zM137 373q-39 -50 -39 -141q0 -96 37.5 -147.5t105.5 -51.5q71 0 110 49.5t39 140.5q0 96 -38 148t-106 52q-70 0 -109 -50z
M103 683h-7l-24 -19v-7q57 -58 145 -139h6l19 19q-76 76 -139 146zM239 683h-7l-24 -19l1 -7q66 -67 144 -139h7l19 19q-73 71 -140 146z" />
    <glyph glyph-name="uni020E" unicode="&#x20e;" horiz-adv-x="631" 
d="M520 563.5q69 -81.5 69 -232.5q0 -163 -73 -250t-208 -87q-127 0 -196 83.5t-69 238.5q0 158 72.5 243.5t206.5 85.5q129 0 198 -81.5zM152 530q-57 -71 -57 -209q0 -141 55 -213t162 -72q110 0 167 73t57 214q0 138 -55 208t-162 70q-110 0 -167 -71zM201 741
q23 111 116 111t113 -111l-17 -21h-9q-16 92 -88 92t-88 -92h-9z" />
    <glyph glyph-name="uni020F" unicode="&#x20f;" horiz-adv-x="489" 
d="M388.5 401.5q50.5 -60.5 50.5 -168.5q0 -113 -53 -176t-147 -63q-90 0 -140 60.5t-50 167.5q0 113 52.5 176.5t146.5 63.5q90 0 140.5 -60.5zM137 373q-39 -50 -39 -141q0 -96 37.5 -147.5t105.5 -51.5q71 0 110 49.5t39 140.5q0 96 -38 148t-106 52q-70 0 -109 -50z
M129 557q23 111 116 111t113 -111l-17 -21h-9q-16 92 -88 92t-88 -92h-9z" />
    <glyph glyph-name="uni0210" unicode="&#x210;" horiz-adv-x="538" 
d="M494 12v-7q-16 -8 -45 -13l-8 4q-97 139 -164 254h-126v-53l2 -197h-52l3 194l-3 445l170 1q91 0 140 -46t49 -133q0 -70 -36 -121.5t-103 -77.5q75 -121 173 -250zM152 296l130 -2q61 17 93 58.5t32 105.5q0 67 -36.5 101.5t-105.5 36.5l-111 -2zM215 720h-7l-30 27
q-73 68 -86 81v7l24 18h7q36 -39 111 -114zM351 720h-6l-30 27q-73 68 -86 81v7l24 18h7q36 -39 111 -114z" />
    <glyph glyph-name="uni0211" unicode="&#x211;" horiz-adv-x="311" 
d="M302 454v-50l-7 -2q-18 3 -32 3q-34 0 -64 -28.5t-61 -92.5v-86l3 -198h-52l3 195l-2 256l49 6v-102h5q57 101 132 101q12 0 26 -2zM49 683h-7l-24 -19v-7q57 -58 145 -139h6l19 19q-76 76 -139 146zM185 683h-7l-24 -19l1 -7q66 -67 144 -139h7l19 19q-73 71 -140 146z
" />
    <glyph glyph-name="uni0212" unicode="&#x212;" horiz-adv-x="538" 
d="M494 12v-7q-16 -8 -45 -13l-8 4q-97 139 -164 254h-126v-53l2 -197h-52l3 194l-3 445l170 1q91 0 140 -46t49 -133q0 -70 -36 -121.5t-103 -77.5q75 -121 173 -250zM152 296l130 -2q61 17 93 58.5t32 105.5q0 67 -36.5 101.5t-105.5 36.5l-111 -2zM154 741
q23 111 116 111t113 -111l-17 -21h-9q-16 92 -88 92t-88 -92h-9z" />
    <glyph glyph-name="uni0213" unicode="&#x213;" horiz-adv-x="311" 
d="M302 454v-50l-7 -2q-18 3 -32 3q-34 0 -64 -28.5t-61 -92.5v-86l3 -198h-52l3 195l-2 256l49 6v-102h5q57 101 132 101q12 0 26 -2zM75 557q23 111 116 111t113 -111l-17 -21h-9q-16 92 -88 92t-88 -92h-9z" />
    <glyph glyph-name="uni0214" unicode="&#x214;" horiz-adv-x="619" 
d="M539 313v-77q2 -115 -59 -178t-174 -63q-110 0 -168.5 61t-57.5 176v407h51l-2 -402q-1 -96 45 -146t135 -50t135.5 49t45.5 142l-2 407h52zM259 720h-7l-30 27q-73 68 -86 81v7l24 18h7q36 -39 111 -114zM395 720h-6l-30 27q-73 68 -86 81v7l24 18h7q36 -39 111 -114z
" />
    <glyph glyph-name="uni0215" unicode="&#x215;" horiz-adv-x="507" 
d="M483 45l-6 -33q-24 -14 -51 -16q-29 2 -45 20t-20 55h-4q-68 -68 -140 -76q-66 0 -101 35t-35 101l1 109l-2 211l52 6l-3 -316q0 -48 22.5 -74.5t65.5 -26.5q72 0 142 75v336l49 6l-2 -368q0 -26 7.5 -37.5t24.5 -11.5q18 0 38 10zM113 683h-7l-24 -19v-7
q57 -58 145 -139h6l19 19q-76 76 -139 146zM249 683h-7l-24 -19l1 -7q66 -67 144 -139h7l19 19q-73 71 -140 146z" />
    <glyph glyph-name="uni0216" unicode="&#x216;" horiz-adv-x="619" 
d="M539 313v-77q2 -115 -59 -178t-174 -63q-110 0 -168.5 61t-57.5 176v407h51l-2 -402q-1 -96 45 -146t135 -50t135.5 49t45.5 142l-2 407h52zM198 741q23 111 116 111t113 -111l-17 -21h-9q-16 92 -88 92t-88 -92h-9z" />
    <glyph glyph-name="uni0217" unicode="&#x217;" horiz-adv-x="507" 
d="M483 45l-6 -33q-24 -14 -51 -16q-29 2 -45 20t-20 55h-4q-68 -68 -140 -76q-66 0 -101 35t-35 101l1 109l-2 211l52 6l-3 -316q0 -48 22.5 -74.5t65.5 -26.5q72 0 142 75v336l49 6l-2 -368q0 -26 7.5 -37.5t24.5 -11.5q18 0 38 10zM139 557q23 111 116 111t113 -111
l-17 -21h-9q-16 92 -88 92t-88 -92h-9z" />
    <glyph glyph-name="Scommaaccent" unicode="&#x218;" horiz-adv-x="459" 
d="M390 613l-9 -48l-10 -3q-28 18 -59.5 27.5t-60.5 9.5q-42 0 -73.5 -17.5t-48 -45.5t-16.5 -57q0 -31 18 -54t44.5 -39.5t71.5 -37.5q53 -26 85.5 -46.5t55.5 -53t23 -78.5q0 -47 -25.5 -87.5t-72 -64t-104.5 -23.5q-41 0 -84 11.5t-78 33.5l6 53l7 3q33 -29 74 -43.5
t79 -14.5q44 0 77 18t51 47t18 61q0 33 -18.5 57.5t-45 40.5t-73.5 39q-52 25 -84 45t-54 52t-22 77q0 46 24.5 84.5t69 61t101.5 22.5q66 0 133 -30zM270 -117q0 -52 -78 -110l-18 17v5q53 39 53 80q0 23 -30 40v5q17 14 35 20q38 -24 38 -57z" />
    <glyph glyph-name="scommaaccent" unicode="&#x219;" horiz-adv-x="364" 
d="M302 439l-8 -43l-9 -2q-47 27 -91 27q-41 0 -67 -23t-26 -56q0 -32 24 -50.5t73 -40.5q40 -19 62.5 -33t39 -37t16.5 -56q0 -35 -18.5 -65t-53.5 -48t-81 -18q-67 0 -125 33l7 45l7 4q25 -21 55.5 -32t58.5 -11q46 0 74 25t28 59q0 31 -23 49.5t-72 41.5q-39 18 -63 33
t-40.5 39t-16.5 58q0 53 40 87.5t106 34.5q53 0 103 -21zM215 -117q0 -52 -78 -110l-18 17v5q53 39 53 80q0 23 -30 40v5q17 14 35 20q38 -24 38 -57z" />
    <glyph glyph-name="uni021A" unicode="&#x21a;" horiz-adv-x="483" 
d="M459 633l-5 -40l-107 3h-78l-3 -399l2 -197h-52l3 194l-3 402h-78l-109 -3l-4 6l5 40h424zM283 -117q0 -52 -78 -110l-18 17v5q53 39 53 80q0 23 -30 40v5q17 14 35 20q38 -24 38 -57z" />
    <glyph glyph-name="uni021B" unicode="&#x21b;" horiz-adv-x="309" 
d="M288 63l6 -5l-5 -36q-50 -26 -90 -27q-52 6 -77 36.5t-25 87.5l2 90l-1 208h-62l-4 5l4 32h62v91l44 18l6 -5l-1 -104h145l4 -5l-4 -32h-145l-3 -293q0 -43 17 -63.5t52 -20.5t75 23zM248 -117q0 -52 -78 -110l-18 17v5q53 39 53 80q0 23 -30 40v5q17 14 35 20
q38 -24 38 -57z" />
    <glyph glyph-name="uni022A" unicode="&#x22a;" horiz-adv-x="631" 
d="M520 563.5q69 -81.5 69 -232.5q0 -163 -73 -250t-208 -87q-127 0 -196 83.5t-69 238.5q0 158 72.5 243.5t206.5 85.5q129 0 198 -81.5zM152 530q-57 -71 -57 -209q0 -141 55 -213t162 -72q110 0 167 73t57 214q0 138 -55 208t-162 70q-110 0 -167 -71zM430 900l-3 -32
h-218l-5 4l3 33h219zM263.5 788.5q8.5 -8.5 8.5 -22.5t-9 -23t-23 -9t-22.5 8.5t-8.5 22.5t9 23t23 9t22.5 -8.5zM412.5 788.5q8.5 -8.5 8.5 -22.5t-8.5 -23t-23.5 -9q-14 0 -22.5 8.5t-8.5 22.5t9 23t23 9t22.5 -8.5z" />
    <glyph glyph-name="uni022B" unicode="&#x22b;" horiz-adv-x="489" 
d="M388.5 401.5q50.5 -60.5 50.5 -168.5q0 -113 -53 -176t-147 -63q-90 0 -140 60.5t-50 167.5q0 113 52.5 176.5t146.5 63.5q90 0 140.5 -60.5zM137 373q-39 -50 -39 -141q0 -96 37.5 -147.5t105.5 -51.5q71 0 110 49.5t39 140.5q0 96 -38 148t-106 52q-70 0 -109 -50z
M358 716l-3 -32h-218l-5 4l3 33h219zM191.5 604.5q8.5 -8.5 8.5 -22.5t-9 -23t-23 -9t-22.5 8.5t-8.5 22.5t9 23t23 9t22.5 -8.5zM340.5 604.5q8.5 -8.5 8.5 -22.5t-8.5 -23t-23.5 -9q-14 0 -22.5 8.5t-8.5 22.5t9 23t23 9t22.5 -8.5z" />
    <glyph glyph-name="uni022C" unicode="&#x22c;" horiz-adv-x="631" 
d="M520 563.5q69 -81.5 69 -232.5q0 -163 -73 -250t-208 -87q-127 0 -196 83.5t-69 238.5q0 158 72.5 243.5t206.5 85.5q129 0 198 -81.5zM152 530q-57 -71 -57 -209q0 -141 55 -213t162 -72q110 0 167 73t57 214q0 138 -55 208t-162 70q-110 0 -167 -71zM448 795v-6
l-52 -59l-7 -2q-20 2 -73 20q-49 17 -62 17q-5 0 -12.5 -6t-12.5 -11.5t-7 -8.5l-16 -17h-5l-18 18v6l52 58l8 3q20 -2 73 -20q49 -17 61 -17q7 0 14 6.5t20 20.5q4 5 15 16h5zM426 912l-4 -33h-211l-5 5l3 32h212z" />
    <glyph glyph-name="uni022D" unicode="&#x22d;" horiz-adv-x="489" 
d="M388.5 401.5q50.5 -60.5 50.5 -168.5q0 -113 -53 -176t-147 -63q-90 0 -140 60.5t-50 167.5q0 113 52.5 176.5t146.5 63.5q90 0 140.5 -60.5zM137 373q-39 -50 -39 -141q0 -96 37.5 -147.5t105.5 -51.5q71 0 110 49.5t39 140.5q0 96 -38 148t-106 52q-70 0 -109 -50z
M376 611v-6l-52 -59l-7 -2q-20 2 -73 20q-49 17 -62 17q-5 0 -12.5 -6t-12.5 -11.5t-7 -8.5l-16 -17h-5l-18 18v6l52 58l8 3q20 -2 73 -20q49 -17 61 -17q7 0 14 6.5t20 20.5q4 5 15 16h5zM354 728l-4 -33h-211l-5 5l3 32h212z" />
    <glyph glyph-name="uni0230" unicode="&#x230;" horiz-adv-x="631" 
d="M520 563.5q69 -81.5 69 -232.5q0 -163 -73 -250t-208 -87q-127 0 -196 83.5t-69 238.5q0 158 72.5 243.5t206.5 85.5q129 0 198 -81.5zM152 530q-57 -71 -57 -209q0 -141 55 -213t162 -72q110 0 167 73t57 214q0 138 -55 208t-162 70q-110 0 -167 -71zM341.5 792
q8.5 -9 8.5 -24q0 -16 -9 -25.5t-25 -9.5t-24.5 8.5t-8.5 24.5t9 25.5t25 9.5t24.5 -9zM426 884l-4 -33h-211l-5 5l3 32h212z" />
    <glyph glyph-name="uni0231" unicode="&#x231;" horiz-adv-x="489" 
d="M388.5 401.5q50.5 -60.5 50.5 -168.5q0 -113 -53 -176t-147 -63q-90 0 -140 60.5t-50 167.5q0 113 52.5 176.5t146.5 63.5q90 0 140.5 -60.5zM137 373q-39 -50 -39 -141q0 -96 37.5 -147.5t105.5 -51.5q71 0 110 49.5t39 140.5q0 96 -38 148t-106 52q-70 0 -109 -50z
M269.5 608q8.5 -9 8.5 -24q0 -16 -9 -25.5t-25 -9.5t-24.5 8.5t-8.5 24.5t9 25.5t25 9.5t24.5 -9zM354 700l-4 -33h-211l-5 5l3 32h212z" />
    <glyph glyph-name="uni0232" unicode="&#x232;" horiz-adv-x="512" 
d="M271 191l2 -191h-52l2 191l-1 45l-202 403h58l12 -31l156 -310h6l170 309l13 32h57l-220 -401zM395 801l-3 -33h-285l-4 5l2 32h286z" />
    <glyph glyph-name="uni0233" unicode="&#x233;" horiz-adv-x="417" 
d="M78 405l124 -342h6l129 339l15 53h49l-170 -446q-26 -68 -53.5 -106t-66 -58.5t-101.5 -34.5h-6q-14 13 -21 30l1 8q55 10 89 26t59 45t49 81l-167 453l49 5zM357 617l-3 -33h-285l-4 5l2 32h286z" />
    <glyph glyph-name="uni0237" unicode="&#x237;" horiz-adv-x="245" 
d="M156 455l-3 -257l2 -182q0 -78 -25.5 -123t-91.5 -86l-20 24v7q50 35 69.5 72.5t19.5 101.5l1 183l-2 222h-89l-5 6l4 31h89l49 3z" />
    <glyph glyph-name="uni0259" unicode="&#x259;" horiz-adv-x="454" 
d="M352.5 399.5q52.5 -61.5 52.5 -168.5q0 -72 -24 -126t-69 -83t-104 -29q-75 0 -116.5 44.5t-41.5 124.5q0 20 3 41l8 9l296 2v15q0 89 -40.5 139t-113.5 50q-36 0 -71 -11.5t-62 -31.5l-7 4l7 45q65 37 139 37q91 0 143.5 -61.5zM304 70.5q38 38.5 49 105.5l-253 -4
l-2 -17q0 -58 29 -90.5t82 -32.5q57 0 95 38.5z" />
    <glyph glyph-name="uni02B0" unicode="&#x2b0;" horiz-adv-x="344" 
d="M291 473l1 -129h-48l4 196q0 32 -16 48.5t-45 16.5q-19 0 -40 -10.5t-40 -31.5l-1 -89l2 -130h-49l2 126l-1 326l48 4l-1 -207h2q48 51 93 51q44 0 67.5 -22.5t23.5 -64.5z" />
    <glyph glyph-name="uni02B2" unicode="&#x2b2;" horiz-adv-x="169" 
d="M89.5 766.5q6.5 -7.5 6.5 -21.5q0 -13 -7.5 -21t-20.5 -8q-12 0 -19.5 7.5t-7.5 20.5q0 14 8 22t21 8t19.5 -7.5zM97 642l-3 -168l2 -118q0 -51 -16.5 -81.5t-55.5 -56.5l-19 22v6q26 20 36 43.5t10 63.5v250l-46 -1l-3 5l3 33h45l45 3z" />
    <glyph glyph-name="uni02B7" unicode="&#x2b7;" horiz-adv-x="436" 
d="M66 606l57 -209h3l66 206l9 39h49l7 -36l57 -208h3l66 205l10 39h43l-99 -298h-47l-65 234h-5l-74 -234h-49l-84 296l45 4z" />
    <glyph glyph-name="uni02B8" unicode="&#x2b8;" horiz-adv-x="259" 
d="M48 606l74 -208h5l76 204l10 40h43l-107 -289q-24 -63 -54 -90t-90 -44h-5q-13 13 -21 29l1 7q47 9 73.5 27.5t48.5 61.5l-110 296l47 4z" />
    <glyph glyph-name="uni02B9" unicode="&#x2b9;" horiz-adv-x="147" 
d="M103 631l-19 -164l-29 -4l-5 5l8 165l40 4z" />
    <glyph glyph-name="uni02BB" unicode="&#x2bb;" horiz-adv-x="147" 
d="M32 521q0 54 64 119l22 -16l1 -6q-43 -44 -43 -83q0 -35 38 -48v-6q-9 -10 -30 -26q-52 18 -52 66z" />
    <glyph glyph-name="uni02BC" unicode="&#x2bc;" horiz-adv-x="147" 
d="M118 573q0 -54 -64 -119l-22 16l-1 6q43 44 43 83q0 35 -38 48v6q6 7 30 25q52 -16 52 -65z" />
    <glyph glyph-name="uni02BE" unicode="&#x2be;" horiz-adv-x="279" 
d="M95 505q26 -1 40 11.5t14 34.5q0 23 -14 35.5t-40 12.5v32q40 0 62.5 -20.5t22.5 -58.5q0 -36 -23 -57.5t-62 -21.5v32z" />
    <glyph glyph-name="uni02BF" unicode="&#x2bf;" horiz-adv-x="241" 
d="M165 599q-25 1 -40 -11.5t-15 -34.5q0 -23 14.5 -35.5t40.5 -12.5v-32q-41 0 -63.5 20.5t-22.5 57.5q0 36 23.5 58t62.5 22v-32z" />
    <glyph glyph-name="circumflex" unicode="&#x2c6;" horiz-adv-x="390" 
d="M73 544q51 54 112 130h21q64 -80 112 -130l-16 -23h-7q-56 58 -100 110q-50 -60 -99 -110h-7z" />
    <glyph glyph-name="caron" unicode="&#x2c7;" horiz-adv-x="390" 
d="M317 651q-51 -54 -112 -130h-21q-64 80 -112 130l16 23h7q56 -58 100 -110q50 60 99 110h7z" />
    <glyph glyph-name="uni02C8" unicode="&#x2c8;" horiz-adv-x="260" 
d="M92 637h41v-172h-41v172z" />
    <glyph glyph-name="uni02C9" unicode="&#x2c9;" horiz-adv-x="390" 
d="M341 617l-3 -33h-285l-4 5l2 32h286z" />
    <glyph glyph-name="uni02CA" unicode="&#x2ca;" horiz-adv-x="390" 
d="M266 683l21 -27l-1 -7q-48 -41 -158 -131l-7 1l-17 24q77 63 156 141z" />
    <glyph glyph-name="uni02CB" unicode="&#x2cb;" horiz-adv-x="390" 
d="M287 543l-17 -24l-7 -1q-88 70 -158 131l-2 7l21 27l7 1q71 -71 156 -141z" />
    <glyph glyph-name="uni02CC" unicode="&#x2cc;" horiz-adv-x="226" 
d="M92 -59h41v-171h-41v171z" />
    <glyph glyph-name="breve" unicode="&#x2d8;" horiz-adv-x="390" 
d="M310 635q-23 -111 -116 -111t-113 111l17 21h9q16 -92 88 -92t88 92h9z" />
    <glyph glyph-name="dotaccent" unicode="&#x2d9;" horiz-adv-x="238" 
d="M143.5 639q8.5 -9 8.5 -24q0 -16 -9 -25.5t-25 -9.5t-24.5 8.5t-8.5 24.5t9 25.5t25 9.5t24.5 -9z" />
    <glyph glyph-name="ring" unicode="&#x2da;" horiz-adv-x="390" 
d="M250.5 661.5q20.5 -21.5 20.5 -53.5q0 -36 -23 -57t-55 -21q-33 0 -55 20.5t-22 56.5q0 34 21 55t57 21t56.5 -21.5zM158.5 641q-12.5 -12 -12.5 -33q0 -23 13 -35.5t34 -12.5t35 12t14 34q0 21 -12.5 34t-36.5 13q-22 0 -34.5 -12z" />
    <glyph glyph-name="ogonek" unicode="&#x2db;" horiz-adv-x="286" 
d="M82 -179.5q-20 17.5 -20 48.5q0 20 8 37.5t29 43.5t67 75h38q-37 -44 -62 -74.5t-32.5 -45t-7.5 -28.5q0 -36 39 -36q37 0 76 45h3l13 -30q-45 -53 -97 -53q-34 0 -54 17.5z" />
    <glyph glyph-name="tilde" unicode="&#x2dc;" horiz-adv-x="390" 
d="M344 632v-6l-57 -59l-8 -3q-21 2 -80 20q-64 18 -76 18q-6 0 -14.5 -6.5t-17.5 -16.5l-22 -21h-6l-17 18v6l57 59l8 2q23 -2 84 -20q57 -17 71 -17q7 0 15 6t21 19l19 19h5z" />
    <glyph glyph-name="hungarumlaut" unicode="&#x2dd;" horiz-adv-x="390" 
d="M181 683h6l24 -19v-7q-66 -67 -144 -139h-7l-19 19q73 71 140 146zM317 683h7l24 -19l-1 -7q-66 -67 -144 -139h-7l-19 19q73 71 140 146z" />
    <glyph glyph-name="uni02E1" unicode="&#x2e1;" horiz-adv-x="158" 
d="M106 474l1 -130h-48l2 126l-1 326l47 4z" />
    <glyph glyph-name="uni02E2" unicode="&#x2e2;" horiz-adv-x="252" 
d="M208 632l-7 -36l-7 -3q-34 19 -62 19q-25 0 -40 -13.5t-15 -33.5q0 -17 14 -27.5t45 -24.5q40 -19 60.5 -36.5t20.5 -50.5q0 -36 -28.5 -62t-78.5 -26q-45 0 -84 21l6 38l5 4q18 -14 38.5 -21.5t38.5 -7.5q28 0 44.5 14.5t16.5 33.5t-15 30t-46 25q-39 18 -59 35.5
t-20 48.5q0 39 27.5 62.5t74.5 23.5q36 0 71 -13z" />
    <glyph glyph-name="uni02E3" unicode="&#x2e3;" horiz-adv-x="283" 
d="M83 616l61 -91l60 90l15 26h45l-95 -146l98 -149l-52 -5l-15 31l-63 95l-66 -98l-13 -25h-46l98 152l-93 143l53 5z" />
    <glyph glyph-name="gravecomb" unicode="&#x300;" 
d="M-103 543l-17 -24l-7 -1q-88 70 -158 131l-2 7l21 27l7 1q71 -71 156 -141z" />
    <glyph glyph-name="acutecomb" unicode="&#x301;" 
d="M-124 683l21 -27l-1 -7q-48 -41 -158 -131l-7 1l-17 24q77 63 156 141z" />
    <glyph glyph-name="uni0302" unicode="&#x302;" 
d="M-317 544q51 54 112 130h21q64 -80 112 -130l-16 -23h-7q-56 58 -100 110q-50 -60 -99 -110h-7z" />
    <glyph glyph-name="tildecomb" unicode="&#x303;" 
d="M-46 631v-6l-58 -59l-8 -2q-19 2 -83 21q-57 17 -72 17q-6 0 -14.5 -6.5t-17.5 -16.5l-22 -21h-6l-16 18v6l58 59l7 2q17 -2 47 -10.5t36 -10.5q59 -17 72 -17q6 0 15 7.5t19 17.5l20 19h5z" />
    <glyph glyph-name="uni0304" unicode="&#x304;" 
d="M-49 617l-3 -33h-285l-4 5l2 32h286z" />
    <glyph glyph-name="uni0306" unicode="&#x306;" 
d="M-80 635q-23 -111 -116 -111t-113 111l17 21h9q16 -92 88 -92t88 92h9z" />
    <glyph glyph-name="uni0307" unicode="&#x307;" 
d="M-94.5 639q8.5 -9 8.5 -24q0 -16 -9 -25.5t-25 -9.5t-24.5 8.5t-8.5 24.5t9 25.5t25 9.5t24.5 -9z" />
    <glyph glyph-name="uni0308" unicode="&#x308;" 
d="M-246.5 625.5q8.5 -8.5 8.5 -23.5t-8.5 -24.5t-23.5 -9.5t-23.5 9t-8.5 24t8.5 24t24.5 9q14 0 22.5 -8.5zM-96.5 625.5q8.5 -8.5 8.5 -23.5t-9 -24.5t-24 -9.5t-23.5 9t-8.5 24t9 24t24 9t23.5 -8.5z" />
    <glyph glyph-name="hookabovecomb" unicode="&#x309;" 
d="M-160 559q24 17 38 34t14 29q0 10 -7.5 15.5t-19.5 5.5q-13 0 -28.5 -6t-29.5 -18l-12 21q18 17 38 26.5t39 9.5q25 0 40.5 -14t15.5 -35q0 -16 -12 -32.5t-38 -37.5l18 -33l-28 -13z" />
    <glyph glyph-name="uni030A" unicode="&#x30a;" 
d="M-139.5 661.5q20.5 -21.5 20.5 -53.5q0 -36 -23 -57t-55 -21q-33 0 -55 20.5t-22 56.5q0 34 21 55t57 21t56.5 -21.5zM-231.5 641q-12.5 -12 -12.5 -33q0 -23 13 -35.5t34 -12.5t35 12t14 34q0 21 -12.5 34t-36.5 13q-22 0 -34.5 -12z" />
    <glyph glyph-name="uni030B" unicode="&#x30b;" 
d="M-209 683h6l24 -19v-7q-66 -67 -144 -139h-7l-19 19q73 71 140 146zM-73 683h7l24 -19l-1 -7q-66 -67 -144 -139h-7l-19 19q73 71 140 146z" />
    <glyph glyph-name="uni030C" unicode="&#x30c;" 
d="M-73 651q-51 -54 -112 -130h-21q-64 80 -112 130l16 23h7q56 -58 100 -110q50 60 99 110h7z" />
    <glyph glyph-name="uni030F" unicode="&#x30f;" 
d="M-317 683h-7l-24 -19v-7q57 -58 145 -139h6l19 19q-76 76 -139 146zM-181 683h-7l-24 -19l1 -7q66 -67 144 -139h7l19 19q-73 71 -140 146z" />
    <glyph glyph-name="uni0311" unicode="&#x311;" 
d="M-310 557q23 111 116 111t113 -111l-17 -21h-9q-16 92 -88 92t-88 -92h-9z" />
    <glyph glyph-name="uni0312" unicode="&#x312;" 
d="M-115 521q0 54 64 119l22 -16l1 -6q-43 -44 -43 -83q0 -35 38 -48v-6q-6 -7 -30 -25q-52 16 -52 65z" />
    <glyph glyph-name="uni031B" unicode="&#x31b;" 
d="M-198 455q32 0 55 17t23 46q0 38 -34 70l3 7q15 10 27 10q9 0 20.5 -11t19 -30t7.5 -41q0 -46 -33.5 -72t-87.5 -27v31z" />
    <glyph glyph-name="dotbelowcomb" unicode="&#x323;" 
d="M-90.5 -87q8.5 -9 8.5 -24q0 -16 -9 -25.5t-25 -9.5t-24.5 8.5t-8.5 24.5t9 25.5t25 9.5t24.5 -9z" />
    <glyph glyph-name="uni0324" unicode="&#x324;" 
d="M-246.5 -115.5q8.5 -8.5 8.5 -23.5t-8.5 -24.5t-23.5 -9.5t-23.5 9t-8.5 24t8.5 24t24.5 9q14 0 22.5 -8.5zM-96.5 -115.5q8.5 -8.5 8.5 -23.5t-9 -24.5t-24 -9.5t-23.5 9t-8.5 24t9 24t24 9t23.5 -8.5z" />
    <glyph glyph-name="uni0326" unicode="&#x326;" 
d="M-70 -117q0 -52 -78 -110l-18 17v5q53 39 53 80q0 23 -30 40v5q17 14 35 20q38 -24 38 -57z" />
    <glyph glyph-name="uni0327" unicode="&#x327;" 
d="M-195 -53l32 -20q19 -11 27.5 -23.5t8.5 -29.5q0 -27 -20.5 -43.5t-50.5 -16.5q-40 0 -66 32l7 29l4 1q13 -16 24.5 -23.5t28.5 -7.5q16 0 26 8t10 22q0 10 -5.5 16t-17.5 13l-46 28l25 83h34z" />
    <glyph glyph-name="uni0328" unicode="&#x328;" 
d="M-204 -179.5q-20 17.5 -20 48.5q0 20 8 37.5t29 43.5t67 75h38q-37 -44 -62 -74.5t-32.5 -45t-7.5 -28.5q0 -36 39 -36q37 0 76 45h3l13 -30q-45 -53 -97 -53q-34 0 -54 17.5z" />
    <glyph glyph-name="uni032E" unicode="&#x32e;" 
d="M-70 -81q-23 -111 -116 -111t-113 111l17 21h9q16 -92 88 -92t88 92h9z" />
    <glyph glyph-name="uni0331" unicode="&#x331;" 
d="M-48 -121l-3 -33h-232l-4 5l2 32h233z" />
    <glyph glyph-name="uni0335" unicode="&#x335;" 
d="M-71 270l-3 -35h-335l-4 5l3 35h335z" />
    <glyph glyph-name="uni0342" unicode="&#x342;" 
d="M-46 632v-6l-50 -59l-6 -3q-16 2 -71 21q-49 17 -61 17q-6 0 -12 -5t-17 -18l-18 -21h-5l-17 18v6l50 58l7 3q12 -1 35 -9t34 -11q52 -18 62 -18q7 0 13.5 6t19.5 22l14 16h5z" />
    <glyph glyph-name="uni0343" unicode="&#x343;" 
d="M-58 633q0 -52 -59 -112l-21 14l-1 5q41 45 41 81q0 32 -36 44v5q15 15 27 23q49 -14 49 -60z" />
    <glyph glyph-name="uni0344" unicode="&#x344;" 
d="M-198 550q24 61 48 130l6 3l31 -12l2 -7l-57 -121l-7 -2zM-272 562q-8 8 -8 21q0 14 8.5 22t21.5 8q14 0 22 -8t8 -21q0 -14 -8.5 -22t-22.5 -8q-13 0 -21 8zM-100 562q-8 8 -8 21q0 14 8.5 22t21.5 8t20.5 -7.5t7.5 -21.5t-8 -22t-21 -8t-21 8z" />
    <glyph glyph-name="uni0345" unicode="&#x345;" 
d="M-127 -212l6 174l28 2l4 -5l8 -172l-41 -3z" />
    <glyph glyph-name="uni0374" unicode="&#x374;" horiz-adv-x="147" 
d="M103 631l-19 -164l-29 -4l-5 5l8 165l40 4z" />
    <glyph glyph-name="uni0375" unicode="&#x375;" horiz-adv-x="147" 
d="M44 -136l18 164l30 4l5 -5l-8 -165l-40 -3z" />
    <glyph glyph-name="uni037A" unicode="&#x37a;" horiz-adv-x="209" 
d="M82 -212l6 174l28 2l4 -5l8 -172l-41 -3z" />
    <glyph glyph-name="uni037E" unicode="&#x37e;" horiz-adv-x="230" 
d="M156 7q0 -53 -81 -114l-19 18v5q55 41 55 83q0 24 -31 41v6q16 13 36 20q40 -24 40 -59zM135.5 329q8.5 -9 8.5 -24q0 -16 -9 -25.5t-25 -9.5t-24.5 8.5t-8.5 24.5t9 25.5t25 9.5t24.5 -9z" />
    <glyph glyph-name="tonos" unicode="&#x384;" horiz-adv-x="225" 
d="M128 693l33 -12l2 -8q-25 -59 -66 -150l-7 -2l-27 12q26 62 58 157z" />
    <glyph glyph-name="dieresistonos" unicode="&#x385;" horiz-adv-x="322" 
d="M124 550q24 61 48 130l6 3l31 -12l2 -7l-57 -121l-7 -2zM50 562q-8 8 -8 21q0 14 8.5 22t21.5 8q14 0 22 -8t8 -21q0 -14 -8.5 -22t-22.5 -8q-13 0 -21 8zM222 562q-8 8 -8 21q0 14 8.5 22t21.5 8t20.5 -7.5t7.5 -21.5t-8 -22t-21 -8t-21 8z" />
    <glyph glyph-name="Alphatonos" unicode="&#x386;" horiz-adv-x="620" 
d="M596 0h-54l-14 54l-48 138l-152 2l-137 -2l-52 -136l-15 -56h-54l244 639h59zM464 238l-119 341h-6l-130 -341l125 -1zM147 658l33 -12l2 -8q-25 -59 -66 -150l-7 -2l-27 12q26 62 58 157z" />
    <glyph glyph-name="anoteleia" unicode="&#x387;" horiz-adv-x="230" 
d="M139.5 327q8.5 -9 8.5 -24q0 -16 -9 -25.5t-25 -9.5t-24.5 8.5t-8.5 24.5t9 25.5t25 9.5t24.5 -9z" />
    <glyph glyph-name="Epsilontonos" unicode="&#x388;" horiz-adv-x="569" 
d="M543 41l-5 -41h-337l3 194l-3 445h336l4 -6l-6 -41l-149 2l-132 -1l-2 -241l125 -1l107 1l4 -5l-5 -41l-231 1l-1 -110l2 -152l129 -1l157 3zM86 658l33 -12l2 -8q-25 -59 -66 -150l-7 -2l-27 12q26 62 58 157z" />
    <glyph glyph-name="Etatonos" unicode="&#x389;" horiz-adv-x="777" 
d="M674 197l1 -197h-51l2 194v107h-375v-104l2 -197h-52l2 194l-2 445h52l-1 -293h373l-1 293h52zM86 658l33 -12l2 -8q-25 -59 -66 -150l-7 -2l-27 12q26 62 58 157z" />
    <glyph glyph-name="Iotatonos" unicode="&#x38a;" horiz-adv-x="355" 
d="M251 197l2 -197h-52l3 194l-3 445h53zM86 658l33 -12l2 -8q-25 -59 -66 -150l-7 -2l-27 12q26 62 58 157z" />
    <glyph glyph-name="Omicrontonos" unicode="&#x38c;" horiz-adv-x="710" 
d="M598 563.5q69 -81.5 69 -232.5q0 -163 -73 -250t-208 -87q-127 0 -196 83.5t-69 238.5q0 158 72.5 243.5t206.5 85.5q129 0 198 -81.5zM230 530q-57 -71 -57 -209q0 -141 55 -213t162 -72q110 0 167 73t57 214q0 138 -55 208t-162 70q-110 0 -167 -71zM70 658l33 -12
l2 -8q-25 -59 -66 -150l-7 -2l-27 12q26 62 58 157z" />
    <glyph glyph-name="Upsilontonos" unicode="&#x38e;" horiz-adv-x="661" 
d="M420 191l2 -191h-52l2 191l-1 45l-202 403h58l12 -31l156 -310h6l170 309l13 32h57l-220 -401zM76 658l33 -12l2 -8q-25 -59 -66 -150l-7 -2l-27 12q26 62 58 157z" />
    <glyph glyph-name="Omegatonos" unicode="&#x38f;" horiz-adv-x="794" 
d="M158 3l7 42l65 -3h95v4q-82 52 -120 124t-38 172q0 142 72 222.5t200 80.5q83 0 143.5 -35.5t93 -102.5t32.5 -159q0 -100 -38.5 -173.5t-119.5 -128.5v-4h98l64 4l4 -6l-6 -40h-171l-41 -1l-3 2v49q83 56 122 126t39 166q0 122 -58 190.5t-162 68.5q-103 0 -160.5 -68.5
t-57.5 -191.5q0 -96 38 -164.5t123 -126.5l1 -49l-4 -2l-40 1h-109l-65 -2zM107 658l33 -12l2 -8q-25 -59 -66 -150l-7 -2l-27 12q26 62 58 157z" />
    <glyph glyph-name="iotadieresistonos" unicode="&#x390;" horiz-adv-x="245" 
d="M103.5 16q-17.5 20 -17.5 61l1 150l-1 224l50 6l-2 -375q1 -24 8 -33t24 -9q14 0 39 9l6 -5l-6 -32q-27 -15 -52 -16q-32 0 -49.5 20zM90 550q24 61 48 130l6 3l31 -12l2 -7l-57 -121l-7 -2zM16 562q-8 8 -8 21q0 14 8.5 22t21.5 8q14 0 22 -8t8 -21q0 -14 -8.5 -22
t-22.5 -8q-13 0 -21 8zM188 562q-8 8 -8 21q0 14 8.5 22t21.5 8t20.5 -7.5t7.5 -21.5t-8 -22t-21 -8t-21 8z" />
    <glyph glyph-name="Alpha" unicode="&#x391;" horiz-adv-x="567" 
d="M542 0h-54l-14 54l-48 138l-152 2l-137 -2l-52 -136l-15 -56h-54l244 639h59zM410 238l-119 341h-6l-130 -341l125 -1z" />
    <glyph glyph-name="Beta" unicode="&#x392;" horiz-adv-x="516" 
d="M437.5 283.5q36.5 -39.5 36.5 -106.5q0 -87 -63 -133.5t-183 -46.5q-70 0 -127 3l3 194l-3 445l152 1q84 0 130 -39t46 -112q0 -58 -25 -97t-71 -58q68 -11 104.5 -50.5zM343.5 567.5q-32.5 28.5 -95.5 28.5h-94l-2 -244l120 -2q51 11 77.5 44.5t26.5 89.5
q0 55 -32.5 83.5zM372.5 77q49.5 36 49.5 103q0 56 -36 88t-104 39l-130 -1l-1 -109l2 -153q39 -3 79 -3q91 0 140.5 36z" />
    <glyph glyph-name="Gamma" unicode="&#x393;" horiz-adv-x="425" 
d="M413 633l-5 -39l-254 1l-2 -398l1 -197h-52l2 194l-2 445h308z" />
    <glyph glyph-name="uni0394" unicode="&#x394;" horiz-adv-x="566" 
d="M27 36l234 603h59l214 -603v-36h-507v36zM482 43l-190 536h-6l-209 -536h405z" />
    <glyph glyph-name="Epsilon" unicode="&#x395;" horiz-adv-x="469" 
d="M443 41l-5 -41h-337l3 194l-3 445h336l4 -6l-6 -41l-149 2l-132 -1l-2 -241l125 -1l107 1l4 -5l-5 -41l-231 1l-1 -110l2 -152l129 -1l157 3z" />
    <glyph glyph-name="Zeta" unicode="&#x396;" horiz-adv-x="518" 
d="M474 600l-379 -556h296l83 4l4 -5l-5 -44l-96 1h-298l-47 -2v40l379 557h-282l-78 -5l-4 6l5 44l89 -1h289l44 1v-40z" />
    <glyph glyph-name="Eta" unicode="&#x397;" horiz-adv-x="677" 
d="M574 197l1 -197h-51l2 194v107h-375v-104l2 -197h-52l2 194l-2 445h52l-1 -293h373l-1 293h52z" />
    <glyph glyph-name="Theta" unicode="&#x398;" horiz-adv-x="636" 
d="M524 563q70 -82 70 -232q0 -162 -73.5 -249.5t-209.5 -87.5q-128 0 -198 84t-70 238q0 158 73 243.5t209 85.5q129 0 199 -82zM152.5 529.5q-57.5 -71.5 -57.5 -208.5q0 -140 55.5 -212.5t163.5 -72.5q111 0 169.5 73.5t58.5 213.5q0 137 -56 207.5t-165 70.5
q-111 0 -168.5 -71.5zM179 298l2 36l271 9l5 -4l-3 -36l-271 -10z" />
    <glyph glyph-name="Iota" unicode="&#x399;" horiz-adv-x="255" 
d="M151 197l2 -197h-52l3 194l-3 445h53z" />
    <glyph glyph-name="Kappa" unicode="&#x39a;" horiz-adv-x="528" 
d="M151 197l2 -197h-52l2 194l-2 445h52zM230 340q137 -172 294 -329v-7q-15 -6 -47 -12l-7 3q-166 174 -297 342v4l230 247l42 51h62z" />
    <glyph glyph-name="Lambda" unicode="&#x39b;" horiz-adv-x="559" 
d="M534 0h-55l-14 55l-178 524h-6l-195 -522l-15 -57h-55l240 639h60z" />
    <glyph glyph-name="Mu" unicode="&#x39c;" horiz-adv-x="785" 
d="M717 0h-48l-17 195l-39 354h-6l-195 -472h-47l-188 472h-6l-39 -351l-19 -198h-46l69 639h59l36 -98l157 -395h5l166 403l34 90h59z" />
    <glyph glyph-name="Nu" unicode="&#x39d;" horiz-adv-x="677" 
d="M573 182v-182h-53l-366 552h-5l-1 -347l1 -205h-48l2 190l-1 449h54l365 -552h5l1 549l49 4z" />
    <glyph glyph-name="Xi" unicode="&#x39e;" horiz-adv-x="555" 
d="M72 595l6 44h403l4 -6l-6 -44h-402zM110 310l6 44l159 -1l162 1l4 -6l-5 -44l-172 2l-149 -2zM69 44l4 6h409l6 -6l-7 -44h-407z" />
    <glyph glyph-name="Omicron" unicode="&#x39f;" horiz-adv-x="631" 
d="M520 563.5q69 -81.5 69 -232.5q0 -163 -73 -250t-208 -87q-127 0 -196 83.5t-69 238.5q0 158 72.5 243.5t206.5 85.5q129 0 198 -81.5zM152 530q-57 -71 -57 -209q0 -141 55 -213t162 -72q110 0 167 73t57 214q0 138 -55 208t-162 70q-110 0 -167 -71z" />
    <glyph glyph-name="Pi" unicode="&#x3a0;" horiz-adv-x="623" 
d="M520 197l1 -197h-51l1 194l-1 402h-317l-2 -399l1 -197h-51l2 194l-2 445h421z" />
    <glyph glyph-name="Rho" unicode="&#x3a1;" horiz-adv-x="503" 
d="M411 592.5q49 -47.5 49 -135.5q0 -104 -59.5 -162.5t-167.5 -58.5h-82v-39l2 -197h-52l3 194l-3 445l170 1q91 0 140 -47.5zM370 334q37 45 37 119q0 69 -36.5 105t-105.5 38l-111 -2l-2 -312l111 -2q70 9 107 54z" />
    <glyph glyph-name="Sigma" unicode="&#x3a3;" horiz-adv-x="507" 
d="M468 633l-5 -40l-71 2h-270l187 -257v-11l-200 -283h269l80 2l5 -7l-4 -39h-410v39l205 290l-197 269v41h332l73 1z" />
    <glyph glyph-name="Tau" unicode="&#x3a4;" horiz-adv-x="483" 
d="M459 633l-5 -40l-107 3h-78l-3 -399l2 -197h-52l3 194l-3 402h-78l-109 -3l-4 6l5 40h424z" />
    <glyph glyph-name="Upsilon" unicode="&#x3a5;" horiz-adv-x="512" 
d="M271 191l2 -191h-52l2 191l-1 45l-202 403h58l12 -31l156 -310h6l170 309l13 32h57l-220 -401z" />
    <glyph glyph-name="Phi" unicode="&#x3a6;" horiz-adv-x="730" 
d="M605 147q-75 -67 -216 -73v-88h-48v87q-142 4 -217 68.5t-75 187.5q0 124 74.5 189t217.5 70v70h49v-69q290 -8 290 -250q0 -125 -75 -192zM568.5 176.5q62.5 55.5 62.5 160.5q0 102 -60 153.5t-181 56.5l-2 -347v-84q118 5 180.5 60.5zM160 172.5q62 -53.5 182 -57.5v82
l-1 349q-243 -9 -243 -217q0 -103 62 -156.5z" />
    <glyph glyph-name="Chi" unicode="&#x3a7;" horiz-adv-x="583" 
d="M324 332l225 -332h-64l-26 45l-170 246l-171 -249l-24 -42h-58l223 327l-213 312h65l24 -43l157 -229l155 227l25 45h59z" />
    <glyph glyph-name="Psi" unicode="&#x3a8;" horiz-adv-x="699" 
d="M623 359q2 -107 -62.5 -167t-187.5 -65l1 -127h-49l1 126q-123 5 -187 64.5t-64 168.5v94l-1 186h51l-1 -275q-1 -91 50.5 -140.5t152.5 -53.5v24l-2 445h49l-1 -442v-27q100 4 151.5 53.5t50.5 140.5l-1 275h50l-1 -195v-85z" />
    <glyph glyph-name="uni03A9" unicode="&#x3a9;" horiz-adv-x="713" 
d="M77 3l7 42l65 -3h95v4q-82 52 -120 124t-38 172q0 142 72 222.5t200 80.5q83 0 143.5 -35.5t93 -102.5t32.5 -159q0 -100 -38.5 -173.5t-119.5 -128.5v-4h98l64 4l4 -6l-6 -40h-171l-41 -1l-3 2v49q83 56 122 126t39 166q0 122 -58 190.5t-162 68.5q-103 0 -160.5 -68.5
t-57.5 -191.5q0 -96 38 -164.5t123 -126.5l1 -49l-4 -2l-40 1h-109l-65 -2z" />
    <glyph glyph-name="Iotadieresis" unicode="&#x3aa;" horiz-adv-x="255" 
d="M151 197l2 -197h-52l3 194l-3 445h53zM77.5 809.5q8.5 -8.5 8.5 -23.5t-8.5 -24.5t-23.5 -9.5t-23.5 9t-8.5 24t8.5 24t24.5 9q14 0 22.5 -8.5zM227.5 809.5q8.5 -8.5 8.5 -23.5t-9 -24.5t-24 -9.5t-23.5 9t-8.5 24t9 24t24 9t23.5 -8.5z" />
    <glyph glyph-name="Upsilondieresis" unicode="&#x3ab;" horiz-adv-x="512" 
d="M271 191l2 -191h-52l2 191l-1 45l-202 403h58l12 -31l156 -310h6l170 309l13 32h57l-220 -401zM206.5 809.5q8.5 -8.5 8.5 -23.5t-8.5 -24.5t-23.5 -9.5t-23.5 9t-8.5 24t8.5 24t24.5 9q14 0 22.5 -8.5zM356.5 809.5q8.5 -8.5 8.5 -23.5t-9 -24.5t-24 -9.5t-23.5 9
t-8.5 24t9 24t24 9t23.5 -8.5z" />
    <glyph glyph-name="alphatonos" unicode="&#x3ac;" horiz-adv-x="516" 
d="M482 45l-6 -33q-23 -14 -52 -16q-29 2 -44.5 17.5t-20.5 46.5h-5q-51 -54 -127 -65q-85 0 -133 59.5t-48 163.5q0 113 55.5 178.5t152.5 65.5q54 -9 102 -45l4 1v34l48 6l-2 -371q0 -26 7.5 -36.5t26.5 -10.5q22 0 35 10zM357 105l3 134v132q-58 48 -117 48
q-68 0 -108.5 -54t-40.5 -143q0 -86 36 -134t97 -48q71 0 130 65zM297 693l33 -12l2 -8q-25 -59 -66 -150l-7 -2l-27 12q26 62 58 157z" />
    <glyph glyph-name="epsilontonos" unicode="&#x3ad;" horiz-adv-x="433" 
d="M386 73l-3 -40q-38 -20 -80 -30t-81 -10q-78 0 -125 33t-47 94q0 47 26.5 78t75.5 42q-82 32 -82 105q0 53 45.5 84.5t115.5 31.5q38 0 78.5 -9.5t74.5 -27.5l-11 -41l-5 -2q-69 41 -140 41q-48 0 -79 -22t-31 -60q0 -31 19.5 -52.5t54.5 -32.5l130 1l4 -5l-4 -36h-110
q-54 0 -84.5 -24.5t-30.5 -64.5q0 -45 35.5 -68.5t94.5 -23.5q78 0 153 42zM258 693l33 -12l2 -8q-25 -59 -66 -150l-7 -2l-27 12q26 62 58 157z" />
    <glyph glyph-name="etatonos" unicode="&#x3ae;" horiz-adv-x="512" 
d="M380 315q1 48 -23.5 74.5t-69.5 26.5q-36 0 -74 -21.5t-73 -61.5l-1 -135l3 -198h-52l3 195l-2 256l49 6v-73h5q34 33 70.5 53t70.5 24q69 0 106 -35.5t36 -100.5l-1 -128l2 -382h-52zM297 693l33 -12l2 -8q-25 -59 -66 -150l-7 -2l-27 12q26 62 58 157z" />
    <glyph glyph-name="iotatonos" unicode="&#x3af;" horiz-adv-x="245" 
d="M103.5 16q-17.5 20 -17.5 61l1 150l-1 224l50 6l-2 -375q1 -24 8 -33t24 -9q14 0 39 9l6 -5l-6 -32q-27 -15 -52 -16q-32 0 -49.5 20zM164 693l33 -12l2 -8q-25 -59 -66 -150l-7 -2l-27 12q26 62 58 157z" />
    <glyph glyph-name="upsilondieresistonos" unicode="&#x3b0;" horiz-adv-x="489" 
d="M116.5 43q-44.5 47 -42.5 129l1 61v218l49 6l-3 -280q-1 -65 31.5 -102.5t91.5 -37.5t91 37t32 103l-1 274l50 6l-3 -285q2 -81 -43.5 -128.5t-126.5 -47.5q-82 0 -126.5 47zM212 550q24 61 48 130l6 3l31 -12l2 -7l-57 -121l-7 -2zM138 562q-8 8 -8 21q0 14 8.5 22
t21.5 8q14 0 22 -8t8 -21q0 -14 -8.5 -22t-22.5 -8q-13 0 -21 8zM310 562q-8 8 -8 21q0 14 8.5 22t21.5 8t20.5 -7.5t7.5 -21.5t-8 -22t-21 -8t-21 8z" />
    <glyph glyph-name="alpha" unicode="&#x3b1;" horiz-adv-x="516" 
d="M482 45l-6 -33q-23 -14 -52 -16q-29 2 -44.5 17.5t-20.5 46.5h-5q-51 -54 -127 -65q-85 0 -133 59.5t-48 163.5q0 113 55.5 178.5t152.5 65.5q54 -9 102 -45l4 1v34l48 6l-2 -371q0 -26 7.5 -36.5t26.5 -10.5q22 0 35 10zM357 105l3 134v132q-58 48 -117 48
q-68 0 -108.5 -54t-40.5 -143q0 -86 36 -134t97 -48q71 0 130 65z" />
    <glyph glyph-name="beta" unicode="&#x3b2;" horiz-adv-x="509" 
d="M422 315.5q38 -46.5 38 -120.5q0 -92 -59 -145.5t-160 -53.5q-42 0 -94 11l1 -192h-50l1 381v267q0 120 45 180.5t134 60.5q73 0 113.5 -39t40.5 -109q0 -121 -117 -183q69 -11 107 -57.5zM366.5 77q45.5 42 45.5 116q0 68 -38.5 109t-104.5 41h-47l-4 5l2 36h48
q116 54 116 164q0 55 -29 85t-82 30q-64 0 -95.5 -47t-31.5 -143l1 -419q48 -19 97 -19q77 0 122.5 42z" />
    <glyph glyph-name="gamma" unicode="&#x3b3;" horiz-adv-x="411" 
d="M381 426q0 -39 -16 -89t-57 -142l-86 -195l1 -185h-51l1 186l-150 452l49 5l13 -54l113 -346h5l68 154q36 83 50 129.5t14 82.5q0 10 -2 28l3 3h43q2 -20 2 -29z" />
    <glyph glyph-name="delta" unicode="&#x3b4;" horiz-adv-x="466" 
d="M175.5 526q25.5 -26 79.5 -62t88 -66.5t59 -78t25 -112.5q0 -63 -24.5 -111.5t-68.5 -75t-102 -26.5q-87 0 -138.5 58t-51.5 156q0 81 39 138t124 99l1 3q-50 35 -75.5 66.5t-25.5 75.5q0 54 43.5 84.5t117.5 30.5q65 0 121 -19l-11 -45l-8 -2q-59 27 -111 27
q-48 0 -77.5 -21.5t-29.5 -57.5q0 -35 25.5 -61zM340 79q40 47 40 124t-37 126t-104 96q-80 -41 -114.5 -91t-34.5 -124q0 -83 38.5 -130.5t105.5 -47.5q66 0 106 47z" />
    <glyph glyph-name="epsilon" unicode="&#x3b5;" horiz-adv-x="433" 
d="M386 73l-3 -40q-38 -20 -80 -30t-81 -10q-78 0 -125 33t-47 94q0 47 26.5 78t75.5 42q-82 32 -82 105q0 53 45.5 84.5t115.5 31.5q38 0 78.5 -9.5t74.5 -27.5l-11 -41l-5 -2q-69 41 -140 41q-48 0 -79 -22t-31 -60q0 -31 19.5 -52.5t54.5 -32.5l130 1l4 -5l-4 -36h-110
q-54 0 -84.5 -24.5t-30.5 -64.5q0 -45 35.5 -68.5t94.5 -23.5q78 0 153 42z" />
    <glyph glyph-name="zeta" unicode="&#x3b6;" horiz-adv-x="357" 
d="M187 -129l2 7q70 26 98.5 47.5t28.5 47.5q0 15 -11 26t-33 15l-100 21q-71 15 -104 52t-33 101q0 74 66.5 183t222.5 290h-182l-71 -2l-4 5l5 37l80 -1h186l45 1v-37q-164 -194 -231.5 -300t-67.5 -170q0 -49 24.5 -76t82.5 -40l95 -21q39 -8 57.5 -28t18.5 -50
q0 -45 -36 -77t-120 -65z" />
    <glyph glyph-name="eta" unicode="&#x3b7;" horiz-adv-x="512" 
d="M380 315q1 48 -23.5 74.5t-69.5 26.5q-36 0 -74 -21.5t-73 -61.5l-1 -135l3 -198h-52l3 195l-2 256l49 6v-73h5q34 33 70.5 53t70.5 24q69 0 106 -35.5t36 -100.5l-1 -128l2 -382h-52z" />
    <glyph glyph-name="theta" unicode="&#x3b8;" horiz-adv-x="497" 
d="M385.5 614.5q47.5 -92.5 47.5 -257.5q0 -173 -50 -269t-138 -96q-84 0 -132 92.5t-48 258.5q0 114 23 196t65.5 125t100.5 43q84 0 131.5 -92.5zM149.5 586.5q-37.5 -80.5 -39.5 -224.5l277 9q-2 140 -37.5 218t-97.5 78q-65 0 -102.5 -80.5zM347.5 110q36.5 79 39.5 222
l-277 -9q3 -139 39 -215.5t98 -76.5q64 0 100.5 79z" />
    <glyph glyph-name="iota" unicode="&#x3b9;" horiz-adv-x="245" 
d="M103.5 16q-17.5 20 -17.5 61l1 150l-1 224l50 6l-2 -375q1 -24 8 -33t24 -9q14 0 39 9l6 -5l-6 -32q-27 -15 -52 -16q-32 0 -49.5 20z" />
    <glyph glyph-name="kappa" unicode="&#x3ba;" horiz-adv-x="440" 
d="M409 26l17 -16v-7q-13 -5 -44 -11l-7 2l-84 85l-60.5 60.5t-90.5 96.5v-38l1 -198h-50l1 195l-1 256l51 6l-2 -210l179 171l32 37h61l-222 -210q66 -73 219 -219z" />
    <glyph glyph-name="lambda" unicode="&#x3bb;" horiz-adv-x="435" 
d="M434 42l-7 -36q-26 -10 -43 -9q-22 1 -35.5 13t-22.5 40l-108 338h-5l-137 -337l-17 -54l-46 6l184 451l-17 53q-19 60 -32.5 90.5t-29.5 43.5t-41 13q-9 0 -33 -4l-3 5l9 44q18 3 34 3q32 0 54.5 -16.5t41.5 -54.5t42 -109l146 -453q5 -15 12 -22t19 -7q11 0 29 6z" />
    <glyph glyph-name="uni03BC" unicode="&#x3bc;" horiz-adv-x="530" 
d="M496 45l-6 -33q-24 -15 -51 -16q-29 2 -45 20t-20 55h-4q-68 -68 -140 -76q-63 0 -95 37l7 -217h-49l2 380l-2 256l49 6v-316q0 -48 22.5 -74.5t65.5 -26.5q72 0 142 75v336l49 6l-2 -368q0 -26 7.5 -37.5t24.5 -11.5q18 0 38 10z" />
    <glyph glyph-name="nu" unicode="&#x3bd;" horiz-adv-x="412" 
d="M381 426q0 -37 -15.5 -87t-56.5 -146l-83 -193h-55l-148 453l49 5l13 -54l113 -347h6l67 155q36 83 50 130.5t14 84.5q0 17 -1 25l2 3h43q2 -20 2 -29z" />
    <glyph glyph-name="xi" unicode="&#x3be;" horiz-adv-x="394" 
d="M393 675l-10 -47l-10 -1q-54 32 -109 32q-68 0 -108.5 -32.5t-40.5 -87.5q0 -56 33.5 -91.5t103.5 -57.5h95l3 -7l-4 -33h-78q-81 0 -128 -37.5t-47 -100.5q0 -103 124 -139l79 -23q76 -20 76 -82q0 -45 -41.5 -80t-125.5 -65l-17 33l3 7q70 26 102.5 50t32.5 51
q0 16 -10.5 26t-35.5 17l-78 22q-80 22 -118.5 65.5t-38.5 111.5t41 111.5t117 56.5q-138 44 -138 161q0 79 54 124t148 45q71 0 126 -29z" />
    <glyph glyph-name="omicron" unicode="&#x3bf;" horiz-adv-x="483" 
d="M386 401.5q50 -60.5 50 -168.5q0 -113 -52.5 -176t-146.5 -63q-90 0 -140 60.5t-50 167.5q0 113 52.5 176.5t146.5 63.5q90 0 140 -60.5zM134 372.5q-39 -50.5 -39 -144.5q0 -95 37.5 -145.5t106.5 -50.5q71 0 110 50.5t39 144.5t-37.5 145t-106.5 51q-71 0 -110 -50.5z
" />
    <glyph glyph-name="pi" unicode="&#x3c0;" horiz-adv-x="584" 
d="M435 416l-2 -317q0 -31 10 -44.5t31 -13.5q23 0 56 16l7 -5l-7 -36q-35 -18 -59 -20q-45 0 -65 22t-20 69l2 128l-2 201h-205v-416h-49l2 195l-1 221q-59 0 -113 -35l-6 2l-12 22l1 7q27 22 57.5 32.5t68.5 10.5h420l3 -5l-5 -34h-112z" />
    <glyph glyph-name="rho" unicode="&#x3c1;" horiz-adv-x="490" 
d="M396 404.5q46 -56.5 46 -163.5q0 -120 -55 -183.5t-160 -63.5q-49 0 -104 20l1 -199h-51l2 416q0 112 48.5 171t139.5 59q87 0 133 -56.5zM352.5 85.5q40.5 52.5 40.5 151.5q0 89 -34.5 135.5t-99.5 46.5t-101 -45.5t-36 -131.5l1 -174q59 -35 113 -35q76 0 116.5 52.5z
" />
    <glyph glyph-name="uni03C2" unicode="&#x3c2;" horiz-adv-x="384" 
d="M176 -144l3 7q64 25 93.5 49t29.5 52q0 14 -12 25.5t-34 18.5l-70 22q-76 24 -111 71.5t-35 130.5q0 70 23.5 122t66 80t98.5 28q33 0 67.5 -10.5t61.5 -28.5l-11 -40l-7 -1q-23 17 -51.5 26.5t-56.5 9.5q-65 0 -103 -50t-38 -136q0 -68 26 -105t85 -54l69 -21
q77 -22 77 -83q0 -43 -37 -78.5t-115 -67.5z" />
    <glyph glyph-name="sigma" unicode="&#x3c3;" horiz-adv-x="514" 
d="M365 415l-1 -5q60 -85 60 -187q0 -109 -51 -169t-143 -60q-88 0 -135.5 61t-47.5 173q0 227 219 227h220l4 -5l-5 -35h-120zM363.5 320q-13.5 50 -39.5 95h-63q-84 0 -125 -45.5t-41 -140.5t36 -146t101 -51q69 0 107 49.5t38 139.5q0 49 -13.5 99z" />
    <glyph glyph-name="tau" unicode="&#x3c4;" horiz-adv-x="369" 
d="M197 416l-2 -313q0 -33 11.5 -48t37.5 -15q28 0 65 19l7 -5l-6 -37q-42 -18 -73 -21q-47 0 -68.5 23.5t-21.5 71.5l2 124l-2 201h-20q-61 0 -113 -35l-7 2l-12 22l1 7q28 23 58 33t68 10h224l4 -5l-5 -34h-148z" />
    <glyph glyph-name="upsilon" unicode="&#x3c5;" horiz-adv-x="489" 
d="M116.5 43q-44.5 47 -42.5 129l1 61v218l49 6l-3 -280q-1 -65 31.5 -102.5t91.5 -37.5t91 37t32 103l-1 274l50 6l-3 -285q2 -81 -43.5 -128.5t-126.5 -47.5q-82 0 -126.5 47z" />
    <glyph glyph-name="phi" unicode="&#x3c6;" horiz-adv-x="616" 
d="M507 63.5q-63 -64.5 -182 -69.5v-179h-48l1 179q-236 11 -236 232q0 85 36 141.5t113 91.5l19 -28v-6q-64 -33 -92 -78.5t-28 -116.5q0 -95 46.5 -144t141.5 -54l2 293q0 63 32.5 100t92.5 37q78 0 121.5 -56t43.5 -158q0 -120 -63 -184.5zM522 246q0 83 -32 130t-87 47
q-39 0 -59 -28t-19 -76v-288q197 11 197 215z" />
    <glyph glyph-name="chi" unicode="&#x3c7;" horiz-adv-x="424" 
d="M435 -146l-6 -35q-16 -7 -31 -8q-22 0 -35.5 11t-25.5 38l-122 253l-122 -252l-20 -46h-51l165 328l-112 227q-14 28 -24 37.5t-25 9.5q-4 0 -18 -2l-3 6l6 34q20 2 26 2q27 0 44 -14.5t34 -50.5l106 -221l115 239l20 45h51l-158 -313l128 -261q7 -15 14 -21t17 -6t22 4z
" />
    <glyph glyph-name="psi" unicode="&#x3c8;" horiz-adv-x="622" 
d="M551 184q2 -84 -56 -134.5t-161 -51.5v-183h-48l1 183q-105 1 -162.5 51t-55.5 135l1 49v218l47 5l-3 -267q-1 -70 44 -109.5t129 -41.5l1 157l-1 345l48 5l-2 -347v-160q83 1 128 40.5t45 110.5v262l46 5z" />
    <glyph glyph-name="omega" unicode="&#x3c9;" horiz-adv-x="637" 
d="M554 360q30 -61 30 -157q0 -106 -36.5 -160t-106.5 -54q-50 0 -80.5 27t-44.5 85q-15 -57 -45 -84.5t-78 -27.5q-69 0 -105 54.5t-36 159.5q0 95 31 156t102 99l24 -27l-1 -9q-58 -34 -83 -85.5t-25 -131.5q0 -87 25.5 -132.5t74.5 -45.5q95 0 95 186v83l44 6l3 -2v-86
q0 -187 93 -187q49 0 75 45.5t26 132.5q0 82 -25 133t-84 84l-1 9l25 27q73 -37 103 -98z" />
    <glyph glyph-name="iotadieresis" unicode="&#x3ca;" horiz-adv-x="245" 
d="M103.5 16q-17.5 20 -17.5 61l1 150l-1 224l50 6l-2 -375q1 -24 8 -33t24 -9q14 0 39 9l6 -5l-6 -32q-27 -15 -52 -16q-32 0 -49.5 20zM72.5 625.5q8.5 -8.5 8.5 -23.5t-8.5 -24.5t-23.5 -9.5t-23.5 9t-8.5 24t8.5 24t24.5 9q14 0 22.5 -8.5zM222.5 625.5
q8.5 -8.5 8.5 -23.5t-9 -24.5t-24 -9.5t-23.5 9t-8.5 24t9 24t24 9t23.5 -8.5z" />
    <glyph glyph-name="upsilondieresis" unicode="&#x3cb;" horiz-adv-x="489" 
d="M116.5 43q-44.5 47 -42.5 129l1 61v218l49 6l-3 -280q-1 -65 31.5 -102.5t91.5 -37.5t91 37t32 103l-1 274l50 6l-3 -285q2 -81 -43.5 -128.5t-126.5 -47.5q-82 0 -126.5 47zM194.5 625.5q8.5 -8.5 8.5 -23.5t-8.5 -24.5t-23.5 -9.5t-23.5 9t-8.5 24t8.5 24t24.5 9
q14 0 22.5 -8.5zM344.5 625.5q8.5 -8.5 8.5 -23.5t-9 -24.5t-24 -9.5t-23.5 9t-8.5 24t9 24t24 9t23.5 -8.5z" />
    <glyph glyph-name="omicrontonos" unicode="&#x3cc;" horiz-adv-x="483" 
d="M386 401.5q50 -60.5 50 -168.5q0 -113 -52.5 -176t-146.5 -63q-90 0 -140 60.5t-50 167.5q0 113 52.5 176.5t146.5 63.5q90 0 140 -60.5zM134 372.5q-39 -50.5 -39 -144.5q0 -95 37.5 -145.5t106.5 -50.5q71 0 110 50.5t39 144.5t-37.5 145t-106.5 51q-71 0 -110 -50.5z
M283 693l33 -12l2 -8q-25 -59 -66 -150l-7 -2l-27 12q26 62 58 157z" />
    <glyph glyph-name="upsilontonos" unicode="&#x3cd;" horiz-adv-x="489" 
d="M116.5 43q-44.5 47 -42.5 129l1 61v218l49 6l-3 -280q-1 -65 31.5 -102.5t91.5 -37.5t91 37t32 103l-1 274l50 6l-3 -285q2 -81 -43.5 -128.5t-126.5 -47.5q-82 0 -126.5 47zM286 693l33 -12l2 -8q-25 -59 -66 -150l-7 -2l-27 12q26 62 58 157z" />
    <glyph glyph-name="omegatonos" unicode="&#x3ce;" horiz-adv-x="637" 
d="M554 360q30 -61 30 -157q0 -106 -36.5 -160t-106.5 -54q-50 0 -80.5 27t-44.5 85q-15 -57 -45 -84.5t-78 -27.5q-69 0 -105 54.5t-36 159.5q0 95 31 156t102 99l24 -27l-1 -9q-58 -34 -83 -85.5t-25 -131.5q0 -87 25.5 -132.5t74.5 -45.5q95 0 95 186v83l44 6l3 -2v-86
q0 -187 93 -187q49 0 75 45.5t26 132.5q0 82 -25 133t-84 84l-1 9l25 27q73 -37 103 -98zM361 688l33 -12l2 -8q-25 -59 -66 -150l-7 -2l-27 12q26 62 58 157z" />
    <glyph glyph-name="uni03CF" unicode="&#x3cf;" horiz-adv-x="569" 
d="M170 639l-2 -442l1 -197h-52l2 194l-2 445h53zM540 11v-6q-38 -114 -86 -164.5t-118 -50.5q-21 0 -49 5q-15 18 -18 43l4 4q28 -7 55 -7q55 0 92 37t71 124l-12 5q-165 174 -290 336v4l231 247l41 51h63l-278 -299q135 -169 294 -329z" />
    <glyph glyph-name="uni03D1" unicode="&#x3d1;" horiz-adv-x="497" 
d="M385.5 614.5q47.5 -92.5 47.5 -257.5q0 -173 -50 -269t-138 -96q-84 0 -132 92.5t-48 258.5q0 114 23 196t65.5 125t100.5 43q84 0 131.5 -92.5zM149.5 586.5q-37.5 -80.5 -39.5 -224.5l277 9q-2 140 -37.5 218t-97.5 78q-65 0 -102.5 -80.5zM347.5 110q36.5 79 39.5 222
l-277 -9q3 -139 39 -215.5t98 -76.5q64 0 100.5 79z" />
    <glyph glyph-name="uni03D5" unicode="&#x3d5;" horiz-adv-x="616" 
d="M507 63.5q-63 -64.5 -182 -69.5v-179h-48l1 179q-236 11 -236 232q0 85 36 141.5t113 91.5l19 -28v-6q-64 -33 -92 -78.5t-28 -116.5q0 -95 46.5 -144t141.5 -54l2 293q0 63 32.5 100t92.5 37q78 0 121.5 -56t43.5 -158q0 -120 -63 -184.5zM522 246q0 83 -32 130t-87 47
q-39 0 -59 -28t-19 -76v-288q197 11 197 215z" />
    <glyph glyph-name="uni03D6" unicode="&#x3d6;" horiz-adv-x="584" 
d="M435 416l-2 -317q0 -31 10 -44.5t31 -13.5q23 0 56 16l7 -5l-7 -36q-35 -18 -59 -20q-45 0 -65 22t-20 69l2 128l-2 201h-205v-416h-49l2 195l-1 221q-59 0 -113 -35l-6 2l-12 22l1 7q27 22 57.5 32.5t68.5 10.5h420l3 -5l-5 -34h-112z" />
    <glyph glyph-name="uni03D7" unicode="&#x3d7;" horiz-adv-x="444" 
d="M299.5 133q65.5 -64 84.5 -83l42 -40v-7q-33 -89 -73.5 -129t-99.5 -40q-18 0 -37 3q-16 16 -21 41l4 4q21 -5 46 -5q45 0 76 28.5t59 93.5l-11 3l-79 79q-101 99 -150 155v-38l1 -198h-50l1 195l-1 256l51 6l-2 -210l179 171l32 37h61l-222 -210q44 -48 109.5 -112z" />
    <glyph glyph-name="uni03F0" unicode="&#x3f0;" horiz-adv-x="440" 
d="M409 26l17 -16v-7q-13 -5 -44 -11l-7 2l-84 85l-60.5 60.5t-90.5 96.5v-38l1 -198h-50l1 195l-1 256l51 6l-2 -210l179 171l32 37h61l-222 -210q66 -73 219 -219z" />
    <glyph glyph-name="uni0400" unicode="&#x400;" horiz-adv-x="514" 
d="M460 41l-5 -41h-337l3 194l-3 445h336l4 -6l-6 -41l-149 2l-132 -1l-2 -241l125 -1l107 1l4 -5l-5 -41l-231 1l-1 -110l2 -152l129 -1l157 3zM388 752l-11 -26l-7 -3q-100 45 -185 89l-3 7l15 30l7 2q75 -45 184 -99z" />
    <glyph glyph-name="uni0401" unicode="&#x401;" horiz-adv-x="514" 
d="M460 41l-5 -41h-337l3 194l-3 445h336l4 -6l-6 -41l-149 2l-132 -1l-2 -241l125 -1l107 1l4 -5l-5 -41l-231 1l-1 -110l2 -152l129 -1l157 3zM236.5 809.5q8.5 -8.5 8.5 -23.5t-8.5 -24.5t-23.5 -9.5t-23.5 9t-8.5 24t8.5 24t24.5 9q14 0 22.5 -8.5zM386.5 809.5
q8.5 -8.5 8.5 -23.5t-9 -24.5t-24 -9.5t-23.5 9t-8.5 24t9 24t24 9t23.5 -8.5z" />
    <glyph glyph-name="uni0402" unicode="&#x402;" horiz-adv-x="636" 
d="M501.5 397q36.5 -23 53 -75t16.5 -143q0 -130 -33 -218.5t-104 -150.5l-22 19v8q58 58 84.5 138t26.5 195q0 76 -11.5 119.5t-37 63t-70.5 19.5q-93 0 -176 -84v-91l1 -197h-51l2 194l-2 401l-162 -1l-4 6l4 39h437l5 -6l-6 -39l-222 1l-1 -253h5q77 68 166 78
q65 0 101.5 -23z" />
    <glyph glyph-name="uni0403" unicode="&#x403;" horiz-adv-x="442" 
d="M430 633l-5 -39l-254 1l-2 -398l1 -197h-52l2 194l-2 445h308zM384 849l14 -30l-2 -7q-89 -46 -186 -89l-7 3l-11 26q109 53 185 99z" />
    <glyph glyph-name="uni0404" unicode="&#x404;" horiz-adv-x="581" 
d="M430.5 56.5q46.5 16.5 85.5 46.5l8 -3l-4 -49q-89 -57 -188 -57q-129 0 -197.5 81t-68.5 235q0 158 73.5 246t207.5 88q49 0 95 -13.5t83 -39.5l-11 -47l-9 -1q-70 56 -161 56q-100 0 -157.5 -64t-65.5 -182l130 -1l192 1l6 -5l-4 -41l-198 2l-127 -1q1 -132 56 -200
t161 -68q47 0 93.5 16.5z" />
    <glyph glyph-name="uni0405" unicode="&#x405;" horiz-adv-x="475" 
d="M399 613l-9 -48l-10 -3q-28 18 -59.5 27.5t-60.5 9.5q-42 0 -73.5 -17.5t-48 -45.5t-16.5 -57q0 -31 18 -54t44.5 -39.5t71.5 -37.5q53 -26 85.5 -46.5t55.5 -53t23 -78.5q0 -47 -25.5 -87.5t-72 -64t-104.5 -23.5q-41 0 -84 11.5t-78 33.5l6 53l7 3q33 -29 74 -43.5
t79 -14.5q44 0 77 18t51 47t18 61q0 33 -18.5 57.5t-45 40.5t-73.5 39q-52 25 -84 45t-54 52t-22 77q0 46 24.5 84.5t69 61t101.5 22.5q66 0 133 -30z" />
    <glyph glyph-name="uni0406" unicode="&#x406;" horiz-adv-x="289" 
d="M168 197l2 -197h-52l3 194l-3 445h53z" />
    <glyph glyph-name="uni0407" unicode="&#x407;" horiz-adv-x="255" 
d="M151 197l2 -197h-52l3 194l-3 445h53zM76.5 809.5q8.5 -8.5 8.5 -23.5t-8.5 -24.5t-23.5 -9.5t-23.5 9t-8.5 24t8.5 24t24.5 9q14 0 22.5 -8.5zM226.5 809.5q8.5 -8.5 8.5 -23.5t-9 -24.5t-24 -9.5t-23.5 9t-8.5 24t9 24t24 9t23.5 -8.5z" />
    <glyph glyph-name="uni0408" unicode="&#x408;" horiz-adv-x="327" 
d="M210 212l1 -96q0 -73 -34 -121.5t-117 -94.5l-21 29v8q67 40 95 79.5t28 98.5v91l-2 389h-125l-6 5l4 39h179z" />
    <glyph glyph-name="uni0409" unicode="&#x409;" horiz-adv-x="828" 
d="M742.5 320.5q46.5 -43.5 46.5 -124.5q0 -95 -62 -145.5t-177 -50.5h-132l2 194l-2 402h-194l-5 -63q-15 -193 -36 -304t-53 -165.5t-83 -72.5l-20 -4l-11 41q49 20 78 70.5t47 153t32 289.5l8 96l-1 2h290l-1 -275h138q89 0 135.5 -43.5zM697 85.5q39 38.5 39 104.5
q0 64 -36.5 98.5t-106.5 34.5l-124 -1l-1 -125l2 -155l112 -2q76 7 115 45.5z" />
    <glyph glyph-name="uni040A" unicode="&#x40a;" horiz-adv-x="949" 
d="M864.5 316q46.5 -42 46.5 -123q0 -94 -61.5 -143.5t-177.5 -49.5h-131l2 194l-1 119h-373l-1 -116l2 -197h-52l2 194l-2 445h52l-1 -283h373l-1 283h52l-1 -281h137q89 0 135.5 -42zM858 187q0 64 -36.5 97t-107.5 32l-122 -1l-1 -118l1 -155l112 -2q154 15 154 147z" />
    <glyph glyph-name="uni040B" unicode="&#x40b;" horiz-adv-x="640" 
d="M521 0l2 221q0 75 -31 113t-90 38q-92 0 -173 -84v-91l1 -197h-51l2 194l-2 401l-163 -1l-4 6l5 39h437l4 -6l-5 -39l-222 1l-1 -253h5q75 67 162 78q88 0 131 -46.5t43 -141.5l2 -232h-52z" />
    <glyph glyph-name="uni040C" unicode="&#x40c;" horiz-adv-x="566" 
d="M168 197l2 -197h-52l2 194l-2 445h52zM247 340q137 -172 294 -329v-7q-15 -6 -47 -12l-7 3q-166 174 -297 342v4l230 247l42 51h62zM392 849l14 -30l-2 -7q-89 -46 -186 -89l-7 3l-11 26q109 53 185 99z" />
    <glyph glyph-name="uni040D" unicode="&#x40d;" horiz-adv-x="708" 
d="M120 194l-2 443l52 3l-3 -553h7l363 552h54l-2 -442l1 -197h-52l2 194v358h-6l-364 -552h-52zM455 752l-11 -26l-7 -3q-100 45 -185 89l-3 7l15 30l7 2q75 -45 184 -99z" />
    <glyph glyph-name="uni040E" unicode="&#x40e;" horiz-adv-x="553" 
d="M530 638l-197 -449q-36 -80 -62.5 -117.5t-61.5 -54t-100 -24.5l-7 1q-6 16 -9 40l3 6q56 9 85.5 20t50 33.5t42.5 67.5l-245 477l58 1l20 -51l186 -365h8l157 367l18 48h54zM405 775q-16 -39 -53.5 -60t-90.5 -21q-52 0 -88 20.5t-52 60.5l27 19h9q20 -65 105 -65
t107 65h9z" />
    <glyph glyph-name="uni040F" unicode="&#x40f;" horiz-adv-x="678" 
d="M558 197l2 -197h-197l-3 -135l-42 -6l-3 141h-197l2 194l-2 445h52l-2 -442l2 -154h338l2 151l-2 445h52z" />
    <glyph glyph-name="uni0410" unicode="&#x410;" horiz-adv-x="582" 
d="M553 0h-54l-14 54l-48 138l-152 2l-137 -2l-52 -136l-15 -56h-54l244 639h59zM421 238l-119 341h-6l-130 -341l125 -1z" />
    <glyph glyph-name="uni0411" unicode="&#x411;" horiz-adv-x="559" 
d="M452 318q48 -43 48 -124q0 -94 -64 -144t-183 -50h-135l2 194l-2 445h355l4 -6l-5 -39l-302 1l-1 -234h142q93 0 141 -43zM406 85q41 38 41 104q0 64 -38 98t-112 34l-128 -1l-1 -123l2 -155l116 -2q79 7 120 45z" />
    <glyph glyph-name="uni0412" unicode="&#x412;" horiz-adv-x="553" 
d="M454.5 283.5q36.5 -39.5 36.5 -106.5q0 -87 -63 -133.5t-183 -46.5q-70 0 -127 3l3 194l-3 445l152 1q84 0 130 -39t46 -112q0 -58 -25 -97t-71 -58q68 -11 104.5 -50.5zM360.5 567.5q-32.5 28.5 -95.5 28.5h-94l-2 -244l120 -2q51 11 77.5 44.5t26.5 89.5
q0 55 -32.5 83.5zM389.5 77q49.5 36 49.5 103q0 56 -36 88t-104 39l-130 -1l-1 -109l2 -153q39 -3 79 -3q91 0 140.5 36z" />
    <glyph glyph-name="uni0413" unicode="&#x413;" horiz-adv-x="442" 
d="M430 633l-5 -39l-254 1l-2 -398l1 -197h-52l2 194l-2 445h308z" />
    <glyph glyph-name="uni0414" unicode="&#x414;" horiz-adv-x="631" 
d="M579 -115l-42 -6l-7 121h-466l-6 -115l-42 -6v166h55q39 26 63 79.5t39.5 151t28.5 265.5l8 98h282l-1 -442l1 -152h87v-160zM442 194l-1 402h-187l-5 -63q-12 -152 -27.5 -247.5t-38 -153t-56.5 -87.5h314z" />
    <glyph glyph-name="uni0415" unicode="&#x415;" horiz-adv-x="514" 
d="M460 41l-5 -41h-337l3 194l-3 445h336l4 -6l-6 -41l-149 2l-132 -1l-2 -241l125 -1l107 1l4 -5l-5 -41l-231 1l-1 -110l2 -152l129 -1l157 3z" />
    <glyph glyph-name="uni0416" unicode="&#x416;" horiz-adv-x="800" 
d="M28 4v7q154 168 273 329l-257 299h61l38 -51l214 -247v-4q-120 -166 -276 -342l-7 -3q-32 6 -46 12zM376 194l-1 445h51l-2 -442l1 -197h-50zM719 -5q-158 178 -275 342v4l213 247l39 51h61l-258 -299q121 -165 274 -329l-1 -7q-14 -6 -46 -12z" />
    <glyph glyph-name="uni0417" unicode="&#x417;" horiz-adv-x="503" 
d="M402 280.5q35 -40.5 35 -102.5q0 -55 -27.5 -97.5t-77.5 -65.5t-114 -23q-49 0 -93 15t-75 41l12 45l6 2q28 -27 67.5 -42t81.5 -15q74 0 121 39.5t47 102.5q0 52 -33.5 86.5t-93.5 43.5h-121l-6 5l3 37h122q42 15 68 52.5t26 83.5q0 51 -34 80t-94 29q-87 0 -160 -60
l-9 3l4 47q37 28 80.5 42.5t87.5 14.5q80 0 129 -41t49 -108q0 -51 -27 -94.5t-75 -65.5q66 -14 101 -54.5z" />
    <glyph glyph-name="uni0418" unicode="&#x418;" horiz-adv-x="708" 
d="M120 194l-2 443l52 3l-3 -553h7l363 552h54l-2 -442l1 -197h-52l2 194v358h-6l-364 -552h-52z" />
    <glyph glyph-name="uni0419" unicode="&#x419;" horiz-adv-x="708" 
d="M120 194l-2 443l52 3l-3 -553h7l363 552h54l-2 -442l1 -197h-52l2 194v358h-6l-364 -552h-52zM482 775q-16 -39 -53.5 -60t-90.5 -21q-52 0 -88 20.5t-52 60.5l27 19h9q20 -65 105 -65t107 65h9z" />
    <glyph glyph-name="uni041A" unicode="&#x41a;" horiz-adv-x="566" 
d="M168 197l2 -197h-52l2 194l-2 445h52zM247 340q137 -172 294 -329v-7q-15 -6 -47 -12l-7 3q-166 174 -297 342v4l230 247l42 51h62z" />
    <glyph glyph-name="uni041B" unicode="&#x41b;" horiz-adv-x="586" 
d="M466 197l1 -197h-52l2 194l-2 402h-192l-5 -63q-15 -194 -36 -304.5t-52.5 -165t-82.5 -72.5l-19 -4l-11 41q48 20 76.5 70.5t46.5 153t32 289.5l8 96l-1 2h289z" />
    <glyph glyph-name="uni041C" unicode="&#x41c;" horiz-adv-x="821" 
d="M735 0h-48l-17 195l-39 354h-6l-195 -472h-47l-188 472h-6l-39 -351l-19 -198h-46l69 639h59l36 -98l157 -395h5l166 403l34 90h59z" />
    <glyph glyph-name="uni041D" unicode="&#x41d;" horiz-adv-x="711" 
d="M591 197l1 -197h-51l2 194v107h-375v-104l2 -197h-52l2 194l-2 445h52l-1 -293h373l-1 293h52z" />
    <glyph glyph-name="uni041E" unicode="&#x41e;" horiz-adv-x="679" 
d="M544 563.5q69 -81.5 69 -232.5q0 -163 -73 -250t-208 -87q-127 0 -196 83.5t-69 238.5q0 158 72.5 243.5t206.5 85.5q129 0 198 -81.5zM176 530q-57 -71 -57 -209q0 -141 55 -213t162 -72q110 0 167 73t57 214q0 138 -55 208t-162 70q-110 0 -167 -71z" />
    <glyph glyph-name="uni041F" unicode="&#x41f;" horiz-adv-x="657" 
d="M538 197l1 -197h-51l1 194l-1 402h-317l-2 -399l1 -197h-51l2 194l-2 445h421z" />
    <glyph glyph-name="uni0420" unicode="&#x420;" horiz-adv-x="520" 
d="M428 592.5q49 -47.5 49 -135.5q0 -104 -59.5 -162.5t-167.5 -58.5h-82v-39l2 -197h-52l3 194l-3 445l170 1q91 0 140 -47.5zM387 334q37 45 37 119q0 69 -36.5 105t-105.5 38l-111 -2l-2 -312l111 -2q70 9 107 54z" />
    <glyph glyph-name="uni0421" unicode="&#x421;" horiz-adv-x="565" 
d="M436 630.5q45 -13.5 81 -39.5l-11 -47l-8 -1q-70 56 -158 56q-107 0 -163.5 -72t-56.5 -208t55 -207.5t158 -71.5q46 0 91 16.5t84 46.5l8 -3l-4 -49q-86 -57 -182 -57q-126 0 -194.5 83.5t-68.5 238.5q0 157 71.5 242.5t203.5 85.5q49 0 94 -13.5z" />
    <glyph glyph-name="uni0422" unicode="&#x422;" horiz-adv-x="458" 
d="M446 633l-5 -40l-107 3h-78l-3 -399l2 -197h-52l3 194l-3 402h-78l-109 -3l-4 6l5 40h424z" />
    <glyph glyph-name="uni0423" unicode="&#x423;" horiz-adv-x="553" 
d="M530 638l-197 -449q-36 -80 -62.5 -117.5t-61.5 -54t-100 -24.5l-7 1q-6 16 -9 40l3 6q56 9 85.5 20t50 33.5t42.5 67.5l-245 477l58 1l20 -51l186 -365h8l157 367l18 48h54z" />
    <glyph glyph-name="uni0424" unicode="&#x424;" horiz-adv-x="728" 
d="M605 147q-75 -67 -216 -73v-88h-48v87q-142 4 -217 68.5t-75 187.5q0 124 74.5 189t217.5 70v70h49v-69q290 -8 290 -250q0 -125 -75 -192zM568.5 176.5q62.5 55.5 62.5 160.5q0 102 -60 153.5t-181 56.5l-2 -347v-84q118 5 180.5 60.5zM160 172.5q62 -53.5 182 -57.5v82
l-1 349q-243 -9 -243 -217q0 -103 62 -156.5z" />
    <glyph glyph-name="uni0425" unicode="&#x425;" horiz-adv-x="583" 
d="M324 332l225 -332h-64l-26 45l-170 246l-171 -249l-24 -42h-58l223 327l-213 312h65l24 -43l157 -229l155 227l25 45h59z" />
    <glyph glyph-name="uni0426" unicode="&#x426;" horiz-adv-x="695" 
d="M651 -115l-42 -6l-7 121h-484l2 194l-2 445h52l-2 -442l2 -152h330l2 149l-2 445h52l-2 -442l1 -152h100v-160z" />
    <glyph glyph-name="uni0427" unicode="&#x427;" horiz-adv-x="581" 
d="M460 197l2 -197h-52l2 194v100h-7q-72 -68 -160 -78q-91 0 -134 40t-43 125l-1 258h52l-1 -245q0 -64 31.5 -97.5t90.5 -33.5q91 0 171 86l-1 290h53z" />
    <glyph glyph-name="uni0428" unicode="&#x428;" horiz-adv-x="924" 
d="M804 197l1 -197h-687l2 194l-2 445h52l-2 -442l2 -152h266l2 149l-2 445h52l-2 -442l2 -152h266l1 149l-1 445h52z" />
    <glyph glyph-name="uni0429" unicode="&#x429;" horiz-adv-x="931" 
d="M891 -115l-42 -6l-7 121h-724l2 194l-2 445h52l-2 -442l2 -152h266l2 149l-2 445h52l-2 -442l2 -152h266l1 149l-1 445h52l-2 -442l1 -152h86v-160z" />
    <glyph glyph-name="uni042A" unicode="&#x42a;" horiz-adv-x="597" 
d="M512.5 320.5q45.5 -43.5 45.5 -124.5q0 -95 -60.5 -145.5t-172.5 -50.5h-128l2 194l-2 401h-81l-100 -1l-4 6l4 39h233l-1 -275h132q87 0 132.5 -43.5zM467 86q38 38 38 104q0 64 -35.5 98.5t-103.5 34.5l-118 -1l-1 -125l2 -155l106 -2q74 8 112 46z" />
    <glyph glyph-name="uni042B" unicode="&#x42b;" horiz-adv-x="720" 
d="M400 320.5q44 -43.5 44 -124.5q0 -95 -59 -145.5t-168 -50.5h-123l2 194l-2 445h52l-1 -275h128q83 0 127 -43.5zM599 197l2 -197h-52l3 194l-3 445h53zM354.5 85.5q36.5 38.5 36.5 104.5q0 64 -34 98.5t-99 34.5l-113 -1l-1 -125l1 -155l103 -2q70 7 106.5 45.5z" />
    <glyph glyph-name="uni042C" unicode="&#x42c;" horiz-adv-x="527" 
d="M441.5 320.5q46.5 -43.5 46.5 -124.5q0 -94 -61.5 -145t-176.5 -51h-132l2 194l-2 445h52l-1 -275h137q89 0 135.5 -43.5zM396 85.5q39 38.5 39 104.5q0 64 -36.5 98.5t-107.5 34.5l-122 -1l-1 -125l2 -155l111 -2q76 7 115 45.5z" />
    <glyph glyph-name="uni042D" unicode="&#x42d;" horiz-adv-x="580" 
d="M446 563q68 -81 68 -235q0 -159 -73 -246.5t-207 -87.5q-49 0 -95.5 13.5t-83.5 39.5l12 47l8 1q34 -27 75 -41.5t86 -14.5q105 0 163 69.5t62 198.5l-131 1l-192 -1l-5 5l4 41l196 -2l127 1q-5 121 -60.5 183.5t-156.5 62.5q-47 0 -93.5 -16.5t-84.5 -46.5l-9 3l5 49
q43 28 91 42.5t97 14.5q129 0 197 -81z" />
    <glyph glyph-name="uni042E" unicode="&#x42e;" horiz-adv-x="871" 
d="M738 563.5q65 -81.5 65 -232.5q0 -162 -67.5 -249.5t-192.5 -87.5q-116 0 -180.5 80t-67.5 227h-127v-104l2 -197h-52l2 194l-2 445h52l-1 -293h127q6 144 73 221.5t185 77.5q119 0 184 -81.5zM698 109q52 73 52 214q0 138 -50.5 208t-148.5 70q-99 0 -150.5 -71
t-51.5 -209q0 -141 50 -213t147 -72q100 0 152 73z" />
    <glyph glyph-name="uni042F" unicode="&#x42f;" horiz-adv-x="559" 
d="M439 194l2 -194h-52l2 197v53h-125q-75 -130 -164 -254l-9 -4q-29 5 -45 13v7q103 131 175 248q-68 23 -104 70t-36 116q0 88 55.5 141.5t147.5 53.5l155 -2zM391 296l-2 298l-105 2q-67 -1 -107 -41t-40 -109q0 -62 32 -100.5t93 -51.5z" />
    <glyph glyph-name="uni0430" unicode="&#x430;" horiz-adv-x="449" 
d="M317 431q34 -31 34 -86q0 -21 -2 -55.5t-3 -73.5q-6 -114 -6 -129q0 -26 7.5 -36.5t25.5 -10.5t38 10l7 -5l-6 -33q-24 -15 -51 -16q-60 2 -63 75h-5q-57 -65 -118 -77q-60 0 -94 31.5t-34 87.5q0 81 88 101l166 39l2 81q0 43 -23 65.5t-65 22.5q-64 0 -140 -65l-6 3
l-8 37q82 65 161 65q61 0 95 -31zM145 179q-51 -12 -51 -60q0 -38 21 -59.5t58 -21.5q30 0 61.5 21t61.5 60l4 97z" />
    <glyph glyph-name="uni0431" unicode="&#x431;" horiz-adv-x="499" 
d="M408 387.5q44 -55.5 44 -162.5q0 -111 -51 -171t-145 -60q-98 0 -143 73.5t-45 233.5q0 95 14.5 155.5t47.5 97.5t90 58l95 36q33 12 57 25.5t54 37.5l6 -2l6 -43q-50 -37 -112 -59l-94 -34q-60 -21 -87.5 -73.5t-27.5 -145.5v-2l4 -1q32 39 73.5 63.5t83.5 28.5
q86 0 130 -55.5zM366.5 80.5q37.5 48.5 37.5 138.5q0 88 -32.5 133.5t-96.5 45.5q-41 0 -82 -25t-76 -72v-5q0 -139 34 -201.5t108 -62.5q70 0 107.5 48.5z" />
    <glyph glyph-name="uni0432" unicode="&#x432;" horiz-adv-x="453" 
d="M378 200q27 -28 27 -73q0 -64 -51 -96.5t-148 -32.5q-29 0 -115 2l2 195l-2 260l135 1q74 0 114 -28t40 -80q0 -38 -21 -66.5t-61 -43.5q53 -10 80 -38zM301.5 400q-29.5 20 -84.5 20h-77l-2 -168l101 -2q45 7 68.5 31t23.5 62q0 37 -29.5 57zM318 57q38 25 38 72
q0 76 -107 87l-111 -1v-17l2 -163q29 -3 68 -3q72 0 110 25z" />
    <glyph glyph-name="uni0433" unicode="&#x433;" horiz-adv-x="334" 
d="M339 451l-5 -35l-192 1l-2 -219l2 -198h-51l2 195l-2 260h244z" />
    <glyph glyph-name="uni0434" unicode="&#x434;" horiz-adv-x="487" 
d="M446 -102l-38 -5l-5 107h-348l-6 -102l-38 -5v147h38q30 19 47.5 56t29 103.5t21.5 183.5l7 72h222l-2 -257l1 -158h71v-142zM327 195l-1 223h-133l-4 -43q-13 -152 -33 -227.5t-57 -107.5h227z" />
    <glyph glyph-name="uni0435" unicode="&#x435;" horiz-adv-x="452" 
d="M359.5 417.5q41.5 -44.5 41.5 -124.5q0 -20 -3 -41l-8 -9l-296 -2v-15q0 -89 40.5 -139t113.5 -50q36 0 71 11.5t62 31.5l7 -4l-7 -45q-65 -37 -139 -37q-91 0 -143.5 61.5t-52.5 168.5q0 72 24 126t69 83t104 29q75 0 116.5 -44.5zM353 300q0 58 -29 90.5t-82 32.5
q-57 0 -95 -38.5t-49 -105.5l253 4z" />
    <glyph glyph-name="uni0436" unicode="&#x436;" horiz-adv-x="614" 
d="M41.5 -4.5q-14.5 2.5 -25.5 7.5v7q99 105 206 235l-192 210h60l27 -37l158 -173v-6q-89 -114 -209 -245l-6 -2q-4 1 -18.5 3.5zM283 195l-1 260h50l-1 -257l1 -198h-50zM547 -6q-131 146 -209 245v6l159 173l27 37h60l-192 -210q107 -130 206 -235v-7q-11 -5 -25.5 -7.5
t-18.5 -3.5z" />
    <glyph glyph-name="uni0437" unicode="&#x437;" horiz-adv-x="390" 
d="M314.5 199q25.5 -28 25.5 -72q0 -60 -46 -96.5t-121 -36.5q-37 0 -70 10t-56 28l10 40l5 2q22 -18 51 -28t60 -10q52 0 85 26t33 68q0 34 -22.5 56.5t-63.5 29.5h-93l-4 4l3 35l91 -1q29 11 47 35.5t18 54.5q0 34 -24.5 53.5t-67.5 19.5q-60 0 -117 -39l-7 2l3 42
q57 37 124 37q63 0 100.5 -29.5t37.5 -78.5q0 -36 -20 -66.5t-55 -46.5q48 -11 73.5 -39z" />
    <glyph glyph-name="uni0438" unicode="&#x438;" horiz-adv-x="521" 
d="M93 195l-2 259l50 3l-1 -377h5l233 375h52l-2 -256l2 -199h-51l2 192v186h-5l-235 -378h-50z" />
    <glyph glyph-name="uni0439" unicode="&#x439;" horiz-adv-x="521" 
d="M93 195l-2 259l50 3l-1 -377h5l233 375h52l-2 -256l2 -199h-51l2 192v186h-5l-235 -378h-50zM391 611q-14 -39 -48 -60t-82 -21t-81 20.5t-48 60.5l27 19h9q18 -65 94 -65q73 0 94 65h8z" />
    <glyph glyph-name="uni043A" unicode="&#x43a;" horiz-adv-x="442" 
d="M92 195l-1 256l50 6l-1 -259l1 -198h-51zM216 245q96 -118 210 -235v-7q-11 -5 -25.5 -7.5t-18.5 -3.5l-7 2q-121 131 -212 245v6l161 173l28 37h59z" />
    <glyph glyph-name="uni043B" unicode="&#x43b;" horiz-adv-x="455" 
d="M362 198l2 -198h-51l2 195l-1 223h-138l-4 -43q-12 -137 -28.5 -215t-42 -115.5t-65.5 -50.5l-15 -3l-10 40q38 14 60.5 48.5t36 104.5t24.5 199l6 72h226z" />
    <glyph glyph-name="uni043C" unicode="&#x43c;" horiz-adv-x="609" 
d="M117 455h52l27 -71l104 -268h5l112 273l26 66h51l46 -455h-43l-13 145l-23 233h-5l-135 -324h-41l-127 324h-4l-25 -222l-15 -156h-42z" />
    <glyph glyph-name="uni043D" unicode="&#x43d;" horiz-adv-x="527" 
d="M434 198l2 -198h-51l2 195v15l-247 -1v-11l2 -198h-51l2 195l-2 260h51l-2 -204l247 -1l-1 205h50z" />
    <glyph glyph-name="uni043E" unicode="&#x43e;" horiz-adv-x="483" 
d="M386.5 401.5q50.5 -60.5 50.5 -168.5q0 -113 -53 -176t-147 -63q-90 0 -140 60.5t-50 167.5q0 113 52.5 176.5t146.5 63.5q90 0 140.5 -60.5zM135 373q-39 -50 -39 -141q0 -96 37.5 -147.5t105.5 -51.5q71 0 110 49.5t39 140.5q0 96 -38 148t-106 52q-70 0 -109 -50z" />
    <glyph glyph-name="uni043F" unicode="&#x43f;" horiz-adv-x="514" 
d="M421 152l1 -152h-51l2 147l-2 269h-228l-2 -264l1 -152h-51l2 147l-2 308h331z" />
    <glyph glyph-name="uni0440" unicode="&#x440;" horiz-adv-x="505" 
d="M412.5 403q45.5 -57 45.5 -163q0 -117 -57 -181.5t-161 -64.5q-50 0 -97 9l1 -188h-51l3 380l-3 256l50 6v-66h5q62 60 136 69q83 0 128.5 -57zM366 85.5q43 52.5 43 147.5q0 88 -33.5 135.5t-95.5 47.5q-73 0 -137 -76l-1 -142l1 -142q55 -23 102 -23q78 0 121 52.5z
" />
    <glyph glyph-name="uni0441" unicode="&#x441;" horiz-adv-x="403" 
d="M303.5 452.5q34.5 -9.5 59.5 -24.5l-10 -45l-8 -1q-23 16 -52 26t-57 10q-65 0 -102.5 -51.5t-37.5 -140.5q0 -87 38 -138t104 -51q30 0 62 10.5t58 27.5l7 -4l-5 -44q-27 -15 -60.5 -24t-66.5 -9q-86 0 -136 62t-50 168q0 109 51 173.5t139 64.5q32 0 66.5 -9.5z" />
    <glyph glyph-name="uni0442" unicode="&#x442;" horiz-adv-x="344" 
d="M349 451l-4 -36l-80 2h-67l-2 -219l2 -198h-51l2 195l-2 222h-66l-82 -2l-4 6l4 34h346z" />
    <glyph glyph-name="uni0443" unicode="&#x443;" horiz-adv-x="420" 
d="M82 405l124 -342h6l129 339l15 53h49l-170 -446q-26 -68 -53.5 -106t-66 -58.5t-101.5 -34.5h-6q-14 13 -21 30l1 8q55 10 89 26t59 45t49 81l-167 453l49 5z" />
    <glyph glyph-name="uni0444" unicode="&#x444;" horiz-adv-x="581" 
d="M481 62q-57 -61 -166 -68v-179h-49v178q-110 5 -167 64t-57 166q0 109 57.5 170t166.5 68v173l49 6v-178q109 -5 166 -64t57 -167t-57 -169zM446 89q44 50 44 142q0 181 -175 190l-1 -222v-167q88 7 132 57zM135.5 85.5q44.5 -49.5 131.5 -53.5v163l-1 226
q-175 -13 -175 -196q0 -90 44.5 -139.5z" />
    <glyph glyph-name="uni0445" unicode="&#x445;" horiz-adv-x="435" 
d="M114 420l107 -156l102 154l22 37h52l-148 -223l156 -229l-56 -6l-22 41l-112 163l-111 -166l-20 -35h-52l155 233l-149 219l57 6z" />
    <glyph glyph-name="uni0446" unicode="&#x446;" horiz-adv-x="531" 
d="M490 -102l-38 -5l-6 107h-355l2 195l-2 260h51l-2 -257l2 -156l225 -1l1 154l-1 260h50l-1 -257l1 -157h73v-143z" />
    <glyph glyph-name="uni0447" unicode="&#x447;" horiz-adv-x="451" 
d="M358 198l1 -198h-50l1 195v11h-5q-52 -43 -120 -55q-74 0 -106.5 30t-33.5 98l-1 176h51l-1 -165q-1 -49 21 -72t68 -23q35 0 65.5 13.5t61.5 42.5l-1 204h51z" />
    <glyph glyph-name="uni0448" unicode="&#x448;" horiz-adv-x="695" 
d="M603 198l1 -198h-513l2 195l-2 260h48l-2 -257l2 -158h185l2 155l-2 260h48l-1 -257l1 -158h184l2 155l-1 260h47z" />
    <glyph glyph-name="uni0449" unicode="&#x449;" horiz-adv-x="720" 
d="M686 -102l-38 -5l-6 107h-551l2 195l-2 260h48l-2 -257l2 -158h185l2 155l-2 260h48l-1 -257l1 -158h184l2 155l-1 260h47l-1 -257l1 -157h82v-143z" />
    <glyph glyph-name="uni044A" unicode="&#x44a;" horiz-adv-x="444" 
d="M389.5 233q35.5 -31 35.5 -90q0 -69 -47.5 -106t-135.5 -37h-107l2 195l-2 222h-60l-72 -1l-4 4l4 35h181l-1 -191h103q68 0 103.5 -31zM347.5 66.5q27.5 26.5 27.5 71.5q0 44 -26 67.5t-76 23.5l-91 -1v-30l2 -161l82 -1q54 4 81.5 30.5z" />
    <glyph glyph-name="uni044B" unicode="&#x44b;" horiz-adv-x="583" 
d="M490 198l1 -198h-51l2 195l-1 256l50 6zM336.5 233q34.5 -31 34.5 -90q0 -69 -45.5 -106t-129.5 -37h-105l2 195l-2 260h51l-1 -191h97q64 0 98.5 -31zM294.5 66.5q25.5 26.5 25.5 71.5q0 44 -24 67.5t-70 23.5l-86 -1v-30l2 -161l77 -1q50 4 75.5 30.5z" />
    <glyph glyph-name="uni044C" unicode="&#x44c;" horiz-adv-x="408" 
d="M353.5 233q36.5 -31 36.5 -90q0 -69 -49 -106t-139 -37h-111l2 195l-2 260h51l-1 -191h106q70 0 106.5 -31zM311 66.5q29 26.5 29 71.5q0 44 -27.5 67.5t-78.5 23.5l-94 -1v-30l2 -161l85 -1q55 4 84 30.5z" />
    <glyph glyph-name="uni044D" unicode="&#x44d;" horiz-adv-x="425" 
d="M327 400q51 -62 51 -167q0 -110 -52.5 -174.5t-141.5 -64.5q-36 0 -72 9t-61 25l11 42l8 2q56 -36 115 -36q64 0 103 47t43 130l-90 1l-133 -1l-5 4l3 38l224 -1q-5 77 -45 121.5t-104 44.5q-32 0 -65.5 -10t-59.5 -28l-7 4l5 42q27 16 62 25t71 9q89 0 140 -62z" />
    <glyph glyph-name="uni044E" unicode="&#x44e;" horiz-adv-x="657" 
d="M561 401.5q47 -60.5 47 -168.5q0 -113 -49.5 -176t-137.5 -63q-81 0 -127.5 57t-49.5 159h-51l-53 -1v-11l2 -198h-51l2 195l-2 260h51l-2 -204l54 -1h51q6 101 54 156.5t130 55.5q85 0 132 -60.5zM523.5 82.5q35.5 50.5 35.5 144.5q0 95 -34 145.5t-98 50.5
q-65 0 -100 -50.5t-35 -144.5q0 -95 34 -145.5t97 -50.5q65 0 100.5 50.5z" />
    <glyph glyph-name="uni044F" unicode="&#x44f;" horiz-adv-x="442" 
d="M350 198l1 -198h-48l1 176h-94q-51 -85 -123 -178l-7 -3q-26 1 -42 10l-1 6q77 91 132 172q-104 31 -104 133q0 64 43 102t114 38l129 -1zM138 246q24 -28 70 -36l96 2v206l-81 2q-50 0 -79.5 -28t-29.5 -75q0 -43 24 -71z" />
    <glyph glyph-name="uni0450" unicode="&#x450;" horiz-adv-x="452" 
d="M359.5 417.5q41.5 -44.5 41.5 -124.5q0 -20 -3 -41l-8 -9l-296 -2v-15q0 -89 40.5 -139t113.5 -50q36 0 71 11.5t62 31.5l7 -4l-7 -45q-65 -37 -139 -37q-91 0 -143.5 61.5t-52.5 168.5q0 72 24 126t69 83t104 29q75 0 116.5 -44.5zM353 300q0 58 -29 90.5t-82 32.5
q-57 0 -95 -38.5t-49 -105.5l253 4zM323 543l-17 -24l-7 -1q-88 70 -158 131l-2 7l21 27l7 1q71 -71 156 -141z" />
    <glyph glyph-name="uni0451" unicode="&#x451;" horiz-adv-x="452" 
d="M359.5 417.5q41.5 -44.5 41.5 -124.5q0 -20 -3 -41l-8 -9l-296 -2v-15q0 -89 40.5 -139t113.5 -50q36 0 71 11.5t62 31.5l7 -4l-7 -45q-65 -37 -139 -37q-91 0 -143.5 61.5t-52.5 168.5q0 72 24 126t69 83t104 29q75 0 116.5 -44.5zM353 300q0 58 -29 90.5t-82 32.5
q-57 0 -95 -38.5t-49 -105.5l253 4zM180.5 625.5q8.5 -8.5 8.5 -23.5t-8.5 -24.5t-23.5 -9.5t-23.5 9t-8.5 24t8.5 24t24.5 9q14 0 22.5 -8.5zM330.5 625.5q8.5 -8.5 8.5 -23.5t-9 -24.5t-24 -9.5t-23.5 9t-8.5 24t9 24t24 9t23.5 -8.5z" />
    <glyph glyph-name="uni0452" unicode="&#x452;" horiz-adv-x="511" 
d="M378 441q31 -20 43.5 -69t12.5 -141q0 -117 -12 -190t-40.5 -124t-80.5 -95l-23 17v8q43 40 66 86.5t32.5 114.5t9.5 177q0 75 -8.5 116t-29 58t-58.5 17q-71 0 -147 -82l-1 -136l3 -198h-51l3 195l-2 353h-70l-5 5l3 29h72l-1 115l52 5l-1 -120h151l4 -5l-2 -29h-153
l-2 -164h6q33 33 69.5 53t70.5 24q58 0 89 -20z" />
    <glyph glyph-name="uni0453" unicode="&#x453;" horiz-adv-x="334" 
d="M339 451l-5 -35l-192 1l-2 -219l2 -198h-51l2 195l-2 260h244zM299 683l21 -27l-1 -7q-48 -41 -158 -131l-7 1l-17 24q77 63 156 141z" />
    <glyph glyph-name="uni0454" unicode="&#x454;" horiz-adv-x="425" 
d="M97.5 55.5q-51.5 61.5 -51.5 166.5q0 110 53 175t142 65q35 0 71 -9.5t63 -24.5l-12 -43l-8 -1q-56 36 -114 36q-68 0 -108 -52.5t-40 -142.5q0 -87 40.5 -138.5t110.5 -51.5q32 0 65 10.5t60 27.5l8 -3l-6 -43q-27 -15 -62.5 -24t-70.5 -9q-89 0 -140.5 61.5zM245 241
l-54 -28l-62 11h2l75 30l54 -2l59 -8z" />
    <glyph glyph-name="uni0455" unicode="&#x455;" horiz-adv-x="368" 
d="M308 439l-8 -43l-9 -2q-47 27 -91 27q-41 0 -67 -23t-26 -56q0 -32 24 -50.5t73 -40.5q40 -19 62.5 -33t39 -37t16.5 -56q0 -35 -18.5 -65t-53.5 -48t-81 -18q-67 0 -125 33l7 45l7 4q25 -21 55.5 -32t58.5 -11q46 0 74 25t28 59q0 31 -23 49.5t-72 41.5q-39 18 -63 33
t-40.5 39t-16.5 58q0 53 40 87.5t106 34.5q53 0 103 -21z" />
    <glyph glyph-name="uni0456" unicode="&#x456;" horiz-adv-x="233" 
d="M93 195l-1 256l50 6l-1 -259l1 -198h-51zM141.5 639q8.5 -9 8.5 -24q0 -16 -9 -25.5t-25 -9.5t-24.5 8.5t-8.5 24.5t9 25.5t25 9.5t24.5 -9z" />
    <glyph glyph-name="uni0457" unicode="&#x457;" horiz-adv-x="233" 
d="M92 195l-1 256l50 6l-1 -259l1 -198h-51zM87.5 625q8.5 -9 8.5 -23q0 -15 -9 -24.5t-23 -9.5q-15 0 -23.5 9t-8.5 24t8.5 24t24.5 9q14 0 22.5 -9zM192.5 625q8.5 -9 8.5 -23q0 -15 -9 -24.5t-24 -9.5t-23.5 9t-8.5 24t9 24t25 9q14 0 22.5 -9z" />
    <glyph glyph-name="uni0458" unicode="&#x458;" horiz-adv-x="264" 
d="M169 455l-3 -257l2 -182q0 -78 -25.5 -123t-91.5 -86l-20 24v7q50 35 69.5 72.5t19.5 101.5l1 183l-2 222h-89l-5 6l4 31h89l49 3zM153.5 639q8.5 -9 8.5 -24q0 -16 -9 -25.5t-25 -9.5t-24.5 8.5t-8.5 24.5t9 25.5t25 9.5t24.5 -9z" />
    <glyph glyph-name="uni0459" unicode="&#x459;" horiz-adv-x="627" 
d="M572.5 233q36.5 -31 36.5 -90q0 -69 -49 -106t-140 -37h-110l2 195l-1 223h-139l-4 -43q-12 -139 -27 -216.5t-38 -115t-61 -49.5l-15 -3l-9 40q34 14 54 48.5t32.5 104t23.5 199.5l6 72h227l-1 -191h106q70 0 106.5 -31zM530 66.5q29 26.5 29 71.5q0 44 -27.5 67.5
t-78.5 23.5l-93 -1v-30l1 -161l85 -1q55 4 84 30.5z" />
    <glyph glyph-name="uni045A" unicode="&#x45a;" horiz-adv-x="702" 
d="M647.5 226.5q36.5 -29.5 36.5 -87.5q0 -68 -48.5 -103.5t-139.5 -35.5h-111l2 195v19l-126 1l-121 -1v-16l2 -198h-51l2 195l-2 260h51l-2 -200l247 -1l-1 201h50l-2 -199h107q70 0 106.5 -29.5zM605.5 64.5q28.5 24.5 28.5 67.5q0 88 -106 88l-94 -1v-21l2 -162l85 -1
q56 5 84.5 29.5z" />
    <glyph glyph-name="uni045B" unicode="&#x45b;" horiz-adv-x="513" 
d="M396 425.5q37 -35.5 36 -100.5l-1 -128l1 -197h-52l4 315q1 48 -23.5 74.5t-69.5 26.5q-36 0 -73.5 -21.5t-73.5 -60.5l-1 -136l3 -198h-52l3 195l-1 353h-70l-5 5l3 29h71v115l51 5l-1 -120h151l4 -5l-2 -29h-153l-1 -164h5q34 33 70.5 53t70.5 24q69 0 106 -35.5z" />
    <glyph glyph-name="uni045C" unicode="&#x45c;" horiz-adv-x="442" 
d="M92 195l-1 256l50 6l-1 -259l1 -198h-51zM216 245q96 -118 210 -235v-7q-11 -5 -25.5 -7.5t-18.5 -3.5l-7 2q-121 131 -212 245v6l161 173l28 37h59zM319 683l21 -27l-1 -7q-48 -41 -158 -131l-7 1l-17 24q77 63 156 141z" />
    <glyph glyph-name="uni045D" unicode="&#x45d;" horiz-adv-x="521" 
d="M93 195l-2 259l50 3l-1 -377h5l233 375h52l-2 -256l2 -199h-51l2 192v186h-5l-235 -378h-50zM354 543l-17 -24l-7 -1q-88 70 -158 131l-2 7l21 27l7 1q71 -71 156 -141z" />
    <glyph glyph-name="uni045E" unicode="&#x45e;" horiz-adv-x="420" 
d="M82 405l124 -342h6l129 339l15 53h49l-170 -446q-26 -68 -53.5 -106t-66 -58.5t-101.5 -34.5h-6q-14 13 -21 30l1 8q55 10 89 26t59 45t49 81l-167 453l49 5zM344 611q-14 -39 -48 -60t-82 -21t-81 20.5t-48 60.5l27 19h9q18 -65 94 -65q73 0 94 65h8z" />
    <glyph glyph-name="uni045F" unicode="&#x45f;" horiz-adv-x="509" 
d="M416 198l1 -198h-137l-3 -122l-40 -5l-3 127h-143l2 195l-2 260h51l-2 -257l2 -156l225 -1l1 154l-1 260h50z" />
    <glyph glyph-name="uni0462" unicode="&#x462;" horiz-adv-x="592" 
d="M551 184q0 -92 -61 -138t-178 -46h-131l2 194l-1 354l-163 -1l-4 5l5 37h161v111h52v-111h219l5 -6l-6 -36l-219 1v-208h137q182 0 182 -156zM459.5 79.5q38.5 34.5 38.5 98.5q0 124 -143 124l-124 -1v-104l2 -157l111 -2q77 7 115.5 41.5z" />
    <glyph glyph-name="uni0463" unicode="&#x463;" horiz-adv-x="456" 
d="M392 229.5q37 -30.5 37 -88.5q0 -68 -49 -104.5t-140 -36.5h-110l1 194v223h-43l-82 -1l-3 5l4 34h123v242l50 5v-247h164l4 -4l-4 -35l-80 1h-85v-157h106q70 0 107 -30.5zM349 65.5q29 26.5 29 70.5t-26.5 67t-78.5 23l-94 -1v-28l1 -161l85 -2q55 5 84 31.5z" />
    <glyph glyph-name="uni046A" unicode="&#x46a;" horiz-adv-x="758" 
d="M735 11l-1 -7l-46 -12l-7 3q-112 126 -188 233q-25 33 -42 44.5t-48 12.5v-88l1 -197h-51l2 194l-1 91q-31 -1 -48 -12.5t-41 -44.5q-69 -95 -189 -233l-6 -3q-30 6 -46 12l-1 7q85 92 186 225q35 46 57.5 64.5t55.5 24.5l-247 276v38h608v-38l-247 -276q33 -6 56 -24.5
t57 -64.5q91 -120 186 -225zM375 328h4h4l238 270h-483z" />
    <glyph glyph-name="uni046B" unicode="&#x46b;" horiz-adv-x="575" 
d="M563 10l-1 -6q-16 -4 -26 -6t-17 -3l-7 2q-70 74 -135 161q-17 22 -30 30.5t-35 9.5v-56l2 -142h-52l1 138l-1 60q-22 -1 -34.5 -9.5t-29.5 -30.5q-64 -81 -135 -161l-6 -2q-16 1 -43 9l-1 6q65 68 136 156q27 35 44.5 49.5t41.5 18.5l-178 188v33h461v-33l-179 -189
q25 -5 43 -19.5t45 -47.5q70 -86 136 -156zM283 237h3h5l171 182h-349z" />
    </font>
</defs>
</svg>
