<svg width="873" height="874" viewBox="0 0 873 874" fill="none"
  xmlns="http://www.w3.org/2000/svg">
  <g clip-path="url(#clip0)">
    <path d="M514.2 283.13C497.73 282.33 482.2 283.92 469.96 296.08C469.757 296.281 469.638 296.551 469.625 296.836C469.612 297.122 469.707 297.401 469.89 297.62C471.52 299.57 476.04 304.2 480.42 301.9C489.327 297.192 499.56 295.621 509.47 297.44C510.422 297.699 511.351 298.033 512.25 298.44V298.49C508.41 318.92 493.25 329.36 477.72 340.09C475.29 336.09 473.41 332.34 470.93 329.09C467.813 324.871 464.397 320.881 460.71 317.15C455.2 311.63 449.22 306.59 443.63 301.15C435.75 293.46 444.91 281.74 446.47 281.64L446.03 281.12C440.83 276.95 435.61 277.37 430.34 279.36C424.1 281.71 417.63 287.16 419.84 296.78C421.74 305.04 419.47 312.31 416.38 319.38C412.11 329.18 407.38 338.81 402.13 348.14C399.62 352.63 395.71 356.38 392.22 360.27C390.916 361.538 389.358 362.516 387.65 363.14C383.9 364.74 380.82 363.4 379.36 359.56C378.804 358.027 378.484 356.419 378.41 354.79C377.91 344.99 377.89 335.21 379.73 325.5C380.39 322.01 381.11 315.5 381.37 313.07C381.395 312.777 381.313 312.484 381.141 312.246C380.968 312.007 380.716 311.838 380.43 311.77C376.18 310.77 372.43 312.11 368.77 312.83C367.69 313.04 366.77 315.15 366.16 316.56C362.16 326.09 358.55 335.79 354.27 345.19C351.263 351.599 347.86 357.814 344.08 363.8C342.333 366.539 340.075 368.915 337.43 370.8C334.22 373.14 332.04 372.58 329.25 369.72C326.14 366.55 325.18 362.48 324.78 358.28C323.89 349.13 325.15 340.18 327.54 331.34C328.26 328.65 329.34 323.72 329.76 321.72C329.788 321.608 329.791 321.491 329.77 321.377C329.749 321.263 329.703 321.156 329.637 321.061C329.571 320.966 329.485 320.887 329.385 320.828C329.286 320.769 329.175 320.732 329.06 320.72C326.76 320.46 320.58 319.85 317.53 320.37C316.1 320.61 315.01 322.85 313.73 324.54C313.687 324.6 313.631 324.649 313.566 324.682C313.501 324.716 313.428 324.734 313.355 324.734C313.281 324.734 313.209 324.716 313.144 324.682C313.079 324.649 313.022 324.6 312.98 324.54C309.98 320.18 305.5 318.92 300.31 319.08C280.04 319.69 265.02 328.96 256.87 347.44C251.55 359.49 250.96 371.99 257.34 384.12C258.581 386.491 260.45 388.476 262.743 389.857C265.035 391.238 267.663 391.962 270.34 391.95C279.82 392.16 288.28 389.48 294.99 382.47C297.32 380.04 299.51 377.47 301.94 374.73C302.048 374.607 302.183 374.51 302.335 374.447C302.486 374.383 302.65 374.355 302.814 374.365C302.978 374.375 303.138 374.422 303.281 374.502C303.424 374.583 303.547 374.695 303.64 374.83C304.27 375.75 304.84 376.58 305.47 377.35C309.091 381.985 314.403 384.995 320.24 385.72C331.31 387.14 340.6 384.23 347.98 375.5C352.54 370.1 359.64 357.34 360.23 356.35C360.23 356.35 360.23 356.35 360.28 356.35C360.87 361.53 361.08 365.7 361.88 369.75C363.18 376.31 365.42 377.83 372.04 379.15C380.75 380.89 388.16 378.07 395.1 373.36C402.518 368.374 408.754 361.824 413.37 354.17C420.59 342.17 427.73 330.17 431.91 316.71C432 316.44 432.41 316.25 432.91 315.71C444.21 324.45 453.31 334.84 458.44 349.02C456.63 350.02 455.12 350.95 453.58 351.78C442.87 357.57 433.67 365.11 426.64 375.11C420.22 384.26 417.16 394.27 419.71 405.47C421.71 414.23 426.37 418.14 435.4 418.42C449.09 418.84 460.62 413.87 468.12 402.42C477.7 387.7 484.03 371.77 480.91 353.56C480.57 351.56 480.5 349.76 482.45 348.22C489.72 342.49 496.87 336.61 504.08 330.8C504.3 330.63 504.73 330.73 505.26 330.69C505.51 338.06 505.71 345.42 506.03 352.78C506.49 363.26 508.5 373.29 514.44 382.25C516.991 386.279 520.655 389.482 524.99 391.47C534.462 395.966 545.33 396.52 555.21 393.01C558.3 391.93 561.05 389.5 563.59 387.27C565.73 385.38 567.33 382.88 568.94 380.91C573.52 383.77 577.65 387.09 582.34 389.13C592.947 393.791 604.849 394.601 615.99 391.42C628.52 387.98 640.29 382.85 650.16 374.08C650.602 373.709 651.073 373.374 651.57 373.08C651.667 373.02 651.778 372.989 651.892 372.991C652.005 372.992 652.116 373.025 652.211 373.087C652.307 373.149 652.383 373.236 652.43 373.34C652.478 373.443 652.495 373.557 652.48 373.67C651.6 380.36 650.78 386.54 649.95 392.86C649.923 393.052 649.937 393.248 649.991 393.435C650.045 393.621 650.138 393.794 650.264 393.943C650.389 394.091 650.545 394.211 650.72 394.295C650.895 394.379 651.086 394.425 651.28 394.43C655.19 394.54 665.51 394.72 668.89 394.77C669.197 394.778 669.497 394.684 669.745 394.503C669.993 394.322 670.174 394.065 670.26 393.77C671.45 389.27 672.82 384.77 673.67 380.23C676.54 364.81 683.9 351.63 693.58 339.6C697.22 335.06 701.76 331.91 707.91 331.81C713.35 331.71 715.28 332.81 716.25 338.23C717.25 344.11 717.63 350.12 718.25 356.07C719.04 363.45 719.25 370.97 720.76 378.19C722.968 389.152 728.624 399.12 736.9 406.64C748.41 416.99 761.68 418.7 775.9 413.06C785.418 409.464 794.401 404.585 802.6 398.56C815.34 388.93 828.43 379.76 841.16 370.11C847.8 365.06 853.97 359.4 860.37 354.03C861.18 353.35 863.37 351.79 863.87 351.4C863.884 351.39 863.901 351.383 863.918 351.381C863.936 351.378 863.954 351.38 863.97 351.386C863.987 351.392 864.002 351.401 864.014 351.414C864.026 351.427 864.035 351.443 864.04 351.46C870.691 384.283 873.513 417.767 872.45 451.24C871.446 483.912 866.698 516.36 858.3 547.95C858.158 548.489 857.813 548.952 857.338 549.242C856.863 549.533 856.294 549.629 855.75 549.51C836.09 545 818.35 550.18 801.53 559.44C792.53 564.44 784.1 570.57 775.44 576.23C770.44 579.5 765.53 582.97 760.44 586.13C752.679 590.893 744.054 594.077 735.06 595.5C731.931 596.092 728.706 595.933 725.651 595.034C722.596 594.135 719.799 592.523 717.49 590.33C710.58 584.14 706.83 576.14 704.49 567.46C700.9 554.4 699.35 541.02 701.15 527.56C701.95 521.51 704.22 515.65 705.85 509.71C705.96 509.31 706.17 508.71 706.39 508.03C706.59 507.473 706.582 506.862 706.367 506.311C706.152 505.759 705.744 505.304 705.22 505.03C700.07 502.41 694.42 502.17 688.93 501.24C688.634 501.19 688.331 501.22 688.051 501.327C687.771 501.434 687.526 501.615 687.34 501.85C687.01 502.27 686.34 504.57 685.28 504.8C684.22 505.03 683.07 503.2 682.76 502.92C674.53 495.49 665.07 494.92 655.3 498.71C648.646 501.235 642.59 505.117 637.518 510.11C632.446 515.103 628.469 521.096 625.84 527.71C624.17 531.71 621.95 534.36 617.92 535.9C614.2 537.32 610.73 539.38 607.06 540.9C587.86 549.13 570.75 560.67 554.57 573.71C553.44 574.63 552.31 575.53 551.14 576.4C550.621 576.635 550.078 576.813 549.52 576.93C548.95 573.58 548.52 570.28 547.82 567.02C543.906 548.193 539.963 529.37 535.99 510.55C535.24 507 534.6 503.43 533.8 499.89C533.06 496.62 532.07 495.89 528.8 496.75C524.24 497.92 519.7 499.23 515.24 500.75C511.86 501.89 510.89 503.32 511.42 506.95C512.42 513.59 513.8 520.15 514.82 526.78C515.217 528.87 515.145 531.021 514.61 533.08C509.242 550.319 499.842 566.03 487.19 578.91C482.707 583.716 477.253 587.513 471.19 590.05C459.36 594.71 448.39 587.35 448.19 574.57C448.04 567.32 448.25 560.06 448.03 552.81C447.675 546.077 446.064 539.47 443.28 533.33C437.61 519.93 427.4 515.33 412.17 517.96C403.65 519.45 396.78 524.26 390.75 530.24C387.2 533.77 383.93 537.57 380.18 541.64C380.75 534.05 381.29 526.93 381.86 519.46C381.876 519.223 381.844 518.986 381.765 518.762C381.686 518.538 381.563 518.333 381.401 518.159C381.24 517.984 381.045 517.845 380.828 517.749C380.611 517.653 380.377 517.602 380.14 517.6H362.04C361.637 517.6 361.246 517.741 360.936 517.998C360.625 518.256 360.414 518.614 360.34 519.01C359.78 522.15 359.29 525.21 358.57 528.22C358.046 530.866 357.193 533.436 356.03 535.87C352.37 542.76 348.43 549.5 344.54 556.27C338.96 566.01 331.91 574.47 322.49 580.73C316.85 584.48 310.92 585.73 304.49 582.58C302.321 581.616 300.399 580.173 298.868 578.36C297.337 576.546 296.237 574.41 295.65 572.11C293.521 564.415 293.075 556.353 294.34 548.47C296.34 540.58 297.91 532.56 299.66 524.6C299.96 523.23 300.24 521.85 300.58 520.2C300.616 520.02 300.613 519.835 300.572 519.656C300.531 519.477 300.453 519.309 300.343 519.163C300.232 519.016 300.092 518.895 299.931 518.806C299.77 518.718 299.593 518.665 299.41 518.65C295.68 518.38 285.69 517.81 280.28 518.78C279.28 518.96 278.28 520.26 277.72 521.28C276.878 522.892 276.249 524.606 275.85 526.38C274.37 532.91 270.99 538.38 266.85 543.55C261.43 550.37 256.34 557.46 250.93 564.29C244.12 572.87 238.2 579.52 228.43 586.8C222.86 591.11 215.93 594.74 208.83 592.92C204.41 592.08 202.22 591.57 192.89 587.35C182.28 582.85 171 582.79 159.84 584.02C159.28 584.02 157.05 584.74 156.54 583.82C156.03 582.9 157.29 580.55 157.54 579.95C160.94 572.14 164.8 564.49 167.72 556.51C174.09 539.13 180 521.59 183.01 503.24C183.211 501.82 183.723 500.461 184.51 499.262C185.296 498.062 186.338 497.051 187.56 496.3C198.7 488.61 208.65 479.63 215.98 468.1C222.91 457.21 228.04 445.77 226.98 432.35C226.711 428.33 225.213 424.491 222.69 421.35C221.241 419.771 219.336 418.684 217.24 418.24C210.74 416.71 204.98 419.1 199.91 422.85C196.278 425.568 192.928 428.643 189.91 432.03C177.43 445.92 170.6 462.49 167 480.65C163.45 498.55 163.29 498.58 148.13 508.23C137.87 514.76 127.47 521.08 117.13 527.49C104.58 535.28 90.6998 540.04 76.5198 543.14C63.5198 545.98 57.4398 546.31 47.8298 546.14C37.3398 545.96 27.2898 544.26 17.8898 539.31C15.7696 538.294 13.9223 536.787 12.5014 534.914C11.0804 533.041 10.1269 530.856 9.71983 528.54C0.76304 486.928 -2.06017 444.229 1.33983 401.8C2.33983 389.51 4.33983 377.29 5.81983 365.05C6.08983 362.88 6.36983 360.72 6.71983 357.98C6.73489 357.879 6.77966 357.786 6.8484 357.711C6.91714 357.636 7.0067 357.583 7.10559 357.56C7.20447 357.536 7.30817 357.542 7.40336 357.578C7.49856 357.614 7.58091 357.677 7.63983 357.76C8.16601 358.498 8.63728 359.273 9.04982 360.08C14.9098 372.65 23.2198 383.08 32.1698 393.99C37.582 400.792 44.3265 406.417 51.9898 410.52C59.2598 414.9 71.7498 417.72 80.2998 416.42C91.3798 414.74 100.37 410.75 109.97 403.07C125.99 389.64 137.69 373.33 144.4 353.41C150.11 338.63 155.4 323.79 158.4 308.27C159.5 302.7 159.73 296.96 160.88 291.19C160.899 291.107 160.947 291.032 161.014 290.979C161.081 290.926 161.164 290.897 161.25 290.897C161.336 290.897 161.419 290.926 161.486 290.979C161.553 291.032 161.6 291.107 161.62 291.19C161.949 292.993 162.186 294.812 162.33 296.64C163.41 318.24 164.98 339.81 171.33 360.64C173.859 368.389 176.981 375.931 180.67 383.2C183.23 388.5 186.88 392.9 193.67 393.47C197.2 393.879 200.778 393.452 204.113 392.224C207.448 390.996 210.448 389.001 212.87 386.4C215.769 383.387 218.371 380.102 220.64 376.59C226.47 367.59 231.95 358.39 235.75 348.3C246.75 319.03 255.84 289.19 261.14 258.3C263.01 247.39 264.36 236.39 266.03 225.45C266.74 220.79 267.66 216.16 268.47 211.52C268.676 210.635 268.78 209.729 268.78 208.82C268.31 202.55 267.46 197.89 258.32 200.35C257.22 200.65 256.1 200.91 254.99 201.17C248.41 202.7 246.39 205 245.55 211.7C242.69 234.59 238.96 257.41 232.17 279.42C224.26 305.07 214.76 330.23 205.9 355.58C205.366 357.318 204.563 358.961 203.52 360.45C202.77 361.45 201.19 362.55 200.19 362.38C199.565 362.132 199.007 361.74 198.563 361.237C198.118 360.733 197.798 360.131 197.63 359.48C195.63 349.34 193.45 339.21 191.98 328.98C188.98 308.14 185.87 287.3 183.78 266.36C182.29 251.36 182.38 236.27 181.78 221.21C181.75 219.037 181.6 216.867 181.33 214.71C180.68 210.58 178.18 207.85 174.13 208.07C169.27 208.376 164.456 209.197 159.77 210.52C156.13 211.52 155.47 215.11 155.13 218.44C154.48 224.76 154.2 231.12 153.27 237.39C150.64 254.96 148.12 272.56 144.89 290.02C141.38 308.93 137.07 327.7 129.89 345.63C127 352.86 123.65 359.93 120.17 366.9C115.61 376.05 108.47 382.9 100.17 388.79C89.7898 396.16 78.2298 397.38 66.3598 394.79C46.3598 390.37 29.9798 379.79 17.4098 363.52C15.1998 360.65 13.0298 357.73 11.0898 354.67C10.2194 353.302 9.6412 351.769 9.39167 350.167C9.14214 348.564 9.22663 346.928 9.63983 345.36C22.8898 283.73 47.8798 227.29 85.7098 176.92C152.11 88.54 239.71 32.86 347.71 9.37001C386.12 1.07685 425.511 -1.73774 464.71 1.01001C616.26 11.2 740.49 96.21 809.83 211.66C832.309 249.066 849.121 289.596 859.72 331.93C860.56 335.26 860.97 338.71 861.87 342.03C862.87 345.55 861.68 347.97 858.77 349.91C851.36 354.82 844.09 359.91 836.61 364.73C822.86 373.54 809 382.2 795.18 390.91C788.969 394.855 781.98 397.413 774.69 398.41C769.714 399.166 764.628 398.303 760.18 395.948C755.733 393.592 752.161 389.87 749.99 385.33C746.99 378.82 746.58 371.76 745.56 364.84C744.27 356.04 743.38 347.18 742.05 338.39C740.85 330.39 736.78 323.73 731.61 317.77C727.8 313.38 722.39 312.17 716.86 311.77C711.023 311.19 705.146 312.374 699.99 315.17C694.79 318.06 689.72 321.17 684.48 324.33C684.33 324.419 684.16 324.467 683.986 324.47C683.812 324.473 683.64 324.43 683.488 324.346C683.335 324.263 683.207 324.14 683.116 323.992C683.026 323.844 682.975 323.674 682.97 323.5C682.97 318.66 685.56 314.1 685.32 309.31C685.308 309.024 685.204 308.749 685.024 308.525C684.844 308.302 684.597 308.143 684.32 308.07C681.87 307.41 675.05 305.98 671.49 306.07C668.56 306.13 666.83 307.74 666.29 310.65C665.53 314.75 664.79 318.86 663.89 322.93C663.586 324.517 663.025 326.043 662.23 327.45C653.73 341.49 642.99 353.78 631.39 365.33C624.13 372.62 615.16 377.43 605.39 380.69C603.852 381.24 602.198 381.382 600.589 381.102C598.98 380.821 597.471 380.128 596.21 379.09C591.56 375.72 589.59 372.23 587.78 363.95C588.86 363.32 590.02 362.54 591.27 361.95C597.48 358.95 603.8 356.17 609.91 352.95C620.823 347.411 629.629 338.461 634.99 327.46C640.23 316.9 634.21 306.78 626.82 302.82C614.6 296.27 601.24 297.71 591.19 307.55C579.48 319.02 570.65 332.42 565.71 348.22C563.21 356.22 560.5 364.13 554.93 370.63C553.563 372.327 552.029 373.881 550.35 375.27C544.86 379.54 537.86 377.59 535.5 371.08C532.304 361.808 530.449 352.127 529.99 342.33C529.49 334.33 529.65 326.33 529.68 318.33C529.68 312.06 531.68 306.21 533.98 300.45C535.3 297.1 537.47 295.51 541.18 294.84C549.238 293.49 557.206 291.65 565.04 289.33C580.04 284.72 592.68 276.59 601.51 263.26C602.34 262.01 603.08 260.72 604.05 259.12C604.114 259.012 604.155 258.892 604.17 258.768C604.185 258.643 604.175 258.517 604.139 258.397C604.104 258.277 604.044 258.165 603.963 258.069C603.882 257.974 603.782 257.896 603.67 257.84L598.8 255.48C596.14 254.18 594.05 254.67 592.18 257.1C588.473 262.052 583.874 266.267 578.62 269.53C573.228 272.908 567.284 275.311 561.06 276.63C555.26 277.78 549.52 279.23 542.52 280.83C544.46 278.15 545.68 276.44 546.92 274.75C557.69 260.14 568.39 245.49 576.12 228.94C578.2 224.48 580.03 219.94 579.79 214.87C579.45 207.71 574.52 203.95 566.15 204.49C561.708 204.827 557.451 206.411 553.87 209.06C546.716 214.21 540.591 220.655 535.81 228.06C528.39 239.56 522.2 251.58 519.3 265.14C518.05 270.98 516.08 276.66 514.22 283.14L514.2 283.13ZM513.6 461.81C522.94 461.27 528.5 455.81 528.6 447.02C528.647 444.928 528.275 442.848 527.506 440.902C526.737 438.957 525.586 437.184 524.122 435.69C522.657 434.196 520.908 433.01 518.978 432.202C517.048 431.394 514.976 430.981 512.884 430.986C510.792 430.991 508.721 431.415 506.796 432.233C504.87 433.051 503.127 434.246 501.67 435.747C500.213 437.249 499.072 439.027 498.312 440.977C497.553 442.927 497.192 445.009 497.25 447.1C497.28 455.82 504.89 462.33 513.6 461.81ZM304.6 472.81C311.2 472.97 317.06 467.09 317.33 460.02C317.535 456.463 316.328 452.969 313.97 450.299C311.612 447.628 308.295 445.997 304.74 445.76C301.08 445.693 297.542 447.075 294.897 449.606C292.251 452.137 290.714 455.611 290.62 459.27C290.55 466.79 296.55 472.6 304.58 472.8L304.6 472.81ZM385.28 257.28C385.267 254.066 383.981 250.989 381.704 248.721C379.426 246.453 376.344 245.18 373.13 245.18C369.951 245.294 366.943 246.644 364.744 248.943C362.546 251.241 361.331 254.307 361.359 257.487C361.386 260.668 362.653 263.712 364.891 265.972C367.128 268.233 370.16 269.531 373.34 269.59C376.548 269.517 379.597 268.182 381.828 265.876C384.059 263.57 385.292 260.478 385.26 257.27L385.28 257.28Z" fill="#FFC4C8"/>
    <path d="M15.7401 550.84C15.6856 550.615 15.6898 550.38 15.7524 550.157C15.815 549.934 15.9339 549.731 16.0976 549.567C16.2612 549.404 16.4643 549.285 16.6871 549.222C16.91 549.16 17.1452 549.156 17.3701 549.21C21.0701 550.15 24.2801 550.93 28.3701 551.67C46.3101 555.49 86.8901 550.08 99.3701 545.4C116.44 538.4 127.49 529.85 141.2 522.4C145.14 520.58 149.46 518.35 153.25 516.21C153.64 515.99 154.05 515.71 154.52 515.39C154.739 515.246 154.997 515.173 155.259 515.182C155.521 515.19 155.773 515.279 155.983 515.437C156.192 515.595 156.347 515.813 156.427 516.063C156.507 516.312 156.508 516.58 156.43 516.83C154.68 522.35 153.04 527.96 151.36 532.63C145.71 548.34 140.05 564.04 134.16 579.63C131.779 586.383 127.345 592.222 121.48 596.33C116.09 600.02 110.7 603.71 105.23 607.33C100.36 610.52 97.3101 614.68 97.2301 620.72C97.1324 622.545 97.6058 624.354 98.5843 625.898C99.5629 627.441 100.998 628.64 102.69 629.33C105.551 630.777 108.728 631.486 111.932 631.393C115.137 631.301 118.268 630.409 121.04 628.8C125.391 626.228 129.419 623.146 133.04 619.62C136.61 616.29 139.3 612.04 142.87 608.71C146.364 605.317 150.271 602.377 154.5 599.96C163.66 595.03 172.67 596.25 181.15 602.09C199.15 614.46 224.81 613.74 241 596.96C250.015 587.726 258.092 577.62 265.11 566.79C266.33 564.88 267.89 563.18 270.06 560.41C270.7 564.98 270.83 568.41 271.69 571.58C273.39 577.88 274.79 584.42 277.51 590.28C279.967 595.548 284.178 599.797 289.422 602.302C294.667 604.807 300.619 605.411 306.26 604.01C322.04 600.08 334.72 591.01 346.16 580.07C348.41 577.92 350.01 575.07 352.26 571.79C352.334 571.686 352.439 571.608 352.56 571.567C352.681 571.527 352.812 571.526 352.934 571.565C353.055 571.604 353.161 571.681 353.236 571.784C353.311 571.888 353.351 572.012 353.35 572.14C353.03 578.22 351.35 591.39 351.1 595.14C350.86 598.68 350.05 601.88 350.53 605.35C350.619 605.979 350.921 606.559 351.385 606.994C351.848 607.428 352.446 607.692 353.08 607.74C359.125 608.184 365.202 607.657 371.08 606.18C371.883 605.981 372.6 605.527 373.124 604.888C373.648 604.248 373.952 603.456 373.99 602.63C374.05 601.17 374.12 599.75 374.25 598.33C376.1 577.9 383.15 559.59 396.49 543.85C400.11 539.57 404.81 536.92 409.96 534.93C419.84 531.1 427.82 536.36 428.47 547.79C428.94 555.94 428.47 564.14 428.9 572.3C429.221 578.997 429.888 585.672 430.9 592.3C431.536 595.678 432.626 598.955 434.14 602.04C438.99 612.7 449.46 614.9 458.79 610.36C463.042 608.327 467.065 605.847 470.79 602.96C488.35 589.07 504.98 574.22 517.85 555.64C518.01 555.41 518.17 555.19 518.36 554.96C518.547 554.723 518.8 554.545 519.087 554.449C519.374 554.354 519.683 554.344 519.975 554.422C520.267 554.499 520.53 554.661 520.732 554.886C520.934 555.111 521.065 555.391 521.11 555.69C523.01 569.35 524.82 583.01 526.71 596.69C527.14 599.8 526.09 602.18 524.08 604.56C510.54 620.56 499.08 637.94 490.71 657.3C485.2 670.09 481.4 683.3 481.28 697.3C481.311 707.5 483.301 717.6 487.14 727.05C493.14 742.37 511.65 744.05 521.37 737.14C522.132 736.648 522.867 736.113 523.57 735.54C532.25 727.89 539.17 719.63 543.51 708.17C546.551 700.658 548.855 692.868 550.39 684.91C551.59 678.104 552.331 671.225 552.61 664.32C552.4 643.26 552.61 622.11 552.2 601.05C552.176 600.066 552.381 599.091 552.799 598.2C553.217 597.31 553.837 596.529 554.61 595.92C573.24 578.21 592.9 561.92 616.44 550.92C617.21 550.56 617.98 550.23 618.8 549.87C619.052 549.764 619.326 549.722 619.597 549.748C619.869 549.774 620.13 549.867 620.357 550.019C620.584 550.171 620.769 550.376 620.897 550.617C621.025 550.858 621.092 551.127 621.09 551.4C621.09 553.76 621.03 555.9 621.09 558.04C621.68 572.04 630.63 579.04 644.48 578.7C653.84 578.43 661.48 573.94 668.17 567.7C670.17 565.81 672.08 563.7 674.32 561.29C674.431 561.171 674.572 561.082 674.728 561.034C674.884 560.986 675.05 560.98 675.209 561.017C675.368 561.053 675.515 561.131 675.634 561.242C675.754 561.353 675.842 561.494 675.89 561.65C676.36 563.21 676.78 564.56 677.11 565.93C679.96 577.59 684.95 588.2 693.11 597.11C705.58 610.79 721.11 615.17 739.11 611.61C749.284 609.578 758.964 605.583 767.61 599.85C778.98 592.37 790.14 584.59 801.51 577.11C808.51 572.53 815.51 567.97 822.79 563.94C832.01 558.85 842.17 556.87 852.63 556.41C853.3 556.399 853.969 556.446 854.63 556.55C854.778 556.564 854.921 556.611 855.048 556.687C855.175 556.764 855.284 556.867 855.367 556.991C855.449 557.114 855.503 557.255 855.524 557.401C855.545 557.548 855.534 557.698 855.49 557.84C811.42 724.16 652.08 868.95 446.49 873.51C224.64 878.46 58.9901 723.18 15.7401 550.84Z" fill="#FFC4C8"/>
    <path d="M529.5 626.27C529.694 626.125 529.924 626.035 530.165 626.01C530.406 625.986 530.649 626.027 530.869 626.129C531.089 626.232 531.276 626.392 531.412 626.593C531.548 626.794 531.626 627.028 531.64 627.27C532.27 635.2 533.05 643.14 533.35 651.09C533.771 659.419 533.747 667.764 533.28 676.09C532.525 687.195 528.817 697.898 522.54 707.09C522.231 707.532 521.898 707.957 521.54 708.36C517.15 713.36 512.23 712.95 508.9 707.06C505.809 701.476 504.289 695.159 504.5 688.78C504.61 680.15 506.6 671.91 509.19 663.78C513.02 651.78 517.32 644.93 523.65 634.14C524.31 632.9 528.08 627.33 529.5 626.27Z" fill="#FFC4C8"/>
    <path d="M301.69 329.33C298.99 343.33 288.42 363.97 278.13 375.33C277.97 375.507 277.768 375.642 277.543 375.722C277.318 375.802 277.076 375.824 276.84 375.788C276.604 375.751 276.381 375.656 276.19 375.512C276 375.367 275.849 375.177 275.75 374.96C275.27 374.034 274.914 373.049 274.69 372.03C272.57 360.09 272.83 348.44 280.52 338.27C282.977 335.145 285.854 332.375 289.07 330.04C290.698 328.839 292.57 328.008 294.553 327.608C296.536 327.207 298.583 327.245 300.55 327.72C300.909 327.793 301.227 328 301.439 328.299C301.651 328.598 301.741 328.967 301.69 329.33Z" fill="#FFC4C8"/>
    <path d="M186.79 484.06C186.626 484.134 186.445 484.16 186.267 484.134C186.089 484.108 185.922 484.031 185.786 483.913C185.65 483.796 185.551 483.641 185.501 483.469C185.45 483.296 185.45 483.113 185.5 482.94C188.5 472.79 191.03 463.58 193.91 454.59C194.545 452.616 195.331 450.694 196.26 448.84C199.11 443.2 202.41 438.42 207.47 434.6C209.16 433.32 210.76 431.6 213.28 432.88C215.55 434.56 214.62 437.11 214.58 439.18C214.06 444.61 213.35 449.76 210.87 454.7C205.24 465.89 197.05 475.01 187.94 483.4C187.594 483.679 187.206 483.901 186.79 484.06Z" fill="#FFC4C8"/>
    <path d="M610.63 311.48C611.135 311.03 611.798 310.8 612.473 310.839C613.149 310.879 613.78 311.185 614.23 311.69C617.85 315.83 618.58 321.22 615.95 326.83C612.191 335.147 606.155 342.229 598.54 347.26C596.81 348.39 595.02 349.42 593.15 350.48C592.721 350.723 592.23 350.836 591.738 350.805C591.246 350.773 590.774 350.599 590.38 350.302C589.985 350.006 589.686 349.6 589.519 349.136C589.352 348.672 589.325 348.169 589.44 347.69C592.43 335.52 602.06 318.97 610.63 311.48Z" fill="#FFC4C8"/>
    <path d="M667.3 525.97C667.505 525.872 667.732 525.829 667.959 525.845C668.185 525.862 668.404 525.938 668.592 526.065C668.78 526.193 668.932 526.368 669.031 526.572C669.131 526.776 669.175 527.003 669.16 527.23C669.149 527.687 669.065 528.14 668.91 528.57C665.416 537.149 660.7 545.179 654.91 552.41C653.1 554.69 650.91 557.31 647.73 556.13C644.55 554.95 644.05 551.43 643.92 548.29C643.929 546.654 644.043 545.021 644.26 543.4C644.7 538.57 646.53 535.03 651.59 533.15C656.82 531.2 661.84 528.57 667.3 525.97Z" fill="#FFC4C8"/>
    <path d="M443.19 404.87C437.04 392.41 444.42 373.87 459.19 364.65C461.3 374.09 451.67 398.23 443.19 404.87Z" fill="#FFC4C8"/>
    <path d="M533.65 260.78C535.764 253.619 538.401 246.624 541.54 239.85C543.853 234.887 547.638 230.757 552.38 228.02C553.48 227.39 555.32 226.9 556.23 227.4C558.1 228.4 557.14 230.17 556.3 231.63C552.43 238.37 548.59 245.12 544.69 251.84C540.96 258.29 537.18 264.71 533.42 271.14C533.16 271.59 532.42 271.43 532.42 270.92C532.571 267.513 532.982 264.124 533.65 260.78Z" fill="#FFC4C8"/>
    <path d="M651.48 524.33C651.337 524.378 651.183 524.38 651.039 524.337C650.895 524.294 650.768 524.207 650.675 524.089C650.582 523.971 650.528 523.827 650.52 523.677C650.512 523.527 650.55 523.378 650.63 523.25C653.5 518.91 657.45 515.04 662.43 513.25C665.69 512.07 667.57 512.74 670.65 515.84C670.711 515.902 670.755 515.977 670.78 516.06C670.805 516.143 670.809 516.23 670.793 516.315C670.776 516.4 670.739 516.479 670.684 516.546C670.63 516.614 670.56 516.666 670.48 516.7C664.87 519.05 655.45 522.89 651.48 524.33Z" fill="#FFC4C8"/>
  </g>
  <defs>
    <clipPath id="clip0">
      <rect width="872.67" height="873.65" fill="white"/>
    </clipPath>
  </defs>
</svg>
